SplineFontDB: 2.0
FontName: THNiramitAS-BoldItalic
FullName: THNiramitAS-BoldItalic
FamilyName: TH Niramit AS
Weight: Bold
Copyright: Copyright (c) 2006 by Department of Intellectual Property (DIP), Ministry of Commerce and Software Industry Promotion Agency (Public Organization) (SIPA). All rights reserved.
Version: 1.1
ItalicAngle: -12
UnderlinePosition: -35
UnderlineWidth: 30
Ascent: 800
Descent: 200
Order2: 1
XUID: [1021 375 425136265 7719273]
FSType: 0
OS2Version: 3
OS2_WeightWidthSlopeOnly: 0
OS2_UseTypoMetrics: 1
CreationTime: 1157457558
ModificationTime: 1196156671
PfmFamily: 17
TTFWeight: 700
TTFWidth: 5
LineGap: 60
VLineGap: 0
Panose: 2 0 5 6 0 0 0 2 0 4
OS2TypoAscent: 0
OS2TypoAOffset: 1
OS2TypoDescent: 0
OS2TypoDOffset: 1
OS2TypoLinegap: 0
OS2WinAscent: 15
OS2WinAOffset: 1
OS2WinDescent: 1
OS2WinDOffset: 1
HheadAscent: -105
HheadAOffset: 1
HheadDescent: 299
HheadDOffset: 1
OS2SubXSize: 700
OS2SubYSize: 650
OS2SubXOff: 0
OS2SubYOff: 140
OS2SupXSize: 700
OS2SupYSize: 650
OS2SupXOff: 0
OS2SupYOff: 477
OS2StrikeYSize: 30
OS2StrikeYPos: 250
OS2FamilyClass: 773
OS2Vendor: 'IPTH'
Lookup: 4 0 0 "'frac' Diagonal Fractions in Latin lookup 0"  {"'frac' Diagonal Fractions in Latin lookup 0 subtable"  } ['frac' ('latn' <'dflt' > ) ]
Lookup: 6 0 0 "'liga' Standard Ligatures in Latin lookup 1"  {"'liga' Standard Ligatures in Latin lookup 1 subtable"  } ['liga' ('latn' <'dflt' > ) ]
Lookup: 6 0 0 "'liga' Standard Ligatures in Latin lookup 2"  {"'liga' Standard Ligatures in Latin lookup 2 subtable"  } ['liga' ('latn' <'dflt' > ) ]
Lookup: 6 0 0 "'liga' Standard Ligatures in Latin lookup 3"  {"'liga' Standard Ligatures in Latin lookup 3 subtable"  } ['liga' ('latn' <'dflt' > ) ]
Lookup: 6 0 0 "'liga' Standard Ligatures in Latin lookup 4"  {"'liga' Standard Ligatures in Latin lookup 4 subtable"  } ['liga' ('latn' <'dflt' > ) ]

StartChar: .notdef
Encoding: 65536 -1 0
Width: 747
VWidth: 1494
Flags: W
HStem: 0 52<155 611> 987 52<354 810>
Fore
611 52 m 1,0,-1
 810 987 l 1,1,-1
 354 987 l 1,2,-1
 155 52 l 1,3,-1
 611 52 l 1,0,-1
652 0 m 1,4,-1
 94 0 l 1,5,-1
 314 1039 l 1,6,-1
 871 1039 l 1,7,-1
 652 0 l 1,4,-1
EndSplineSet
EndChar
StartChar: numbersign
Encoding: 35 35 4
Width: 602
VWidth: 1494
Flags: W
HStem: -7 21G<100 179.568 312 391.568> 215 73<103 181 284 393 496 568> 448 74<187 268 371 480 583 652> 695 20G<360.539 442 578 645.67>
Fore
652 448 m 1,0,-1
 555 448 l 1,1,-1
 496 288 l 1,2,-1
 598 288 l 1,3,-1
 568 215 l 1,4,-1
 468 215 l 1,5,-1
 384 -7 l 1,6,-1
 312 -6 l 1,7,-1
 393 215 l 1,8,-1
 256 215 l 1,9,-1
 172 -7 l 1,10,-1
 100 -6 l 1,11,-1
 181 215 l 1,12,-1
 76 215 l 1,13,-1
 103 288 l 1,14,-1
 209 288 l 1,15,-1
 268 448 l 1,16,-1
 160 448 l 1,17,-1
 187 522 l 1,18,-1
 296 522 l 1,19,-1
 368 715 l 1,20,-1
 442 713 l 1,21,-1
 371 522 l 1,22,-1
 508 522 l 1,23,-1
 578 712 l 1,24,-1
 653 713 l 1,25,-1
 583 522 l 1,26,-1
 682 522 l 1,27,-1
 652 448 l 1,0,-1
342 448 m 1,28,-1
 284 288 l 1,29,-1
 422 288 l 1,30,-1
 480 448 l 1,31,-1
 342 448 l 1,28,-1
EndSplineSet
EndChar
StartChar: dollar
Encoding: 36 36 5
Width: 578
VWidth: 1494
Flags: W
HStem: -31 103<202.354 265.864> 534 21G<556.5 583.264> 584 20G<370.5 385.829>
Fore
581 176 m 0,0,1
 571 130 571 130 546.5 93.5 c 128,-1,2
 522 57 522 57 486.5 30 c 128,-1,3
 451 3 451 3 409.5 -12.5 c 128,-1,4
 368 -28 368 -28 324 -31 c 1,5,-1
 309 -102 l 1,6,-1
 241 -102 l 1,7,-1
 256 -31 l 1,8,9
 193 -25 193 -25 139 6 c 128,-1,10
 85 37 85 37 51 97 c 1,11,-1
 152 173 l 1,12,13
 166 141 166 141 194.5 110 c 128,-1,14
 223 79 223 79 278 72 c 1,15,-1
 326 297 l 1,16,17
 288 314 288 314 265 325 c 128,-1,18
 242 336 242 336 236 339 c 0,19,20
 212 353 212 353 193.5 378.5 c 128,-1,21
 175 404 175 404 166.5 437.5 c 128,-1,22
 158 471 158 471 165.5 510.5 c 128,-1,23
 173 550 173 550 202 590 c 0,24,25
 238 641 238 641 291.5 670.5 c 128,-1,26
 345 700 345 700 413 706 c 1,27,-1
 425 765 l 1,28,-1
 493 765 l 1,29,-1
 481 704 l 1,30,31
 525 698 525 698 565 679.5 c 128,-1,32
 605 661 605 661 641 625 c 1,33,-1
 567 534 l 1,34,35
 546 562 546 562 518 577 c 128,-1,36
 490 592 490 592 459 599 c 1,37,-1
 414 390 l 1,38,39
 447 372 447 372 481.5 356.5 c 128,-1,40
 516 341 516 341 542 318.5 c 128,-1,41
 568 296 568 296 580 263 c 128,-1,42
 592 230 592 230 581 176 c 0,0,1
390 604 m 1,43,44
 351 599 351 599 316 572.5 c 128,-1,45
 281 546 281 546 271 513 c 0,46,47
 265 489 265 489 270 474 c 128,-1,48
 275 459 275 459 287 449 c 128,-1,49
 299 439 299 439 316 432.5 c 128,-1,50
 333 426 333 426 351 417 c 1,51,-1
 390 604 l 1,43,44
475 170 m 0,52,53
 478 187 478 187 471.5 202 c 128,-1,54
 465 217 465 217 452 229 c 128,-1,55
 439 241 439 241 423 251.5 c 128,-1,56
 407 262 407 262 389 269 c 1,57,-1
 347 75 l 1,58,59
 386 82 386 82 425.5 104.5 c 128,-1,60
 465 127 465 127 475 170 c 0,52,53
EndSplineSet
EndChar
StartChar: percent
Encoding: 37 37 6
Width: 847
VWidth: 1494
Flags: W
HStem: -1 80<621.522 692.032> 303 81<659.5 741.01> 326 81<254.458 324.556> 631 81<292.002 373.238>
VStem: 160.5 78<450.135 509.176> 389.5 77.5<527.508 553.5 553.5 587.865> 528.5 77<121.047 122.5 122.5 181.428> 757 78<199.734 225.5 225.5 261.953>
Fore
462 519 m 0,0,1
 454 483 454 483 438 448.5 c 128,-1,2
 422 414 422 414 397 386.5 c 128,-1,3
 372 359 372 359 340.5 342.5 c 128,-1,4
 309 326 309 326 274 326 c 0,5,6
 236 326 236 326 212 343 c 128,-1,7
 188 360 188 360 175.5 388 c 128,-1,8
 163 416 163 416 160.5 450 c 128,-1,9
 158 484 158 484 166 519 c 0,10,11
 172 550 172 550 188.5 584.5 c 128,-1,12
 205 619 205 619 229.5 647.5 c 128,-1,13
 254 676 254 676 285.5 694 c 128,-1,14
 317 712 317 712 356 712 c 0,15,16
 393 712 393 712 417 694.5 c 128,-1,17
 441 677 441 677 453 649.5 c 128,-1,18
 465 622 465 622 467 587.5 c 128,-1,19
 469 553 469 553 462 519 c 0,0,1
386 519 m 0,20,21
 389 534 389 534 389.5 553.5 c 128,-1,22
 390 573 390 573 385.5 590 c 128,-1,23
 381 607 381 607 370 619 c 128,-1,24
 359 631 359 631 338 631 c 0,25,26
 312 631 312 631 295 616 c 128,-1,27
 278 601 278 601 267 582.5 c 128,-1,28
 256 564 256 564 250 545 c 128,-1,29
 244 526 244 526 242 519 c 0,30,31
 239 504 239 504 238.5 484.5 c 128,-1,32
 238 465 238 465 242.5 448 c 128,-1,33
 247 431 247 431 258 419 c 128,-1,34
 269 407 269 407 290 407 c 0,35,36
 309 407 309 407 325.5 418 c 128,-1,37
 342 429 342 429 354 445.5 c 128,-1,38
 366 462 366 462 374.5 482 c 128,-1,39
 383 502 383 502 386 519 c 0,20,21
179 -33 m 1,40,-1
 734 756 l 1,41,-1
 824 756 l 1,42,-1
 269 -33 l 1,43,-1
 179 -33 l 1,40,-1
830 191 m 0,44,45
 822 155 822 155 805 121 c 128,-1,46
 788 87 788 87 763 59 c 128,-1,47
 738 31 738 31 707 15 c 128,-1,48
 676 -1 676 -1 640 -1 c 0,49,50
 602 -1 602 -1 578.5 16 c 128,-1,51
 555 33 555 33 543 60.5 c 128,-1,52
 531 88 531 88 528.5 122.5 c 128,-1,53
 526 157 526 157 534 191 c 0,54,55
 540 223 540 223 556.5 257 c 128,-1,56
 573 291 573 291 596.5 319.5 c 128,-1,57
 620 348 620 348 651.5 366 c 128,-1,58
 683 384 683 384 722 384 c 0,59,60
 759 384 759 384 783 367 c 128,-1,61
 807 350 807 350 820 322 c 128,-1,62
 833 294 833 294 835 260 c 128,-1,63
 837 226 837 226 830 191 c 0,44,45
753 191 m 0,64,65
 756 206 756 206 757 225.5 c 128,-1,66
 758 245 758 245 753.5 262.5 c 128,-1,67
 749 280 749 280 737.5 291.5 c 128,-1,68
 726 303 726 303 706 303 c 0,69,70
 680 303 680 303 663 288.5 c 128,-1,71
 646 274 646 274 634.5 255 c 128,-1,72
 623 236 623 236 617 217.5 c 128,-1,73
 611 199 611 199 610 191 c 0,74,75
 607 176 607 176 605.5 157 c 128,-1,76
 604 138 604 138 608.5 120.5 c 128,-1,77
 613 103 613 103 625 91 c 128,-1,78
 637 79 637 79 658 79 c 0,79,80
 677 79 677 79 693.5 90.5 c 128,-1,81
 710 102 710 102 722 118.5 c 128,-1,82
 734 135 734 135 741.5 155 c 128,-1,83
 749 175 749 175 753 191 c 0,64,65
EndSplineSet
EndChar
StartChar: ampersand
Encoding: 38 38 7
Width: 701
VWidth: 1494
Flags: W
HStem: -13 106<240.285 383.085> 637 88<384.263 453.862>
VStem: 583 97<324.984 386>
Fore
535 1 m 1,0,-1
 492 73 l 1,1,2
 396 -13 396 -13 293 -13 c 0,3,4
 244 -13 244 -13 202.5 2.5 c 128,-1,5
 161 18 161 18 133.5 47 c 128,-1,6
 106 76 106 76 95.5 116.5 c 128,-1,7
 85 157 85 157 96 208 c 0,8,9
 105 247 105 247 123.5 278 c 128,-1,10
 142 309 142 309 167.5 334.5 c 128,-1,11
 193 360 193 360 222 381 c 128,-1,12
 251 402 251 402 280 420 c 1,13,14
 262 453 262 453 248.5 492.5 c 128,-1,15
 235 532 235 532 245 580 c 0,16,17
 260 647 260 647 313 686 c 128,-1,18
 366 725 366 725 432 725 c 0,19,20
 499 725 499 725 536 687.5 c 128,-1,21
 573 650 573 650 558 583 c 0,22,23
 552 553 552 553 537.5 527 c 128,-1,24
 523 501 523 501 504.5 479 c 128,-1,25
 486 457 486 457 465 439.5 c 128,-1,26
 444 422 444 422 423 407 c 1,27,-1
 526 247 l 1,28,29
 543 269 543 269 558 304 c 128,-1,30
 573 339 573 339 583 386 c 1,31,-1
 680 386 l 1,32,33
 664 317 664 317 638.5 268.5 c 128,-1,34
 613 220 613 220 575 166 c 1,35,-1
 677 1 l 1,36,-1
 535 1 l 1,0,-1
459 589 m 0,37,38
 463 610 463 610 452 623.5 c 128,-1,39
 441 637 441 637 420 637 c 0,40,41
 402 637 402 637 382.5 626.5 c 128,-1,42
 363 616 363 616 357 589 c 0,43,44
 353 568 353 568 359 544 c 128,-1,45
 365 520 365 520 380 492 c 1,46,47
 408 514 408 514 430.5 536.5 c 128,-1,48
 453 559 453 559 459 589 c 0,37,38
327 341 m 1,49,50
 290 315 290 315 267.5 295 c 128,-1,51
 245 275 245 275 231.5 260 c 128,-1,52
 218 245 218 245 213.5 235.5 c 128,-1,53
 209 226 209 226 208 221 c 0,54,55
 196 164 196 164 226 128.5 c 128,-1,56
 256 93 256 93 311 93 c 0,57,58
 345 93 345 93 376 107 c 128,-1,59
 407 121 407 121 444 154 c 1,60,-1
 327 341 l 1,49,50
EndSplineSet
EndChar
StartChar: quotesingle
Encoding: 39 39 8
Width: 273
VWidth: 1494
Flags: W
HStem: 459 242<239 269 203 333 239 239>
Fore
269 459 m 1,0,-1
 203 459 l 1,1,-1
 215 587 l 1,2,-1
 239 701 l 1,3,-1
 333 701 l 1,4,-1
 309 587 l 1,5,-1
 269 459 l 1,0,-1
EndSplineSet
EndChar
StartChar: parenleft
Encoding: 40 40 9
Width: 364
VWidth: 1494
Flags: W
HStem: 698 20G<320 444>
VStem: 129.5 314.5<95 718 95 95>
Fore
196 -111 m 1,0,1
 144 -7 144 -7 129.5 95 c 128,-1,2
 115 197 115 197 136 300 c 0,3,4
 158 402 158 402 213 500 c 128,-1,5
 268 598 268 598 372 718 c 1,6,-1
 444 718 l 1,7,8
 268 508 268 508 223 297 c 0,9,10
 200 190 200 190 211.5 89 c 128,-1,11
 223 -12 223 -12 271 -111 c 1,12,-1
 196 -111 l 1,0,1
EndSplineSet
EndChar
StartChar: parenright
Encoding: 41 41 10
Width: 366
VWidth: 1494
Flags: W
HStem: 698 20G<233 331>
VStem: 54 316.5<-111 500 -111 -111>
Fore
362 300 m 0,0,1
 318 96 318 96 129 -111 c 1,2,-1
 54 -111 l 1,3,4
 230 84 230 84 275 297 c 0,5,6
 320 508 320 508 233 718 c 1,7,-1
 305 718 l 1,8,9
 357 598 357 598 370.5 500 c 128,-1,10
 384 402 384 402 362 300 c 0,0,1
EndSplineSet
EndChar
StartChar: asterisk
Encoding: 42 42 11
Width: 548
VWidth: 1494
Flags: W
HStem: 338.5 362.5<278.5 330 330 330>
VStem: 176 404<510.625 527.955>
Fore
580 532 m 1,0,1
 581 520 581 520 575.5 508 c 128,-1,2
 570 496 570 496 560 486.5 c 128,-1,3
 550 477 550 477 538 471.5 c 128,-1,4
 526 466 526 466 513 468 c 1,5,-1
 432 490 l 1,6,-1
 475 422 l 2,7,8
 483 410 483 410 481.5 398 c 128,-1,9
 480 386 480 386 471.5 374.5 c 128,-1,10
 463 363 463 363 452 354 c 128,-1,11
 441 345 441 345 428 341 c 0,12,13
 410 335 410 335 391 343 c 128,-1,14
 372 351 372 351 371 371 c 2,15,-1
 371 457 l 1,16,17
 353 431 353 431 336.5 400 c 128,-1,18
 320 369 320 369 314 362 c 0,19,20
 300 342 300 342 278.5 338.5 c 128,-1,21
 257 335 257 335 241 345 c 0,22,23
 224 354 224 354 223.5 376 c 128,-1,24
 223 398 223 398 235 414 c 0,25,26
 238 417 238 417 247 425 c 128,-1,27
 256 433 256 433 268.5 443.5 c 128,-1,28
 281 454 281 454 294.5 465.5 c 128,-1,29
 308 477 308 477 318 489 c 1,30,-1
 229 468 l 2,31,32
 208 460 208 460 193 473 c 128,-1,33
 178 486 178 486 176 505 c 0,34,35
 175 519 175 519 181 531.5 c 128,-1,36
 187 544 187 544 196.5 554 c 128,-1,37
 206 564 206 564 219 569 c 128,-1,38
 232 574 232 574 245 573 c 0,39,40
 257 570 257 570 272 567 c 128,-1,41
 287 564 287 564 299 561 c 0,42,43
 329 552 l 1,44,-1
 283 620 l 2,45,46
 275 631 275 631 277.5 643.5 c 128,-1,47
 280 656 280 656 287 667.5 c 128,-1,48
 294 679 294 679 305.5 688.5 c 128,-1,49
 317 698 317 698 330 701 c 0,50,51
 351 707 351 707 367.5 697.5 c 128,-1,52
 384 688 384 688 387 671 c 2,53,-1
 393 578 l 1,54,55
 402 592 402 592 409.5 607.5 c 128,-1,56
 417 623 417 623 424 638 c 128,-1,57
 431 653 431 653 436 664.5 c 128,-1,58
 441 676 441 676 444 679 c 0,59,60
 456 694 456 694 478.5 700.5 c 128,-1,61
 501 707 501 707 517 695 c 0,62,63
 534 686 534 686 535.5 665 c 128,-1,64
 537 644 537 644 525 626 c 0,65,66
 522 623 522 623 513 615 c 128,-1,67
 504 607 504 607 492.5 596.5 c 128,-1,68
 481 586 481 586 468.5 574 c 128,-1,69
 456 562 456 562 445 552 c 1,70,-1
 529 574 l 2,71,72
 550 580 550 580 566.5 566.5 c 128,-1,73
 583 553 583 553 580 532 c 1,0,1
EndSplineSet
EndChar
StartChar: plus
Encoding: 43 43 12
Width: 597
VWidth: 1494
Flags: W
HStem: 209 102<135 291 416 573 112 595 135 135>
Fore
291 209 m 1,0,-1
 112 209 l 1,1,-1
 135 311 l 1,2,-1
 314 311 l 1,3,-1
 351 490 l 1,4,-1
 453 490 l 1,5,-1
 416 311 l 1,6,-1
 595 311 l 1,7,-1
 573 209 l 1,8,-1
 393 209 l 1,9,-1
 356 30 l 1,10,-1
 254 30 l 1,11,-1
 291 209 l 1,0,-1
EndSplineSet
EndChar
StartChar: comma
Encoding: 44 44 13
Width: 364
VWidth: 1494
Flags: W
HStem: -158 307<99 206 206 206>
VStem: 49 222<-121 63 -121 -121>
Fore
271 63 m 0,0,1
 257 -4 257 -4 211.5 -57.5 c 128,-1,2
 166 -111 166 -111 99 -158 c 1,3,-1
 49 -121 l 1,4,5
 61 -115 61 -115 79 -101 c 128,-1,6
 97 -87 97 -87 115 -70.5 c 128,-1,7
 133 -54 133 -54 148.5 -36.5 c 128,-1,8
 164 -19 164 -19 170 -7 c 1,9,10
 138 -7 138 -7 120.5 16 c 128,-1,11
 103 39 103 39 109 70 c 0,12,13
 117 102 117 102 145 125.5 c 128,-1,14
 173 149 173 149 206 149 c 0,15,16
 241 149 241 149 260.5 125.5 c 128,-1,17
 280 102 280 102 271 63 c 0,0,1
EndSplineSet
EndChar
StartChar: hyphen
Encoding: 45 45 14
Width: 597
VWidth: 1494
Flags: W
HStem: 209 102<135 573 112 595 135 135>
Fore
112 209 m 1,0,-1
 135 311 l 1,1,-1
 595 311 l 1,2,-1
 573 209 l 1,3,-1
 112 209 l 1,0,-1
EndSplineSet
EndChar
StartChar: period
Encoding: 46 46 15
Width: 307
VWidth: 1494
Flags: W
HStem: 0 146<128.267 209.217>
VStem: 96 146<29.3242 114.639>
Fore
242 72 m 256,0,1
 235 40 235 40 210 20 c 128,-1,2
 185 0 185 0 154 0 c 256,3,4
 123 0 123 0 105.5 20 c 128,-1,5
 88 40 88 40 96 72 c 256,6,7
 103 103 103 103 127.5 124.5 c 128,-1,8
 152 146 152 146 184 146 c 256,9,10
 215 146 215 146 232.5 124.5 c 128,-1,11
 250 103 250 103 242 72 c 256,0,1
EndSplineSet
EndChar
StartChar: slash
Encoding: 47 47 16
Width: 291
VWidth: 1494
Flags: W
Fore
-39 -94 m 1,0,-1
 386 768 l 1,1,-1
 475 768 l 1,2,-1
 49 -94 l 1,3,-1
 -39 -94 l 1,0,-1
EndSplineSet
EndChar
StartChar: zero
Encoding: 48 48 17
Width: 597
VWidth: 1494
Flags: W
HStem: -10 92<237.363 400.039> 637 91<382.216 508.839>
VStem: 99.5 90.5<183.472 356.72> 557 88<361.28 464 464 538.583>
Fore
629 359 m 0,0,1
 613 286 613 286 586 218.5 c 128,-1,2
 559 151 559 151 518 100 c 128,-1,3
 477 49 477 49 421.5 19.5 c 128,-1,4
 366 -10 366 -10 294 -10 c 256,5,6
 223 -10 223 -10 180.5 19.5 c 128,-1,7
 138 49 138 49 118.5 100 c 128,-1,8
 99 151 99 151 99.5 218.5 c 128,-1,9
 100 286 100 286 117 359 c 0,10,11
 142 481 142 481 187 553.5 c 128,-1,12
 232 626 232 626 281 665 c 128,-1,13
 330 704 330 704 376 716 c 128,-1,14
 422 728 422 728 451 728 c 0,15,16
 523 728 523 728 565.5 698 c 128,-1,17
 608 668 608 668 627 617.5 c 128,-1,18
 646 567 646 567 645 499.5 c 128,-1,19
 644 432 644 432 629 359 c 0,0,1
543 359 m 0,20,21
 553 414 553 414 557 464 c 128,-1,22
 561 514 561 514 550.5 552 c 128,-1,23
 540 590 540 590 512 613.5 c 128,-1,24
 484 637 484 637 433 637 c 256,25,26
 383 637 383 637 345.5 613.5 c 128,-1,27
 308 590 308 590 280.5 552 c 128,-1,28
 253 514 253 514 234 463.5 c 128,-1,29
 215 413 215 413 205 359 c 0,30,31
 193 303 193 303 190 253 c 128,-1,32
 187 203 187 203 197.5 165 c 128,-1,33
 208 127 208 127 236.5 104.5 c 128,-1,34
 265 82 265 82 315 82 c 0,35,36
 368 82 368 82 406 107.5 c 128,-1,37
 444 133 444 133 471 173.5 c 128,-1,38
 498 214 498 214 515 262.5 c 128,-1,39
 532 311 532 311 543 359 c 0,20,21
EndSplineSet
EndChar
StartChar: one
Encoding: 49 49 18
Width: 440
VWidth: 1494
Flags: W
HStem: 0 21G<226 334>
VStem: 176 310<541 670 339.873 695.038>
Fore
486 670 m 1,0,1
 484 658 484 658 472 646.5 c 128,-1,2
 460 635 460 635 448 631 c 1,3,4
 448 628 448 628 442 599.5 c 128,-1,5
 436 571 436 571 426.5 526 c 128,-1,6
 417 481 417 481 405 424.5 c 128,-1,7
 393 368 393 368 381 309 c 0,8,9
 353 172 353 172 315 0 c 1,10,-1
 226 0 l 1,11,12
 254 144 254 144 280 260 c 0,13,14
 295.5 334 l 0,15,16
 311 408 311 408 320 449 c 128,-1,17
 329 490 329 490 335 520 c 128,-1,18
 341 550 341 550 344 561 c 1,19,20
 330 552 330 552 310.5 537.5 c 128,-1,21
 291 523 291 523 274 511 c 0,22,23
 253 496 253 496 230 481 c 1,24,-1
 176 541 l 1,25,-1
 411 709 l 1,26,-1
 411 710 l 1,27,28
 438 725 438 725 458 718.5 c 128,-1,29
 478 712 478 712 486 673 c 1,30,-1
 486 670 l 1,0,1
EndSplineSet
EndChar
StartChar: two
Encoding: 50 50 19
Width: 581
VWidth: 1494
Flags: W
HStem: 0 91<73.5524 93 206 450>
VStem: 173 89<469 519.945>
Fore
487 0 m 1,0,-1
 87 0 l 2,1,2
 57 -3 57 -3 49.5 10.5 c 128,-1,3
 42 24 42 24 52 49 c 0,4,5
 60 70 60 70 67.5 81.5 c 128,-1,6
 75 93 75 93 93 91 c 1,7,8
 109 111 109 111 133 131.5 c 128,-1,9
 157 152 157 152 181 171.5 c 128,-1,10
 205 191 205 191 227.5 207.5 c 128,-1,11
 250 224 250 224 263 235 c 0,12,13
 308 266 308 266 350 299.5 c 128,-1,14
 392 333 392 333 426 368.5 c 128,-1,15
 460 404 460 404 482.5 439 c 128,-1,16
 505 474 505 474 513 507 c 0,17,18
 522 558 522 558 505.5 587 c 128,-1,19
 489 616 489 616 458.5 627 c 128,-1,20
 428 638 428 638 390.5 631.5 c 128,-1,21
 353 625 353 625 322 604 c 128,-1,22
 291 583 291 583 272.5 548.5 c 128,-1,23
 254 514 254 514 262 469 c 1,24,-1
 173 448 l 1,25,26
 175 511 175 511 191.5 559.5 c 128,-1,27
 208 608 208 608 247 646 c 0,28,29
 302 697 302 697 370.5 713 c 128,-1,30
 439 729 439 729 497 711.5 c 128,-1,31
 555 694 555 694 587 642 c 128,-1,32
 619 590 619 590 601 505 c 0,33,34
 590 456 590 456 560.5 409.5 c 128,-1,35
 531 363 531 363 489.5 320.5 c 128,-1,36
 448 278 448 278 401 240.5 c 128,-1,37
 354 203 354 203 311 172 c 0,38,39
 281 151 281 151 253.5 129.5 c 128,-1,40
 226 108 226 108 206 91 c 1,41,-1
 450 91 l 1,42,43
 457 100 457 100 473 119.5 c 128,-1,44
 489 139 489 139 493 146 c 1,45,46
 494.5 145.5 l 2,47,48
 496 145 496 145 503 141.5 c 128,-1,49
 510 138 510 138 523.5 129.5 c 128,-1,50
 537 121 537 121 561 108 c 1,51,-1
 487 0 l 1,0,-1
EndSplineSet
EndChar
StartChar: three
Encoding: 51 51 20
Width: 594
VWidth: 1494
Flags: W
HStem: -13 21G<288.5 346> 534 21G<224.5 249> 625 90<297 486 598.695 623.749>
VStem: 76 90<136.602 209>
Fore
601 247 m 0,0,1
 590 199 590 199 565.5 152.5 c 128,-1,2
 541 106 541 106 504.5 69.5 c 128,-1,3
 468 33 468 33 421 10 c 128,-1,4
 374 -13 374 -13 318 -13 c 0,5,6
 259 -13 259 -13 217 -1.5 c 128,-1,7
 175 10 175 10 146 37 c 128,-1,8
 117 64 117 64 100.5 106.5 c 128,-1,9
 84 149 84 149 76 209 c 1,10,-1
 166 235 l 1,11,12
 170 149 170 149 208.5 105 c 128,-1,13
 247 61 247 61 329 66 c 0,14,15
 381 69 381 69 420 99.5 c 128,-1,16
 459 130 459 130 481.5 172 c 128,-1,17
 504 214 504 214 508.5 259.5 c 128,-1,18
 513 305 513 305 498 339.5 c 128,-1,19
 483 374 483 374 447 388 c 128,-1,20
 411 402 411 402 351 383 c 1,21,22
 339 374 339 374 318 353 c 0,23,24
 302 339 302 339 287 342 c 128,-1,25
 272 345 272 345 263 356.5 c 128,-1,26
 254 368 254 368 253.5 383.5 c 128,-1,27
 253 399 253 399 265 413 c 0,28,29
 314 462 314 462 359 504 c 0,30,31
 396 540 396 540 432.5 575 c 128,-1,32
 469 610 469 610 486 625 c 1,33,-1
 297 625 l 1,34,35
 294 619 294 619 287.5 606 c 128,-1,36
 281 593 281 593 273 579 c 128,-1,37
 265 565 265 565 258 552.5 c 128,-1,38
 251 540 251 540 247 534 c 1,39,40
 202 559 202 559 190.5 565 c 128,-1,41
 179 571 179 571 179 573 c 1,42,-1
 251 715 l 1,43,-1
 626 715 l 1,44,45
 647 718 647 718 653 703 c 128,-1,46
 659 688 659 688 647 667 c 1,47,48
 638 641 638 641 630.5 633 c 128,-1,49
 623 625 623 625 602 625 c 1,50,51
 599 622 599 622 578.5 602.5 c 128,-1,52
 558 583 558 583 532.5 557.5 c 128,-1,53
 507 532 507 532 480.5 507.5 c 128,-1,54
 454 483 454 483 441 471 c 1,55,56
 483 472 483 472 517.5 458 c 128,-1,57
 552 444 552 444 574 415 c 128,-1,58
 596 386 596 386 603.5 344 c 128,-1,59
 611 302 611 302 601 247 c 0,0,1
EndSplineSet
EndChar
StartChar: four
Encoding: 52 52 21
Width: 560
VWidth: 1494
Flags: W
HStem: 0 21G<350 442> 141 91<197 378 487 559>
Fore
468 141 m 1,0,1
 465 132 465 132 460.5 108.5 c 128,-1,2
 456 85 456 85 451 61 c 0,3,4
 445 33 445 33 439 0 c 1,5,-1
 350 0 l 1,6,7
 356 33 356 33 362 61 c 0,8,9
 366 85 366 85 370.5 108.5 c 128,-1,10
 375 132 375 132 378 141 c 1,11,-1
 87 141 l 2,12,13
 66 142 66 142 58.5 166 c 128,-1,14
 51 190 51 190 67 211 c 2,15,-1
 529 707 l 2,16,17
 543 722 543 722 558 720 c 256,18,19
 573 719 573 719 580 705.5 c 128,-1,20
 587 692 587 692 589 680 c 0,21,22
 589 668 589 668 586.5 661.5 c 128,-1,23
 584 655 584 655 575 643 c 1,24,25
 575 641 575 641 568.5 612 c 128,-1,26
 562 583 562 583 553 539.5 c 128,-1,27
 544 496 544 496 533 445.5 c 128,-1,28
 522 395 522 395 512 349 c 128,-1,29
 502 303 502 303 495.5 270.5 c 128,-1,30
 489 238 489 238 487 232 c 1,31,-1
 578 232 l 1,32,-1
 559 141 l 1,33,-1
 468 141 l 1,0,1
398 232 m 1,34,35
 399 241 399 241 407.5 278 c 128,-1,36
 416 315 416 315 426 361 c 128,-1,37
 436 407 436 407 445 451.5 c 128,-1,38
 454 496 454 496 459 520 c 1,39,40
 441 501 441 501 403 458.5 c 128,-1,41
 365 416 365 416 324 370 c 128,-1,42
 283 324 283 324 247 284.5 c 128,-1,43
 211 245 211 245 197 232 c 1,44,-1
 398 232 l 1,34,35
EndSplineSet
EndChar
StartChar: five
Encoding: 53 53 22
Width: 594
VWidth: 1494
Flags: W
HStem: -13.5 86<277.993 338.81> 625 90<330 656>
Fore
581 181 m 0,0,1
 553 114 553 114 492 62 c 128,-1,2
 431 10 431 10 362 -6 c 0,3,4
 333 -12 333 -12 300.5 -13.5 c 128,-1,5
 268 -15 268 -15 232.5 -5.5 c 128,-1,6
 197 4 197 4 160.5 27.5 c 128,-1,7
 124 51 124 51 90 94 c 1,8,-1
 163 160 l 1,9,10
 190 130 190 130 212.5 111.5 c 128,-1,11
 235 93 235 93 257.5 83 c 128,-1,12
 280 73 280 73 303 72.5 c 128,-1,13
 326 72 326 72 354 79 c 0,14,15
 413 93 413 93 457 140.5 c 128,-1,16
 501 188 501 188 519 242.5 c 128,-1,17
 537 297 537 297 521 346.5 c 128,-1,18
 505 396 505 396 442 414 c 0,19,20
 380 433 380 433 313.5 404 c 128,-1,21
 247 375 247 375 205 294 c 1,22,23
 172 308 172 308 157 314.5 c 128,-1,24
 142 321 142 321 133 326 c 1,25,-1
 141 338 l 2,26,27
 146 351 146 351 159.5 389.5 c 128,-1,28
 173 428 173 428 189 473.5 c 128,-1,29
 205 519 205 519 220.5 565 c 128,-1,30
 236 611 236 611 247 641 c 1,31,32
 242 649 242 649 243 661 c 128,-1,33
 244 673 244 673 250 683 c 0,34,35
 260 704 260 704 270.5 709.5 c 128,-1,36
 281 715 281 715 297 715 c 2,37,-1
 676 715 l 1,38,-1
 656 625 l 1,39,-1
 330 625 l 1,40,41
 321 598 321 598 307 554 c 128,-1,42
 293 510 293 510 278 469 c 1,43,44
 387 528 387 528 489 501 c 0,45,46
 543 486 543 486 572 452.5 c 128,-1,47
 601 419 601 419 610 374 c 128,-1,48
 619 329 619 329 610.5 279 c 128,-1,49
 602 229 602 229 581 181 c 0,0,1
EndSplineSet
EndChar
StartChar: six
Encoding: 54 54 23
Width: 587
VWidth: 1494
Flags: W
VStem: 518 89<248.056 270 270 316.043> 575 81<544 600.752>
Fore
575 522 m 1,0,1
 577 578 577 578 548 608 c 128,-1,2
 519 638 519 638 478 643 c 0,3,4
 420 650 420 650 376 627.5 c 128,-1,5
 332 605 332 605 300 567 c 128,-1,6
 268 529 268 529 245.5 481 c 128,-1,7
 223 433 223 433 209 390 c 1,8,9
 257 444 257 444 321.5 470 c 128,-1,10
 386 496 386 496 448 489 c 0,11,12
 522 480 522 480 561.5 432 c 128,-1,13
 601 384 601 384 607 320 c 128,-1,14
 613 256 613 256 586 185.5 c 128,-1,15
 559 115 559 115 501 63 c 256,16,17
 442 10 442 10 378 -6 c 128,-1,18
 314 -22 314 -22 256.5 -8 c 128,-1,19
 199 6 199 6 157 47 c 128,-1,20
 115 88 115 88 102 152 c 0,21,22
 93 203 93 203 100.5 270.5 c 128,-1,23
 108 338 108 338 130 406 c 128,-1,24
 152 474 152 474 187.5 536 c 128,-1,25
 223 598 223 598 269 640 c 0,26,27
 326 692 326 692 394 713.5 c 128,-1,28
 462 735 462 735 534 719 c 0,29,30
 590 707 590 707 624.5 660.5 c 128,-1,31
 659 614 659 614 656 544 c 1,32,-1
 575 522 l 1,0,1
453 123 m 0,33,34
 481 148 481 148 498.5 188.5 c 128,-1,35
 516 229 516 229 518 270 c 128,-1,36
 520 311 520 311 506 344.5 c 128,-1,37
 492 378 492 378 456 392 c 0,38,39
 413 407 413 407 365.5 397 c 128,-1,40
 318 387 318 387 279.5 357 c 128,-1,41
 241 327 241 327 216 281 c 128,-1,42
 191 235 191 235 196 178 c 0,43,44
 197 136 197 136 223.5 109 c 128,-1,45
 250 82 250 82 288 73 c 128,-1,46
 326 64 326 64 370 76 c 128,-1,47
 414 88 414 88 453 123 c 0,33,34
EndSplineSet
EndChar
StartChar: seven
Encoding: 55 55 24
Width: 581
VWidth: 1494
Flags: W
HStem: 0 21G<196 305> 532 21G<181 243.759> 625 90<275 567>
VStem: 181 91<561 573.515 573.515 577 577 596.242 596.242 615.788 615.788 617.89> 196 88<25.1219 170.171>
Fore
692 682 m 0,0,1
 691 671 691 671 680.5 649.5 c 128,-1,2
 670 628 670 628 653 623 c 1,3,4
 649 608 649 608 646 597.5 c 128,-1,5
 643 587 643 587 637.5 577 c 128,-1,6
 632 567 632 567 621.5 554 c 128,-1,7
 611 541 611 541 593 522 c 0,8,9
 486 411 486 411 406 276 c 128,-1,10
 326 141 326 141 284 0 c 1,11,-1
 196 0 l 1,12,13
 223 81 223 81 259.5 161.5 c 128,-1,14
 296 242 296 242 339.5 317 c 128,-1,15
 383 392 383 392 432 457.5 c 128,-1,16
 481 523 481 523 532 575 c 0,17,18
 543 586 543 586 548 592 c 128,-1,19
 553 598 553 598 557 602.5 c 128,-1,20
 561 607 561 607 562.5 612 c 128,-1,21
 564 617 564 617 567 625 c 1,22,-1
 275 625 l 1,23,24
 275 617 275 617 274.5 606.5 c 128,-1,25
 274 596 274 596 274 586 c 0,26,27
 272 574 272 574 272 561 c 1,28,-1
 181 532 l 1,29,30
 181 555 181 555 181.5 577 c 128,-1,31
 182 599 182 599 183.5 618.5 c 128,-1,32
 185 638 185 638 186 651.5 c 128,-1,33
 187 665 187 665 188 668 c 2,34,35
 191 689 191 689 207 702 c 128,-1,36
 223 715 223 715 242 715 c 2,37,-1
 668 715 l 1,38,39
 698 710 698 710 692 682 c 0,0,1
EndSplineSet
EndChar
StartChar: eight
Encoding: 56 56 25
Width: 591
VWidth: 1494
Flags: W
HStem: -19 82<238.722 393.077> 640 92<406.127 490.813>
Fore
593 223 m 0,0,1
 580 160 580 160 550 114.5 c 128,-1,2
 520 69 520 69 479.5 39 c 128,-1,3
 439 9 439 9 390 -5 c 128,-1,4
 341 -19 341 -19 290 -19 c 256,5,6
 239 -19 239 -19 195.5 -3.5 c 128,-1,7
 152 12 152 12 124 42.5 c 128,-1,8
 96 73 96 73 84.5 118.5 c 128,-1,9
 73 164 73 164 85 223 c 0,10,11
 99 286 99 286 143 339 c 128,-1,12
 187 392 187 392 250 423 c 1,13,14
 227 447 227 447 217.5 480.5 c 128,-1,15
 208 514 208 514 215 553 c 0,16,17
 224 592 224 592 246 625 c 128,-1,18
 268 658 268 658 299 682 c 128,-1,19
 330 706 330 706 369 719 c 128,-1,20
 408 732 408 732 450 732 c 0,21,22
 501 732 501 732 534 716 c 128,-1,23
 567 700 567 700 584.5 674.5 c 128,-1,24
 602 649 602 649 606.5 616.5 c 128,-1,25
 611 584 611 584 605 553 c 0,26,27
 598 514 598 514 574 481 c 128,-1,28
 550 448 550 448 519 425 c 1,29,30
 570 396 570 396 587.5 338.5 c 128,-1,31
 605 281 605 281 593 223 c 0,0,1
511 553 m 0,32,33
 520 593 520 593 493 616.5 c 128,-1,34
 466 640 466 640 429 640 c 0,35,36
 413 640 413 640 393.5 633 c 128,-1,37
 374 626 374 626 357.5 615 c 128,-1,38
 341 604 341 604 328 588.5 c 128,-1,39
 315 573 315 573 311 553 c 0,40,41
 306 532 306 532 311.5 515.5 c 128,-1,42
 317 499 317 499 329 488 c 128,-1,43
 341 477 341 477 357.5 470 c 128,-1,44
 374 463 374 463 392 463 c 0,45,46
 435 463 435 463 469.5 488.5 c 128,-1,47
 504 514 504 514 511 553 c 0,32,33
501 223 m 0,48,49
 507 254 507 254 500 281 c 128,-1,50
 493 308 493 308 475 328 c 128,-1,51
 457 348 457 348 431 360 c 128,-1,52
 405 372 405 372 372 372 c 0,53,54
 338 372 338 372 306.5 360 c 128,-1,55
 275 348 275 348 249 328 c 128,-1,56
 223 308 223 308 204 281 c 128,-1,57
 185 254 185 254 179 223 c 0,58,59
 172 188 172 188 178.5 159 c 128,-1,60
 185 130 185 130 202.5 109 c 128,-1,61
 220 88 220 88 246 75.5 c 128,-1,62
 272 63 272 63 306 63 c 0,63,64
 377 63 377 63 431.5 107 c 128,-1,65
 486 151 486 151 501 223 c 0,48,49
EndSplineSet
EndChar
StartChar: nine
Encoding: 57 57 26
Width: 550
VWidth: 1494
Flags: W
HStem: 641 88<378.832 445.936>
VStem: 522 93.5<472.961 561.33>
Fore
608 608 m 0,0,1
 623 559 623 559 615.5 486.5 c 128,-1,2
 608 414 608 414 587.5 340 c 128,-1,3
 567 266 567 266 537.5 201 c 128,-1,4
 508 136 508 136 480 100 c 0,5,6
 378 -24 378 -24 224 -9 c 0,7,8
 160 -1 160 -1 117.5 37.5 c 128,-1,9
 75 76 75 76 70 145 c 1,10,-1
 157 190 l 1,11,12
 158 142 158 142 184.5 110 c 128,-1,13
 211 78 211 78 253 73 c 0,14,15
 300 69 300 69 338.5 86 c 128,-1,16
 377 103 377 103 405 134.5 c 128,-1,17
 433 166 433 166 453.5 206.5 c 128,-1,18
 474 247 474 247 486 287 c 1,19,20
 414 230 414 230 345.5 222.5 c 128,-1,21
 277 215 277 215 225 244.5 c 128,-1,22
 173 274 173 274 148 335 c 128,-1,23
 123 396 123 396 141 480 c 0,24,25
 151 532 151 532 178.5 579 c 128,-1,26
 206 626 206 626 246 660.5 c 128,-1,27
 286 695 286 695 335 713.5 c 128,-1,28
 384 732 384 732 438 729 c 0,29,30
 573 725 573 725 608 608 c 0,0,1
522 544 m 0,31,32
 520 558 520 558 515 574 c 128,-1,33
 510 590 510 590 498 605 c 128,-1,34
 486 620 486 620 465.5 630.5 c 128,-1,35
 445 641 445 641 416 641 c 0,36,37
 350 643 350 643 303.5 604 c 128,-1,38
 257 565 257 565 237.5 512 c 128,-1,39
 218 459 218 459 228.5 405 c 128,-1,40
 239 351 239 351 286 326 c 0,41,42
 332 302 332 302 377.5 315.5 c 128,-1,43
 423 329 423 329 457.5 363.5 c 128,-1,44
 492 398 492 398 510.5 447 c 128,-1,45
 529 496 529 496 522 544 c 0,31,32
EndSplineSet
EndChar
StartChar: colon
Encoding: 58 58 27
Width: 328
VWidth: 1494
Flags: W
HStem: -3 147<138.298 218.217> 353 146<213.783 294.733>
VStem: 105 222<69 425 69 69>
Fore
251 69 m 256,0,1
 244 37 244 37 219 17 c 128,-1,2
 194 -3 194 -3 163 -3 c 256,3,4
 132 -3 132 -3 114.5 17 c 128,-1,5
 97 37 97 37 105 69 c 256,6,7
 112 100 112 100 137.5 122 c 128,-1,8
 163 144 163 144 194 144 c 256,9,10
 226 144 226 144 242.5 122 c 128,-1,11
 259 100 259 100 251 69 c 256,0,1
327 425 m 256,12,13
 320 393 320 393 295.5 373 c 128,-1,14
 271 353 271 353 239 353 c 256,15,16
 208 353 208 353 190.5 373 c 128,-1,17
 173 393 173 393 181 425 c 256,18,19
 188 456 188 456 213 477.5 c 128,-1,20
 238 499 238 499 269 499 c 256,21,22
 300 499 300 499 317.5 477.5 c 128,-1,23
 335 456 335 456 327 425 c 256,12,13
EndSplineSet
EndChar
StartChar: semicolon
Encoding: 59 59 28
Width: 348
VWidth: 1494
Flags: W
HStem: 353 146<213.783 294.733>
VStem: 46 281<-121 425 -121 -121>
Fore
268 63 m 0,0,1
 254 -4 254 -4 208.5 -57.5 c 128,-1,2
 163 -111 163 -111 96 -158 c 1,3,-1
 46 -121 l 1,4,5
 58 -115 58 -115 76 -101 c 128,-1,6
 94 -87 94 -87 112 -70.5 c 128,-1,7
 130 -54 130 -54 145.5 -36.5 c 128,-1,8
 161 -19 161 -19 167 -7 c 1,9,10
 135 -7 135 -7 117.5 16 c 128,-1,11
 100 39 100 39 106 70 c 0,12,13
 114 102 114 102 142 125.5 c 128,-1,14
 170 149 170 149 203 149 c 0,15,16
 238 149 238 149 257.5 125.5 c 128,-1,17
 277 102 277 102 268 63 c 0,0,1
327 425 m 256,18,19
 320 393 320 393 295.5 373 c 128,-1,20
 271 353 271 353 239 353 c 256,21,22
 208 353 208 353 190.5 373 c 128,-1,23
 173 393 173 393 181 425 c 256,24,25
 188 456 188 456 213 477.5 c 128,-1,26
 238 499 238 499 269 499 c 256,27,28
 300 499 300 499 317.5 477.5 c 128,-1,29
 335 456 335 456 327 425 c 256,18,19
EndSplineSet
EndChar
StartChar: less
Encoding: 60 60 29
Width: 582
VWidth: 1494
Flags: W
HStem: 21 478<535 637 637 637>
Fore
115 311 m 1,0,-1
 637 499 l 1,1,-1
 616 398 l 1,2,-1
 233 259 l 1,3,-1
 558 123 l 1,4,-1
 535 21 l 1,5,-1
 93 209 l 1,6,-1
 115 311 l 1,0,-1
EndSplineSet
EndChar
StartChar: equal
Encoding: 61 61 30
Width: 677
VWidth: 1494
Flags: W
HStem: 109 304<112 176 169.662 176> 109 102<133 596> 311 102<176 640>
Fore
155 311 m 1,0,-1
 176 413 l 1,1,-1
 661 413 l 1,2,-1
 640 311 l 1,3,-1
 155 311 l 1,0,-1
112 109 m 1,4,-1
 133 211 l 1,5,-1
 617 211 l 1,6,-1
 596 109 l 1,7,-1
 112 109 l 1,4,-1
EndSplineSet
EndChar
StartChar: greater
Encoding: 62 62 31
Width: 575
VWidth: 1494
Flags: W
HStem: 21 478<51 152 152 152>
Fore
574 209 m 1,0,-1
 51 21 l 1,1,-1
 73 123 l 1,2,-1
 454 259 l 1,3,-1
 132 398 l 1,4,-1
 152 499 l 1,5,-1
 596 311 l 1,6,-1
 574 209 l 1,0,-1
EndSplineSet
EndChar
StartChar: question
Encoding: 63 63 32
Width: 542
VWidth: 1494
Flags: W
HStem: -1 134<229.205 304.311>
Fore
571 655 m 0,0,1
 590 616 590 616 588 578.5 c 128,-1,2
 586 541 586 541 569.5 506.5 c 128,-1,3
 553 472 553 472 526 441 c 128,-1,4
 499 410 499 410 471 384 c 0,5,6
 431 345 431 345 397 308.5 c 128,-1,7
 363 272 363 272 353 224 c 2,8,-1
 339 161 l 1,9,-1
 235 161 l 1,10,-1
 248 224 l 2,11,12
 262 288 262 288 304.5 335.5 c 128,-1,13
 347 383 347 383 392 423 c 0,14,15
 447 474 447 474 471.5 512 c 128,-1,16
 496 550 496 550 481 593 c 0,17,18
 474 619 474 619 451 629.5 c 128,-1,19
 428 640 428 640 384 637 c 0,20,21
 368 635 368 635 349 627.5 c 128,-1,22
 330 620 330 620 312 608 c 128,-1,23
 294 596 294 596 278.5 581.5 c 128,-1,24
 263 567 263 567 254 549 c 1,25,-1
 194 593 l 1,26,27
 223 644 223 644 270 678 c 128,-1,28
 317 712 317 712 378 719 c 0,29,30
 438 728 438 728 492.5 713 c 128,-1,31
 547 698 547 698 571 655 c 0,0,1
335 64 m 0,32,33
 327 34 327 34 305 16.5 c 128,-1,34
 283 -1 283 -1 253 -1 c 256,35,36
 223 -1 223 -1 208 16.5 c 128,-1,37
 193 34 193 34 200 64 c 0,38,39
 206 94 206 94 228.5 113.5 c 128,-1,40
 251 133 251 133 281 133 c 256,41,42
 311 133 311 133 326 113.5 c 128,-1,43
 341 94 341 94 335 64 c 0,32,33
EndSplineSet
EndChar
StartChar: at
Encoding: 64 64 33
Width: 1031
VWidth: 1494
Flags: W
HStem: -10 61.5<676.285 682 682 737.275> 457 84<557.662 669.493>
VStem: 313 87<129.628 151 151 196.711>
Fore
1022 332 m 0,0,1
 1013 291 1013 291 994.5 248 c 128,-1,2
 976 205 976 205 949 164 c 128,-1,3
 922 123 922 123 888 87 c 128,-1,4
 854 51 854 51 815 25 c 0,5,6
 786 4 786 4 750.5 -4.5 c 128,-1,7
 715 -13 715 -13 682 -10 c 128,-1,8
 649 -7 649 -7 623.5 9 c 128,-1,9
 598 25 598 25 589 57 c 0,10,11
 589 58 589 58 588 59 c 128,-1,12
 587 60 587 60 587 61 c 1,13,-1
 586 58 l 1,14,15
 562 36 562 36 533.5 22.5 c 128,-1,16
 505 9 505 9 476.5 3 c 128,-1,17
 448 -3 448 -3 420.5 1.5 c 128,-1,18
 393 6 393 6 371 19 c 0,19,20
 338 43 338 43 325 77.5 c 128,-1,21
 312 112 312 112 313 151 c 128,-1,22
 314 190 314 190 326.5 232 c 128,-1,23
 339 274 339 274 357 314 c 0,24,25
 377 356 377 356 405 396 c 128,-1,26
 433 436 433 436 469 468.5 c 128,-1,27
 505 501 505 501 547.5 521 c 128,-1,28
 590 541 590 541 637 541 c 0,29,30
 667 541 667 541 694.5 528.5 c 128,-1,31
 722 516 722 516 735 492 c 1,32,-1
 755 535 l 1,33,-1
 845 535 l 1,34,35
 783 390 783 390 743 293.5 c 128,-1,36
 703 197 703 197 686 161 c 0,37,38
 673 133 673 133 670 107 c 128,-1,39
 667 81 667 81 676 66 c 128,-1,40
 685 51 685 51 708 51.5 c 128,-1,41
 731 52 731 52 771 78 c 0,42,43
 816 106 816 106 859.5 164.5 c 128,-1,44
 903 223 903 223 927.5 291.5 c 128,-1,45
 952 360 952 360 949 432 c 128,-1,46
 946 504 946 504 897 562 c 0,47,48
 857 610 857 610 800.5 629.5 c 128,-1,49
 744 649 744 649 688 650.5 c 128,-1,50
 632 652 632 652 583 641.5 c 128,-1,51
 534 631 534 631 507 617 c 0,52,53
 489 608 489 608 448.5 583 c 128,-1,54
 408 558 408 558 363 513 c 128,-1,55
 318 468 318 468 278.5 403.5 c 128,-1,56
 239 339 239 339 221 254 c 0,57,58
 206 187 206 187 214.5 128.5 c 128,-1,59
 223 70 223 70 249 23 c 128,-1,60
 275 -24 275 -24 317.5 -57.5 c 128,-1,61
 360 -91 360 -91 416 -106 c 0,62,63
 490 -127 490 -127 571 -116 c 128,-1,64
 652 -105 652 -105 759 -57 c 1,65,-1
 744 -142 l 1,66,67
 664 -179 664 -179 584 -192.5 c 128,-1,68
 504 -206 504 -206 430.5 -196.5 c 128,-1,69
 357 -187 357 -187 296 -155 c 128,-1,70
 235 -123 235 -123 191 -67 c 0,71,72
 173 -45 173 -45 157.5 -10.5 c 128,-1,73
 142 24 142 24 133 66.5 c 128,-1,74
 124 109 124 109 122.5 157.5 c 128,-1,75
 121 206 121 206 132 257 c 0,76,77
 146 324 146 324 179 391.5 c 128,-1,78
 212 459 212 459 260 518 c 128,-1,79
 308 577 308 577 368 623.5 c 128,-1,80
 428 670 428 670 496 697 c 0,81,82
 561 720 561 720 628 728.5 c 128,-1,83
 695 737 695 737 757 728 c 128,-1,84
 819 719 819 719 873 693 c 128,-1,85
 927 667 927 667 966 625 c 0,86,87
 1013 568 1013 568 1026.5 493.5 c 128,-1,88
 1040 419 1040 419 1022 332 c 0,0,1
680 371 m 0,89,90
 688 407 688 407 672 432 c 128,-1,91
 656 457 656 457 620 457 c 0,92,93
 586 457 586 457 553 432 c 128,-1,94
 520 407 520 407 494 374.5 c 128,-1,95
 468 342 468 342 450 310 c 128,-1,96
 432 278 432 278 426 265 c 0,97,98
 414 242 414 242 407.5 216 c 128,-1,99
 401 190 401 190 400 165.5 c 128,-1,100
 399 141 399 141 406 121.5 c 128,-1,101
 413 102 413 102 428 93 c 0,102,103
 453 76 453 76 480 82 c 128,-1,104
 507 88 507 88 531.5 105.5 c 128,-1,105
 556 123 556 123 576 147.5 c 128,-1,106
 596 172 596 172 608 193 c 0,107,108
 632 236 632 236 651.5 281 c 128,-1,109
 671 326 671 326 680 371 c 0,89,90
EndSplineSet
EndChar
StartChar: A
Encoding: 65 65 34
Width: 663
VWidth: 1494
Flags: W
HStem: -18 21G<9 117.823 546.453 655> 185 93<281 498>
Fore
655 0 m 1,0,-1
 550 -18 l 1,1,-1
 514 185 l 1,2,-1
 226 185 l 1,3,-1
 106 -18 l 1,4,-1
 9 0 l 1,5,-1
 425 680 l 2,6,7
 431 689 431 689 445.5 706 c 128,-1,8
 460 723 460 723 478 732 c 0,9,10
 487 737 487 737 497.5 735.5 c 128,-1,11
 508 734 508 734 518.5 729.5 c 128,-1,12
 529 725 529 725 536.5 719 c 128,-1,13
 544 713 544 713 547 709 c 0,14,15
 558 695 558 695 547.5 681.5 c 128,-1,16
 537 668 537 668 532 662 c 1,17,-1
 655 0 l 1,0,-1
450 564 m 1,18,-1
 281 278 l 1,19,-1
 498 278 l 1,20,-1
 450 564 l 1,18,-1
EndSplineSet
EndChar
StartChar: B
Encoding: 66 66 35
Width: 632
VWidth: 1494
Flags: W
HStem: 0 100<221 466.549> 318 99<290 486.412> 608 104<330 533.819>
Fore
544 520 m 0,0,1
 556 575 556 575 534.5 591.5 c 128,-1,2
 513 608 513 608 454 608 c 2,3,-1
 330 608 l 1,4,-1
 290 417 l 1,5,-1
 404 417 l 2,6,7
 454 417 454 417 494 443 c 128,-1,8
 534 469 534 469 544 520 c 0,0,1
519 214 m 0,9,10
 531 272 531 272 494 295 c 128,-1,11
 457 318 457 318 396 318 c 2,12,-1
 268 318 l 1,13,-1
 221 100 l 1,14,-1
 371 100 l 2,15,16
 438 100 438 100 471.5 124 c 128,-1,17
 505 148 505 148 519 214 c 0,9,10
226 589 m 2,18,19
 229 602 229 602 222 612.5 c 128,-1,20
 215 623 215 623 208.5 632 c 128,-1,21
 202 641 202 641 197.5 650 c 128,-1,22
 193 659 193 659 200 670 c 0,23,24
 205 677 205 677 214.5 687.5 c 128,-1,25
 224 698 224 698 234.5 707 c 128,-1,26
 245 716 245 716 256.5 721 c 128,-1,27
 268 726 268 726 277 722 c 0,28,29
 281 719 281 719 285.5 717 c 128,-1,30
 290 715 290 715 296 712 c 1,31,-1
 489 712 l 2,32,33
 573 712 573 712 618.5 660 c 128,-1,34
 664 608 664 608 646 525 c 0,35,36
 634 472 634 472 607 436.5 c 128,-1,37
 580 401 580 401 546 380 c 1,38,39
 586 359 586 359 608.5 317 c 128,-1,40
 631 275 631 275 619 215 c 0,41,42
 598 114 598 114 533.5 57 c 128,-1,43
 469 0 469 0 375 0 c 2,44,-1
 102 0 l 1,45,-1
 226 589 l 2,18,19
EndSplineSet
EndChar
StartChar: C
Encoding: 67 67 36
Width: 642
VWidth: 1494
Flags: W
HStem: 616 103.5<461.936 541.25>
Fore
622 78 m 1,0,1
 577 39 577 39 525.5 19 c 128,-1,2
 474 -1 474 -1 424.5 -7 c 128,-1,3
 375 -13 375 -13 331.5 -8.5 c 128,-1,4
 288 -4 288 -4 260 7 c 0,5,6
 233 18 233 18 202.5 40.5 c 128,-1,7
 172 63 172 63 149.5 103.5 c 128,-1,8
 127 144 127 144 119.5 206 c 128,-1,9
 112 268 112 268 130 356 c 0,10,11
 149 444 149 444 183 505.5 c 128,-1,12
 217 567 217 567 256.5 607 c 128,-1,13
 296 647 296 647 335.5 669.5 c 128,-1,14
 375 692 375 692 407 703 c 0,15,16
 447 716 447 716 491 719.5 c 128,-1,17
 535 723 535 723 577 716.5 c 128,-1,18
 619 710 619 710 655.5 692 c 128,-1,19
 692 674 692 674 718 644 c 1,20,-1
 710 632 l 2,21,22
 704 623 704 623 691.5 604.5 c 128,-1,23
 679 586 679 586 655 552 c 1,24,25
 620 589 620 589 580 602.5 c 128,-1,26
 540 616 540 616 505 616 c 0,27,28
 465 616 465 616 423 604 c 0,29,30
 354 581 354 581 305 515.5 c 128,-1,31
 256 450 256 450 235 356 c 256,32,33
 214 262 214 262 236.5 196 c 128,-1,34
 259 130 259 130 318 106 c 0,35,36
 359 93 359 93 401 91 c 0,37,38
 436 90 436 90 481 102 c 128,-1,39
 526 114 526 114 571 152 c 1,40,-1
 622 78 l 1,0,1
EndSplineSet
EndChar
StartChar: D
Encoding: 68 68 37
Width: 677
VWidth: 1494
Flags: W
HStem: 0 102<215 442.213> 610 100<323 523.095>
Fore
602 356 m 0,0,1
 656 610 656 610 407 610 c 2,2,-1
 323 610 l 1,3,-1
 215 102 l 1,4,-1
 333 102 l 2,5,6
 450 102 450 102 513.5 170 c 128,-1,7
 577 238 577 238 602 356 c 0,0,1
450 710 m 2,8,9
 616 710 616 710 678.5 616 c 128,-1,10
 741 522 741 522 707 356 c 0,11,12
 671 184 671 184 566.5 92 c 128,-1,13
 462 0 462 0 300 0 c 2,14,-1
 94 0 l 1,15,-1
 218 589 l 2,16,17
 221 602 221 602 214.5 612.5 c 128,-1,18
 208 623 208 623 201 632 c 128,-1,19
 194 641 194 641 189.5 650 c 128,-1,20
 185 659 185 659 193 670 c 0,21,22
 197 677 197 677 207 687.5 c 128,-1,23
 217 698 217 698 227.5 707 c 128,-1,24
 238 716 238 716 249 721 c 128,-1,25
 260 726 260 726 269 722 c 0,26,27
 273.5 719 l 0,28,-1
 287 710 l 1,29,-1
 450 710 l 2,8,9
EndSplineSet
EndChar
StartChar: E
Encoding: 69 69 38
Width: 563
VWidth: 1494
Flags: W
HStem: 0 100<203 478> 318 102<271 516> 610 102<311 608>
Fore
205 589 m 2,0,1
 208 602 208 602 201 612.5 c 128,-1,2
 194 623 194 623 187.5 632 c 128,-1,3
 181 641 181 641 176.5 650 c 128,-1,4
 172 659 172 659 179 670 c 0,5,6
 184 677 184 677 193.5 687.5 c 128,-1,7
 203 698 203 698 213.5 707 c 128,-1,8
 224 716 224 716 235.5 721 c 128,-1,9
 247 726 247 726 256 722 c 0,10,11
 260 719 260 719 264.5 717 c 128,-1,12
 269 715 269 715 275 712 c 1,13,-1
 631 712 l 1,14,-1
 608 610 l 1,15,-1
 311 610 l 1,16,-1
 271 420 l 1,17,-1
 537 420 l 1,18,-1
 516 318 l 1,19,-1
 250 318 l 1,20,-1
 203 100 l 1,21,-1
 499 100 l 1,22,-1
 478 0 l 1,23,-1
 81 0 l 1,24,-1
 205 589 l 2,0,1
EndSplineSet
EndChar
StartChar: F
Encoding: 70 70 39
Width: 532
VWidth: 1494
Flags: W
HStem: 0 21G<85 191.188> 320 100<277 522> 611 101<317 611>
Fore
209 589 m 2,0,1
 212 602 212 602 205.5 612.5 c 128,-1,2
 199 623 199 623 192 632 c 128,-1,3
 185 641 185 641 180.5 650 c 128,-1,4
 176 659 176 659 184 670 c 0,5,6
 188 677 188 677 198 687.5 c 128,-1,7
 208 698 208 698 218.5 707 c 128,-1,8
 229 716 229 716 240 721 c 128,-1,9
 251 726 251 726 260 722 c 0,10,11
 265 719 265 719 269.5 717 c 128,-1,12
 274 715 274 715 280 712 c 1,13,-1
 634 712 l 1,14,-1
 611 611 l 1,15,-1
 317 611 l 1,16,-1
 277 420 l 1,17,-1
 543 420 l 1,18,-1
 522 320 l 1,19,-1
 254 320 l 1,20,-1
 187 0 l 1,21,-1
 85 0 l 1,22,-1
 209 589 l 2,0,1
EndSplineSet
EndChar
StartChar: G
Encoding: 71 71 40
Width: 686
VWidth: 1494
Flags: W
HStem: -12 102<299.023 421.447> 284 103<425 555> 625 101<395.625 506.182 494.362 518.002 518.002 547.5 547.5 553.375>
VStem: 128.5 104.5<166.097 292.178>
Fore
614 387 m 1,0,1
 635 404 635 404 650 405 c 0,2,3
 661 407 661 407 670 401 c 128,-1,4
 679 395 679 395 685.5 386 c 128,-1,5
 692 377 692 377 696 367 c 128,-1,6
 700 357 700 357 700 351 c 0,7,8
 701 339 701 339 694.5 331.5 c 128,-1,9
 688 324 688 324 683.5 320 c 0,10,-1
 665.5 303.5 l 0,11,12
 652 291 652 291 649 278 c 2,13,-1
 598 40 l 1,14,15
 531 13 531 13 470.5 0.5 c 128,-1,16
 410 -12 410 -12 342 -12 c 0,17,18
 269 -12 269 -12 222.5 18.5 c 128,-1,19
 176 49 176 49 153 100 c 128,-1,20
 130 151 130 151 128.5 217.5 c 128,-1,21
 127 284 127 284 142 357 c 0,22,23
 157 425 157 425 188.5 490.5 c 128,-1,24
 220 556 220 556 265.5 608.5 c 128,-1,25
 311 661 311 661 370 693.5 c 128,-1,26
 429 726 429 726 499 726 c 0,27,28
 514 726 514 726 547.5 723 c 128,-1,29
 581 720 581 720 616.5 704 c 128,-1,30
 652 688 652 688 679 652 c 128,-1,31
 706 616 706 616 709 552 c 1,32,-1
 605 517 l 1,33,34
 605 556 605 556 589.5 577.5 c 128,-1,35
 574 599 574 599 554 609.5 c 128,-1,36
 534 620 534 620 512 622.5 c 128,-1,37
 490 625 490 625 477 625 c 0,38,39
 429 625 429 625 390 600 c 128,-1,40
 351 575 351 575 322.5 537 c 128,-1,41
 294 499 294 499 275 451.5 c 128,-1,42
 256 404 256 404 245 357 c 0,43,44
 233 299 233 299 233 249.5 c 128,-1,45
 233 200 233 200 249 165 c 128,-1,46
 265 130 265 130 300 110 c 128,-1,47
 335 90 335 90 392 90 c 0,48,49
 422 90 422 90 453 97.5 c 128,-1,50
 484 105 484 105 519 115 c 1,51,-1
 555 284 l 1,52,-1
 402 284 l 1,53,-1
 425 387 l 1,54,-1
 614 387 l 1,0,1
EndSplineSet
EndChar
StartChar: H
Encoding: 72 72 41
Width: 677
VWidth: 1494
Flags: W
HStem: 0 21G<88 192.277 490 593.236> 318 102<277 558> 693 20G<234.764 339 636.7 740>
Fore
490 0 m 1,0,-1
 558 318 l 1,1,-1
 256 318 l 1,2,-1
 188 0 l 1,3,-1
 88 0 l 1,4,-1
 239 713 l 1,5,-1
 339 713 l 1,6,-1
 277 420 l 1,7,-1
 578 420 l 1,8,-1
 641 713 l 1,9,-1
 740 713 l 1,10,-1
 589 0 l 1,11,-1
 490 0 l 1,0,-1
EndSplineSet
EndChar
StartChar: I
Encoding: 73 73 42
Width: 273
VWidth: 1494
Flags: W
HStem: 0 21G<88 191.236> 693 20G<234.764 338>
VStem: 88 250<0 713 1.53064e-18 1.53064e-18>
Fore
88 0 m 1,0,-1
 239 713 l 1,1,-1
 338 713 l 1,2,-1
 187 0 l 1,3,-1
 88 0 l 1,0,-1
EndSplineSet
EndChar
StartChar: J
Encoding: 74 74 43
Width: 449
VWidth: 1494
Flags: W
HStem: 693 20G<394.791 499>
VStem: 30 469<28 713 28 28>
Fore
387 185 m 1,0,1
 365 111 365 111 326 65 c 128,-1,2
 287 19 287 19 238.5 1.5 c 128,-1,3
 190 -16 190 -16 136 -8.5 c 128,-1,4
 82 -1 82 -1 30 28 c 1,5,-1
 84 124 l 1,6,7
 100 102 100 102 130 90.5 c 128,-1,8
 160 79 160 79 191.5 84.5 c 128,-1,9
 223 90 223 90 250 111.5 c 128,-1,10
 277 133 277 133 286 176 c 2,11,-1
 399 713 l 1,12,-1
 499 713 l 1,13,-1
 387 185 l 1,0,1
EndSplineSet
EndChar
StartChar: K
Encoding: 75 75 44
Width: 635
VWidth: 1494
Flags: W
HStem: -9 21G<91 197.259 497.925 629> 693 20<237.764 344 633.833 726.966>
Fore
513 -9 m 1,0,-1
 262 324 l 1,1,-1
 193 0 l 1,2,-1
 91 0 l 1,3,-1
 242 713 l 1,4,-1
 344 713 l 1,5,-1
 281 417 l 1,6,-1
 658 729 l 1,7,-1
 758 700 l 1,8,-1
 353 371 l 1,9,-1
 629 0 l 1,10,-1
 513 -9 l 1,0,-1
EndSplineSet
EndChar
StartChar: L
Encoding: 76 76 45
Width: 548
VWidth: 1494
Flags: W
HStem: 0 91<218 520> 693 20G<237 351>
VStem: 61 477<31 51 88.5 91 31 91 31 31>
Fore
158 0 m 1,0,1
 149 -7 149 -7 135 -12.5 c 128,-1,2
 121 -18 121 -18 117 -21 c 1,3,4
 105 -25 105 -25 96 -20 c 128,-1,5
 87 -15 87 -15 79.5 -6 c 128,-1,6
 72 3 72 3 67.5 13.5 c 128,-1,7
 63 24 63 24 61 31 c 0,8,9
 58 42 58 42 66.5 51 c 128,-1,10
 75 60 75 60 86 69 c 128,-1,11
 97 78 97 78 107.5 88.5 c 128,-1,12
 118 99 118 99 121 112 c 2,13,14
 135 173 l 2,15,16
 141 200 141 200 149.5 243 c 128,-1,17
 158 286 158 286 171.5 350 c 128,-1,18
 185 414 185 414 204.5 503.5 c 128,-1,19
 224 593 224 593 250 713 c 1,20,-1
 351 713 l 1,21,-1
 218 91 l 1,22,-1
 538 91 l 1,23,-1
 520 0 l 1,24,-1
 158 0 l 1,0,1
EndSplineSet
EndChar
StartChar: M
Encoding: 77 77 46
Width: 985
VWidth: 1494
Flags: W
HStem: -15 21G<33 135.324 849.226 952>
VStem: 849 103<1 250.5 250.5 516>
Fore
549 34 m 1,0,1
 550 27 550 27 550 24 c 128,-1,2
 550 21 550 21 550 19 c 256,3,4
 550 18 550 18 549 18 c 1,5,6
 549 4 549 4 534 -5.5 c 128,-1,7
 519 -15 519 -15 501.5 -19.5 c 128,-1,8
 484 -24 484 -24 470 -20 c 128,-1,9
 456 -16 456 -16 457 -3 c 1,10,-1
 348 516 l 1,11,-1
 127 -15 l 1,12,-1
 33 1 l 1,13,-1
 309 647 l 1,14,15
 302 664 302 664 296.5 675 c 128,-1,16
 291 686 291 686 302 700 c 1,17,18
 308 704 308 704 319 711 c 128,-1,19
 330 718 330 718 343 723 c 128,-1,20
 356 728 356 728 367 730 c 128,-1,21
 378 732 378 732 384 729 c 0,22,23
 399 722 399 722 408 704 c 128,-1,24
 417 686 417 686 420 676 c 2,25,-1
 526 160 l 1,26,-1
 852 676 l 1,27,28
 857 686 857 686 874.5 704 c 128,-1,29
 892 722 892 722 909 729 c 0,30,31
 916 732 916 732 927.5 730 c 128,-1,32
 939 728 939 728 948.5 723 c 128,-1,33
 958 718 958 718 967 711 c 128,-1,34
 976 704 976 704 979 700 c 1,35,36
 982 686 982 686 974 675 c 128,-1,37
 966 664 966 664 951 647 c 1,38,-1
 952 1 l 1,39,-1
 849 -15 l 1,40,-1
 855 516 l 1,41,-1
 549 34 l 1,0,1
EndSplineSet
EndChar
StartChar: N
Encoding: 78 78 47
Width: 708
VWidth: 1494
Flags: W
HStem: 0 21G<97 201.241 519.437 615.225> 690 20G<656.768 761>
Fore
333 673 m 0,0,1
 359 620 359 620 397.5 541.5 c 128,-1,2
 436 463 436 463 471 389 c 0,3,4
 511 302 511 302 555 209 c 1,5,-1
 661 710 l 1,6,-1
 761 710 l 1,7,-1
 611 0 l 1,8,-1
 529 0 l 1,9,-1
 299 481 l 1,10,-1
 197 0 l 1,11,-1
 97 0 l 1,12,-1
 223 596 l 2,13,14
 226 610 226 610 223 615 c 0,15,-1
 212.5 636 l 0,16,17
 205 652 205 652 201 661.5 c 128,-1,18
 197 671 197 671 205 680 c 0,19,20
 217 697 217 697 241.5 711.5 c 128,-1,21
 266 726 266 726 286 723 c 0,22,23
 302 720 302 720 314 707 c 128,-1,24
 326 694 326 694 333 673 c 0,0,1
EndSplineSet
EndChar
StartChar: O
Encoding: 79 79 48
Width: 695
VWidth: 1494
Flags: W
HStem: -13 98<287.607 451.15> 628 98<392.465 557.118>
VStem: 120.5 103<179.252 218.5 218.5 302.065> 619.5 104.5<413.945 447 447 495.742>
Fore
712 357 m 0,0,1
 694 272 694 272 659.5 203.5 c 128,-1,2
 625 135 625 135 577 86 c 128,-1,3
 529 37 529 37 471 12 c 128,-1,4
 413 -13 413 -13 345 -13 c 0,5,6
 269 -13 269 -13 220.5 17.5 c 128,-1,7
 172 48 172 48 147.5 99.5 c 128,-1,8
 123 151 123 151 120.5 218.5 c 128,-1,9
 118 286 118 286 133 357 c 0,10,11
 148 425 148 425 178 490.5 c 128,-1,12
 208 556 208 556 253.5 608.5 c 128,-1,13
 299 661 299 661 361 693.5 c 128,-1,14
 423 726 423 726 502 726 c 0,15,16
 577 726 577 726 625 695 c 128,-1,17
 673 664 673 664 697.5 612.5 c 128,-1,18
 722 561 722 561 724 494.5 c 128,-1,19
 726 428 726 428 712 357 c 0,0,1
610 357 m 0,20,21
 619 399 619 399 619.5 447 c 128,-1,22
 620 495 620 495 606.5 535 c 128,-1,23
 593 575 593 575 563.5 601.5 c 128,-1,24
 534 628 534 628 481 628 c 256,25,26
 429 628 429 628 388 604 c 128,-1,27
 347 580 347 580 316.5 541 c 128,-1,28
 286 502 286 502 265 454.5 c 128,-1,29
 244 407 244 407 233 357 c 0,30,31
 224 314 224 314 223.5 266 c 128,-1,32
 223 218 223 218 237 178 c 128,-1,33
 251 138 251 138 281.5 111.5 c 128,-1,34
 312 85 312 85 366 85 c 0,35,36
 417 85 417 85 458 110.5 c 128,-1,37
 499 136 499 136 530 175.5 c 128,-1,38
 561 215 561 215 581 263 c 128,-1,39
 601 311 601 311 610 357 c 0,20,21
EndSplineSet
EndChar
StartChar: P
Encoding: 80 80 49
Width: 581
VWidth: 1494
Flags: W
HStem: 0 21G<87 191.219> 256 100<257 445.12> 608 104<311.129 455.853>
Fore
549 489 m 0,0,1
 562 552 562 552 515.5 580 c 128,-1,2
 469 608 469 608 375 608 c 0,3,4
 357 608 357 608 336 608 c 128,-1,5
 315 608 315 608 311 605 c 1,6,-1
 257 356 l 1,7,-1
 321 356 l 2,8,9
 422 356 422 356 477 386.5 c 128,-1,10
 532 417 532 417 549 489 c 0,0,1
211 589 m 2,11,12
 214 602 214 602 207 612.5 c 128,-1,13
 200 623 200 623 193.5 632 c 128,-1,14
 187 641 187 641 182.5 650 c 128,-1,15
 178 659 178 659 185 670 c 0,16,17
 190 677 190 677 199.5 687.5 c 128,-1,18
 209 698 209 698 219.5 707 c 128,-1,19
 230 716 230 716 241.5 721 c 128,-1,20
 253 726 253 726 262 722 c 0,21,22
 266 719 266 719 270.5 717 c 128,-1,23
 275 715 275 715 281 712 c 1,24,-1
 395 712 l 2,25,26
 454 712 454 712 506.5 700 c 128,-1,27
 559 688 559 688 595 661.5 c 128,-1,28
 631 635 631 635 647.5 592.5 c 128,-1,29
 664 550 664 550 650 489 c 0,30,31
 640 441 640 441 615 398.5 c 128,-1,32
 590 356 590 356 548.5 324.5 c 128,-1,33
 507 293 507 293 447 274.5 c 128,-1,34
 387 256 387 256 306 256 c 2,35,-1
 241 256 l 1,36,-1
 187 0 l 1,37,-1
 87 0 l 1,38,-1
 211 589 l 2,11,12
EndSplineSet
EndChar
StartChar: Q
Encoding: 81 81 50
Width: 714
VWidth: 1494
Flags: W
HStem: -12 105<298.14 462.355> 620 105<399.88 566.304>
VStem: 129 109<175.643 298.922> 624 110.5<421.189 454.5 454.5 504.457>
Fore
614 -31 m 1,0,-1
 537 46 l 1,1,2
 456 -12 456 -12 354 -12 c 0,3,4
 278 -12 278 -12 229.5 17 c 128,-1,5
 181 46 181 46 156.5 96 c 128,-1,6
 132 146 132 146 129 213.5 c 128,-1,7
 126 281 126 281 142 357 c 256,8,9
 158 433 158 433 189.5 500 c 128,-1,10
 221 567 221 567 267.5 617 c 128,-1,11
 314 667 314 667 374.5 696 c 128,-1,12
 435 725 435 725 511 725 c 0,13,14
 586 725 586 725 634.5 696 c 128,-1,15
 683 667 683 667 707.5 617 c 128,-1,16
 732 567 732 567 734.5 499.5 c 128,-1,17
 737 432 737 432 720 357 c 0,18,19
 706 287 706 287 679 227 c 128,-1,20
 652 167 652 167 616 120 c 1,21,-1
 694 43 l 1,22,-1
 614 -31 l 1,0,-1
613 357 m 0,23,24
 623 407 623 407 624 454.5 c 128,-1,25
 625 502 625 502 611.5 538.5 c 128,-1,26
 598 575 598 575 568 597.5 c 128,-1,27
 538 620 538 620 489 620 c 0,28,29
 438 620 438 620 397.5 597 c 128,-1,30
 357 574 357 574 327 536.5 c 128,-1,31
 297 499 297 499 278 452 c 128,-1,32
 259 405 259 405 248 357 c 0,33,34
 238 306 238 306 238 258.5 c 128,-1,35
 238 211 238 211 252 174.5 c 128,-1,36
 266 138 266 138 296.5 115.5 c 128,-1,37
 327 93 327 93 377 93 c 0,38,39
 425 93 425 93 468 118 c 1,40,-1
 413 176 l 1,41,-1
 489 250 l 1,42,-1
 546 191 l 1,43,44
 592 262 592 262 613 357 c 0,23,24
EndSplineSet
EndChar
StartChar: R
Encoding: 82 82 51
Width: 623
VWidth: 1494
Flags: W
HStem: -13 21G<87 191.219 456.227 573> 256 100<257 347> 608 104<311.129 455.853>
Fore
549 489 m 0,0,1
 562 552 562 552 515.5 580 c 128,-1,2
 469 608 469 608 375 608 c 0,3,4
 357 608 357 608 336 608 c 128,-1,5
 315 608 315 608 311 605 c 1,6,-1
 257 356 l 1,7,-1
 321 356 l 2,8,9
 422 356 422 356 477 386.5 c 128,-1,10
 532 417 532 417 549 489 c 0,0,1
211 589 m 2,11,12
 214 602 214 602 207 612.5 c 128,-1,13
 200 623 200 623 193.5 632 c 128,-1,14
 187 641 187 641 182.5 650 c 128,-1,15
 178 659 178 659 185 670 c 0,16,17
 190 677 190 677 199.5 687.5 c 128,-1,18
 209 698 209 698 219.5 707 c 128,-1,19
 230 716 230 716 241.5 721 c 128,-1,20
 253 726 253 726 262 722 c 0,21,22
 266 719 266 719 270.5 717 c 128,-1,23
 275 715 275 715 281 712 c 1,24,-1
 395 712 l 2,25,26
 454 712 454 712 506.5 700 c 128,-1,27
 559 688 559 688 595 661.5 c 128,-1,28
 631 635 631 635 647.5 592.5 c 128,-1,29
 664 550 664 550 650 489 c 0,30,31
 640 441 640 441 619 404.5 c 128,-1,32
 598 368 598 368 570.5 342.5 c 128,-1,33
 543 317 543 317 511.5 300.5 c 128,-1,34
 480 284 480 284 448 275 c 1,35,-1
 573 1 l 1,36,-1
 465 -13 l 1,37,-1
 347 256 l 1,38,-1
 241 256 l 1,39,-1
 187 0 l 1,40,-1
 87 0 l 1,41,-1
 211 589 l 2,11,12
EndSplineSet
EndChar
StartChar: S
Encoding: 83 83 52
Width: 626
VWidth: 1494
Flags: W
HStem: 622 103<376.397 517.78>
Fore
604 176 m 0,0,1
 592 133 592 133 565 95.5 c 128,-1,2
 538 58 538 58 498.5 31 c 128,-1,3
 459 4 459 4 406 -10.5 c 128,-1,4
 353 -25 353 -25 287 -22 c 0,5,6
 200 -19 200 -19 153 10 c 128,-1,7
 106 39 106 39 76 76 c 1,8,-1
 167 160 l 1,9,10
 188 135 188 135 219 108 c 128,-1,11
 250 81 250 81 305 76 c 0,12,13
 330 73 330 73 360 77.5 c 128,-1,14
 390 82 390 82 417 92.5 c 128,-1,15
 444 103 444 103 465.5 121 c 128,-1,16
 487 139 487 139 496 166 c 0,17,18
 504 188 504 188 501 205.5 c 128,-1,19
 498 223 498 223 481.5 240 c 128,-1,20
 465 257 465 257 433 273.5 c 128,-1,21
 401 290 401 290 348 311 c 0,22,23
 256 345 256 345 216 394.5 c 128,-1,24
 176 444 176 444 184 507 c 0,25,26
 188 547 188 547 208.5 586.5 c 128,-1,27
 229 626 229 626 264.5 657 c 128,-1,28
 300 688 300 688 349 706.5 c 128,-1,29
 398 725 398 725 459 725 c 0,30,31
 484 725 484 725 513.5 720.5 c 128,-1,32
 543 716 543 716 571 705.5 c 128,-1,33
 599 695 599 695 623 677 c 128,-1,34
 647 659 647 659 664 634 c 1,35,-1
 595 550 l 1,36,37
 578 574 578 574 538.5 598 c 128,-1,38
 499 622 499 622 439 622 c 0,39,40
 405 622 405 622 379.5 613 c 128,-1,41
 354 604 354 604 337 591 c 128,-1,42
 320 578 320 578 311 565 c 128,-1,43
 302 552 302 552 299 543 c 0,44,45
 283 499 283 499 306 467.5 c 128,-1,46
 329 436 329 436 410 407 c 0,47,48
 453 390 453 390 494 370 c 128,-1,49
 535 350 535 350 564 323 c 128,-1,50
 593 296 593 296 605 260 c 128,-1,51
 617 224 617 224 604 176 c 0,0,1
EndSplineSet
EndChar
StartChar: T
Encoding: 84 84 53
Width: 581
VWidth: 1494
Flags: W
HStem: 0 21G<233 337.235> 614 99<192.199 363 463 648.812>
Fore
191 614 m 2,0,1
 187 614 187 614 181.5 615 c 128,-1,2
 176 616 176 616 171 620.5 c 128,-1,3
 166 625 166 625 163 634.5 c 128,-1,4
 160 644 160 644 161 662 c 0,5,6
 164 694 164 694 181.5 704.5 c 128,-1,7
 199 715 199 715 220 713 c 2,8,-1
 655 713 l 2,9,10
 676 715 676 715 688.5 704.5 c 128,-1,11
 701 694 701 694 689 662 c 0,12,13
 682 643 682 643 675 633 c 128,-1,14
 668 623 668 623 661.5 619.5 c 128,-1,15
 655 616 655 616 649 615 c 128,-1,16
 643 614 643 614 637 614 c 2,17,-1
 463 614 l 1,18,-1
 333 0 l 1,19,-1
 233 0 l 1,20,-1
 363 614 l 1,21,-1
 191 614 l 2,0,1
EndSplineSet
EndChar
StartChar: U
Encoding: 85 85 54
Width: 736
VWidth: 1494
Flags: W
HStem: -12 91<289.605 484.815> 693 20G<243.723 347 689.729 792>
Fore
691 236 m 1,0,1
 677 176 677 176 646.5 130 c 128,-1,2
 616 84 616 84 573.5 52.5 c 128,-1,3
 531 21 531 21 478.5 4.5 c 128,-1,4
 426 -12 426 -12 369 -12 c 0,5,6
 309 -12 309 -12 262 3 c 128,-1,7
 215 18 215 18 184.5 48.5 c 128,-1,8
 154 79 154 79 143.5 126 c 128,-1,9
 133 173 133 173 146 236 c 2,10,-1
 248 713 l 1,11,-1
 347 713 l 1,12,-1
 244 226 l 2,13,14
 227 149 227 149 269.5 114 c 128,-1,15
 312 79 312 79 389 79 c 256,16,17
 465 79 465 79 519.5 114 c 128,-1,18
 574 149 574 149 590 226 c 2,19,-1
 694 713 l 1,20,-1
 792 713 l 1,21,-1
 691 236 l 1,0,1
EndSplineSet
EndChar
StartChar: V
Encoding: 86 86 55
Width: 695
VWidth: 1494
Flags: W
HStem: 706 20G<173 281.517 711.172 819>
Fore
173 709 m 1,0,-1
 278 726 l 1,1,-1
 380 146 l 1,2,-1
 723 726 l 1,3,-1
 819 709 l 1,4,-1
 402 24 l 2,5,6
 396 13 396 13 379 -4 c 128,-1,7
 362 -21 362 -21 344 -28 c 0,8,9
 336 -31 336 -31 325.5 -29 c 128,-1,10
 315 -27 315 -27 305.5 -21.5 c 128,-1,11
 296 -16 296 -16 287 -9.5 c 128,-1,12
 278 -3 278 -3 275 1 c 1,13,14
 271 13 271 13 279 23.5 c 128,-1,15
 287 34 287 34 300 49 c 1,16,-1
 173 709 l 1,0,-1
EndSplineSet
EndChar
StartChar: W
Encoding: 87 87 56
Width: 985
VWidth: 1494
Flags: W
HStem: 700 20G<182 283.774 997.66 1102>
VStem: 184 94<190 455 455 704>
Fore
785 190 m 1,0,-1
 1006 720 l 1,1,-1
 1102 704 l 1,2,-1
 825 58 l 1,3,4
 833 42 833 42 837.5 30.5 c 128,-1,5
 842 19 842 19 831 6 c 1,6,7
 825 1 825 1 814 -5.5 c 128,-1,8
 803 -12 803 -12 791 -17 c 128,-1,9
 779 -22 779 -22 767 -24.5 c 128,-1,10
 755 -27 755 -27 749 -24 c 0,11,12
 735 -16 735 -16 725.5 1.5 c 128,-1,13
 716 19 716 19 715 30 c 2,14,-1
 608 546 l 1,15,-1
 283 30 l 2,16,17
 277 19 277 19 259.5 1.5 c 128,-1,18
 242 -16 242 -16 224 -24 c 0,19,20
 217 -27 217 -27 206.5 -24.5 c 128,-1,21
 196 -22 196 -22 185.5 -17 c 128,-1,22
 175 -12 175 -12 166 -5.5 c 128,-1,23
 157 1 157 1 154 6 c 1,24,25
 151 19 151 19 160 30.5 c 128,-1,26
 169 42 169 42 184 58 c 1,27,-1
 182 704 l 1,28,-1
 284 720 l 1,29,-1
 278 190 l 1,30,-1
 608 709 l 1,31,32
 613 722 613 722 628.5 725.5 c 128,-1,33
 644 729 644 729 660 724.5 c 128,-1,34
 676 720 676 720 685.5 710.5 c 128,-1,35
 695 701 695 701 691 688 c 1,36,37
 692 688 692 688 692 686 c 0,38,39
 692 682 692 682 685 671 c 1,40,-1
 785 190 l 1,0,-1
EndSplineSet
EndChar
StartChar: X
Encoding: 88 88 57
Width: 659
VWidth: 1494
Flags: W
HStem: -9 21G<43.3333 147.533 519.089 623.238> 699 20G<208 322.327 640.687 752>
Fore
528 -9 m 1,0,-1
 393 294 l 1,1,-1
 130 -6 l 1,2,-1
 39 15 l 1,3,-1
 362 378 l 1,4,-1
 208 700 l 1,5,-1
 314 719 l 1,6,-1
 426 450 l 1,7,-1
 658 718 l 1,8,-1
 752 700 l 1,9,-1
 456 368 l 1,10,-1
 628 12 l 1,11,-1
 528 -9 l 1,0,-1
EndSplineSet
EndChar
StartChar: Y
Encoding: 89 89 58
Width: 597
VWidth: 1494
Flags: W
HStem: 0 21G<248 349.239> 708 20G<170 275.233 619.051 723>
Fore
723 709 m 1,0,-1
 710 692.5 l 2,1,2
 697 676 697 676 675 649.5 c 128,-1,3
 653 623 653 623 625.5 589.5 c 128,-1,4
 598 556 598 556 570 522 c 0,5,6
 501 439 501 439 416 335 c 1,7,-1
 345 0 l 1,8,-1
 248 0 l 1,9,-1
 318 335 l 1,10,11
 277 439 277 439 244 522 c 0,12,13
 230 558 230 558 216.5 591.5 c 128,-1,14
 203 625 203 625 192.5 651 c 128,-1,15
 182 677 182 677 176 693 c 128,-1,16
 170 709 170 709 170 710 c 1,17,-1
 268 728 l 1,18,-1
 383 410 l 1,19,-1
 635 726 l 1,20,-1
 723 709 l 1,0,-1
EndSplineSet
EndChar
StartChar: Z
Encoding: 90 90 59
Width: 606
VWidth: 1494
Flags: W
HStem: 0 97<218 568> 613 97<190 535>
Fore
170 613 m 1,0,-1
 190 710 l 1,1,-1
 631 710 l 1,2,3
 638 713 638 713 649.5 718 c 128,-1,4
 661 723 661 723 667 726 c 0,5,6
 688 734 688 734 700 718.5 c 128,-1,7
 712 703 712 703 719 673 c 0,8,9
 722 662 722 662 714 652.5 c 128,-1,10
 706 643 706 643 693 633 c 128,-1,11
 680 623 680 623 666 613.5 c 128,-1,12
 652 604 652 604 643 592 c 2,13,-1
 218 97 l 1,14,-1
 587 97 l 1,15,-1
 568 0 l 1,16,-1
 123 0 l 1,17,18
 115 -3 115 -3 104 -8 c 128,-1,19
 93 -13 93 -13 87 -16 c 0,20,21
 66 -24 66 -24 54 -8.5 c 128,-1,22
 42 7 42 7 34 37 c 0,23,24
 31 48 31 48 39.5 57.5 c 128,-1,25
 48 67 48 67 60.5 77 c 128,-1,26
 73 87 73 87 87.5 96.5 c 128,-1,27
 102 106 102 106 111 118 c 2,28,-1
 535 613 l 1,29,-1
 170 613 l 1,0,-1
EndSplineSet
EndChar
StartChar: bracketleft
Encoding: 91 91 60
Width: 366
VWidth: 1494
Flags: W
HStem: -138 95<154 250> 647 96<302 417>
VStem: 43 393<-138 743 -195.867 -138>
Fore
43 -138 m 1,0,-1
 230 743 l 1,1,-1
 436 743 l 1,2,-1
 417 647 l 1,3,-1
 302 647 l 1,4,-1
 154 -43 l 1,5,-1
 269 -43 l 1,6,-1
 250 -138 l 1,7,-1
 43 -138 l 1,0,-1
EndSplineSet
EndChar
StartChar: backslash
Encoding: 92 92 61
Width: 336
VWidth: 1494
Flags: W
VStem: 136 217<-25 743 743 743>
Fore
263 -25 m 1,0,-1
 136 743 l 1,1,-1
 226 743 l 1,2,-1
 353 -25 l 1,3,-1
 263 -25 l 1,0,-1
EndSplineSet
EndChar
StartChar: bracketright
Encoding: 93 93 62
Width: 367
VWidth: 1494
Flags: W
HStem: -138 95<76 191> 647 96<244 339>
VStem: 57 393<-138 743 567.626 665.684>
Fore
57 -138 m 1,0,-1
 76 -43 l 1,1,-1
 191 -43 l 1,2,-1
 339 647 l 1,3,-1
 224 647 l 1,4,-1
 244 743 l 1,5,-1
 450 743 l 1,6,-1
 263 -138 l 1,7,-1
 57 -138 l 1,0,-1
EndSplineSet
EndChar
StartChar: asciicircum
Encoding: 94 94 63
Width: 599
VWidth: 1494
Flags: W
HStem: 318 380<477 507>
VStem: 148 435<318 318 318 318>
Fore
477 318 m 1,0,-1
 422 589 l 1,1,-1
 254 318 l 1,2,-1
 148 318 l 1,3,-1
 386 698 l 1,4,-1
 507 698 l 1,5,-1
 583 318 l 1,6,-1
 477 318 l 1,0,-1
EndSplineSet
EndChar
StartChar: underscore
Encoding: 95 95 64
Width: 556
VWidth: 1494
Flags: W
HStem: -149 74<-15 523>
Fore
-31 -149 m 1,0,-1
 -15 -75 l 1,1,-1
 540 -75 l 1,2,-1
 523 -149 l 1,3,-1
 -31 -149 l 1,0,-1
EndSplineSet
EndChar
StartChar: grave
Encoding: 96 96 65
Width: 322
VWidth: 1494
Flags: W
HStem: 577 157<306 329 190 393 190 190>
Fore
393 577 m 1,0,-1
 306 577 l 1,1,-1
 190 734 l 1,2,-1
 329 732 l 1,3,-1
 393 577 l 1,0,-1
EndSplineSet
EndChar
StartChar: a
Encoding: 97 97 66
Width: 605
VWidth: 1494
Flags: W
HStem: -9 88<234.475 344.63> 438 90<304.912 439.171>
VStem: 99.5 93.5<168.504 242.5>
Fore
478 233 m 0,0,1
 481 251 481 251 483.5 261.5 c 128,-1,2
 486 272 486 272 487 278 c 2,3,-1
 489 286 l 1,4,5
 490 312 490 312 486.5 339 c 128,-1,6
 483 366 483 366 470 388 c 128,-1,7
 457 410 457 410 434 424 c 128,-1,8
 411 438 411 438 377 438 c 0,9,10
 338 438 338 438 307.5 420 c 128,-1,11
 277 402 277 402 254.5 375 c 128,-1,12
 232 348 232 348 217.5 317 c 128,-1,13
 203 286 203 286 197 259 c 0,14,15
 193 236 193 236 193 204.5 c 128,-1,16
 193 173 193 173 202.5 145.5 c 128,-1,17
 212 118 212 118 235.5 98.5 c 128,-1,18
 259 79 259 79 300 79 c 0,19,20
 333 79 333 79 362.5 92.5 c 128,-1,21
 392 106 392 106 414 127.5 c 128,-1,22
 436 149 436 149 452.5 177 c 128,-1,23
 469 205 469 205 478 233 c 0,0,1
444 43 m 1,24,25
 408 15 408 15 367 3 c 128,-1,26
 326 -9 326 -9 281 -9 c 0,27,28
 221 -9 221 -9 183 15 c 128,-1,29
 145 39 145 39 124 77 c 128,-1,30
 103 115 103 115 99.5 163 c 128,-1,31
 96 211 96 211 106 259 c 0,32,33
 117 308 117 308 141.5 356 c 128,-1,34
 166 404 166 404 202.5 442 c 128,-1,35
 239 480 239 480 287.5 504 c 128,-1,36
 336 528 336 528 396 528 c 0,37,38
 439 528 439 528 473 510.5 c 128,-1,39
 507 493 507 493 529 466 c 1,40,41
 531 472 531 472 532 480 c 0,42,43
 534 490 534 490 541 522 c 1,44,-1
 635 522 l 1,45,-1
 550 123 l 2,46,47
 540 78 540 78 541.5 56 c 128,-1,48
 543 34 543 34 549 9 c 1,49,-1
 456 -21 l 1,50,51
 448 -1 448 -1 445 13 c 128,-1,52
 442 27 442 27 444 43 c 1,24,25
EndSplineSet
Substitution2: "Single Substitution lookup 22 subtable" uni0E38
Substitution2: "Single Substitution lookup 22 subtable" uni0E38
EndChar
StartChar: b
Encoding: 98 98 67
Width: 602
VWidth: 1494
Flags: W
HStem: -6 90<279.026 416.573> 441 88<355.11 484.525>
VStem: 527 92.5<279.5 316.5 316.5 354.347>
Fore
187 52 m 1,0,1
 179 36 179 36 169.5 21.5 c 128,-1,2
 160 7 160 7 146 -12 c 1,3,-1
 66 18 l 1,4,5
 82 43 82 43 92.5 65 c 128,-1,6
 103 87 103 87 112 132 c 1,7,8
 111 130 111 130 124 191 c 0,9,10
 130 218 130 218 139 260 c 128,-1,11
 148 302 148 302 161.5 367 c 128,-1,12
 175 432 175 432 194.5 521 c 128,-1,13
 214 610 214 610 239 731 c 1,14,-1
 332 731 l 1,15,16
 315 656 315 656 305.5 607 c 128,-1,17
 296 558 296 558 288 526 c 0,18,19
 281 489 281 489 277 468 c 1,20,21
 311 495 311 495 353 512 c 128,-1,22
 395 529 395 529 438 529 c 0,23,24
 498 529 498 529 536 506 c 128,-1,25
 574 483 574 483 595 445 c 128,-1,26
 616 407 616 407 619.5 359 c 128,-1,27
 623 311 623 311 613 263 c 0,28,29
 602 214 602 214 578.5 166 c 128,-1,30
 555 118 555 118 518 80 c 128,-1,31
 481 42 481 42 432.5 18 c 128,-1,32
 384 -6 384 -6 324 -6 c 0,33,34
 238 -6 238 -6 187 52 c 1,0,1
522 263 m 0,35,36
 526 286 526 286 527 316.5 c 128,-1,37
 528 347 528 347 517.5 374.5 c 128,-1,38
 507 402 507 402 483.5 421.5 c 128,-1,39
 460 441 460 441 419 441 c 0,40,41
 384 441 384 441 355 426 c 128,-1,42
 326 411 326 411 303.5 387 c 128,-1,43
 281 363 281 363 264.5 335.5 c 128,-1,44
 248 308 248 308 239 281 c 1,45,46
 239 280 239 280 237.5 272.5 c 128,-1,47
 236 265 236 265 234 256 c 128,-1,48
 232 247 232 247 230.5 239.5 c 128,-1,49
 229 232 229 232 229 230 c 0,50,51
 226 202 226 202 231 175 c 128,-1,52
 236 148 236 148 249.5 128 c 128,-1,53
 263 108 263 108 286 96 c 128,-1,54
 309 84 309 84 342 84 c 0,55,56
 384 84 384 84 415.5 103.5 c 128,-1,57
 447 123 447 123 468.5 150.5 c 128,-1,58
 490 178 490 178 503.5 208.5 c 128,-1,59
 517 239 517 239 522 263 c 0,35,36
EndSplineSet
Substitution2: "Single Substitution lookup 22 subtable" uni0E39
Substitution2: "Single Substitution lookup 22 subtable" uni0E39
EndChar
StartChar: c
Encoding: 99 99 68
Width: 487
VWidth: 1494
Flags: W
VStem: 97 441<262 468 262 262>
Fore
451 49 m 2,0,1
 389 1 389 1 317 -9 c 128,-1,2
 245 -19 245 -19 189 7 c 128,-1,3
 133 33 133 33 104 96.5 c 128,-1,4
 75 160 75 160 97 262 c 0,5,6
 118 362 118 362 172.5 426 c 128,-1,7
 227 490 227 490 293 516.5 c 128,-1,8
 359 543 359 543 425.5 531 c 128,-1,9
 492 519 492 519 538 468 c 1,10,-1
 477 378 l 1,11,12
 450 426 450 426 406 438 c 128,-1,13
 362 450 362 450 326 438 c 0,14,15
 274 420 274 420 238 373.5 c 128,-1,16
 202 327 202 327 188 262 c 0,17,18
 173 194 173 194 190.5 148.5 c 128,-1,19
 208 103 208 103 251 87 c 0,20,21
 280 75 280 75 328.5 81 c 128,-1,22
 377 87 377 87 423 132 c 1,23,-1
 468 63 l 1,24,-1
 451 49 l 2,0,1
EndSplineSet
Substitution2: "Single Substitution lookup 22 subtable" uni0E3A
Substitution2: "Single Substitution lookup 22 subtable" uni0E3A
EndChar
StartChar: d
Encoding: 100 100 69
Width: 602
VWidth: 1494
Flags: W
HStem: -6 90<233.669 356.261> 441 88<300.888 435.839>
VStem: 99.5 92.5<169.761 246.186>
Fore
550 132 m 2,0,1
 541 87 541 87 542 65 c 128,-1,2
 543 43 543 43 549 18 c 1,3,-1
 456 -12 l 1,4,5
 448 7 448 7 445 20.5 c 128,-1,6
 442 34 442 34 442 51 c 1,7,8
 368 -6 368 -6 281 -6 c 0,9,10
 221 -6 221 -6 182.5 18 c 128,-1,11
 144 42 144 42 123.5 80 c 128,-1,12
 103 118 103 118 99.5 166 c 128,-1,13
 96 214 96 214 106 263 c 0,14,15
 117 311 117 311 140.5 359 c 128,-1,16
 164 407 164 407 201 445 c 128,-1,17
 238 483 238 483 286.5 506 c 128,-1,18
 335 529 335 529 395 529 c 0,19,20
 438 529 438 529 471.5 512 c 128,-1,21
 505 495 505 495 529 468 c 1,22,-1
 584 731 l 1,23,-1
 677 731 l 1,24,-1
 550 132 l 2,0,1
197 263 m 0,25,26
 193 239 193 239 192 208.5 c 128,-1,27
 191 178 191 178 201 150.5 c 128,-1,28
 211 123 211 123 234 103.5 c 128,-1,29
 257 84 257 84 299 84 c 0,30,31
 332 84 332 84 360.5 96 c 128,-1,32
 389 108 389 108 411 128 c 128,-1,33
 433 148 433 148 449.5 175 c 128,-1,34
 466 202 466 202 475 230 c 2,35,-1
 486 281 l 1,36,37
 487 308 487 308 483.5 335.5 c 128,-1,38
 480 363 480 363 467 387 c 128,-1,39
 454 411 454 411 432 426 c 128,-1,40
 410 441 410 441 375 441 c 0,41,42
 333 441 333 441 302 421.5 c 128,-1,43
 271 402 271 402 249 374.5 c 128,-1,44
 227 347 227 347 214.5 316.5 c 128,-1,45
 202 286 202 286 197 263 c 0,25,26
EndSplineSet
EndChar
StartChar: e
Encoding: 101 101 70
Width: 584
VWidth: 1494
Flags: W
HStem: 218 88<218 502> 444 84<316.715 463.809>
VStem: 103 494.5<274.533 304.844 259 315 259 259>
Fore
592 269 m 1,0,1
 584 241 584 241 568 229.5 c 128,-1,2
 552 218 552 218 522 218 c 2,3,-1
 197 218 l 1,4,5
 191 166 191 166 213 132.5 c 128,-1,6
 235 99 235 99 266 85 c 0,7,8
 303 69 303 69 346.5 77 c 128,-1,9
 390 85 390 85 451 120 c 1,10,-1
 493 49 l 1,11,12
 469 31 469 31 432.5 16 c 128,-1,13
 396 1 396 1 354 -4.5 c 128,-1,14
 312 -10 312 -10 271 -7 c 128,-1,15
 230 -4 230 -4 197 13 c 0,16,17
 135 46 135 46 110 109.5 c 128,-1,18
 85 173 85 173 103 259 c 0,19,20
 112 299 112 299 136 346 c 128,-1,21
 160 393 160 393 198 433.5 c 128,-1,22
 236 474 236 474 290 501 c 128,-1,23
 344 528 344 528 413 528 c 0,24,25
 510 528 510 528 558 469 c 0,26,27
 575 447 575 447 585 420 c 128,-1,28
 595 393 595 393 597 366 c 128,-1,29
 599 339 599 339 597.5 315 c 128,-1,30
 596 291 596 291 592 274 c 1,31,-1
 592 269 l 1,0,1
502 306 m 1,32,33
 514 362 514 362 483.5 403 c 128,-1,34
 453 444 453 444 392 444 c 0,35,36
 353 444 353 444 323.5 430 c 128,-1,37
 294 416 294 416 273.5 394 c 128,-1,38
 253 372 253 372 238.5 348 c 128,-1,39
 224 324 224 324 218 306 c 1,40,-1
 502 306 l 1,32,33
EndSplineSet
EndChar
StartChar: f
Encoding: 102 102 71
Width: 334
VWidth: 1494
Flags: W
HStem: 445 77<144 203 311 402> 638 80<417.924 478.21>
VStem: 19 473<-138 718 -138 -47>
Fore
460 638 m 1,0,1
 404 656 404 656 369.5 646.5 c 128,-1,2
 335 637 335 637 320 570 c 0,3,4
 317 558 317 558 316 554 c 0,5,-1
 312 535 l 256,6,7
 311 528 311 528 311 522 c 1,8,-1
 435 522 l 1,9,-1
 402 445 l 1,10,-1
 294 445 l 1,11,12
 291 429 291 429 281 380 c 0,13,14
 272 336 272 336 253.5 252.5 c 128,-1,15
 235 169 235 169 205 22 c 0,16,17
 196 -16 196 -16 181 -48.5 c 128,-1,18
 166 -81 166 -81 149.5 -105 c 128,-1,19
 133 -129 133 -129 119.5 -143.5 c 128,-1,20
 106 -158 106 -158 102 -163 c 1,21,-1
 19 -138 l 1,22,23
 61 -99 61 -99 83 -60 c 128,-1,24
 105 -21 105 -21 112 21 c 0,25,26
 144 169 144 169 161.5 252.5 c 128,-1,27
 179 336 179 336 188 380 c 0,28,29
 199 429 199 429 203 445 c 1,30,-1
 111 445 l 1,31,-1
 144 522 l 1,32,-1
 220 522 l 1,33,-1
 233 589 l 2,34,35
 245 644 245 644 272 675.5 c 128,-1,36
 299 707 299 707 334 720.5 c 128,-1,37
 369 734 369 734 410 731.5 c 128,-1,38
 451 729 451 729 492 718 c 1,39,-1
 460 638 l 1,0,1
EndSplineSet
EndChar
StartChar: g
Encoding: 103 103 72
Width: 602
VWidth: 1494
Flags: W
HStem: -199 82<176 218.706 218.706 228.469 228.469 268 277 341.41> -10 89<233.764 366.265> 439 90<299.146 436.128>
VStem: 98 90.5<142.845 163 163 241.66>
Fore
604 389 m 2,0,-1
 529 30 l 2,1,2
 501 -93 501 -93 405 -155 c 0,3,4
 342 -196 342 -196 268 -205 c 128,-1,5
 194 -214 194 -214 127 -199 c 1,6,-1
 176 -117 l 1,7,8
 233 -129 233 -129 277 -121.5 c 128,-1,9
 321 -114 321 -114 356 -91 c 0,10,11
 422 -46 422 -46 438 46 c 1,12,13
 368 -10 368 -10 278 -10 c 0,14,15
 218 -10 218 -10 180 13.5 c 128,-1,16
 142 37 142 37 122 76 c 128,-1,17
 102 115 102 115 98 163 c 128,-1,18
 94 211 94 211 105 260 c 0,19,20
 115 308 115 308 139 356.5 c 128,-1,21
 163 405 163 405 199.5 443 c 128,-1,22
 236 481 236 481 284.5 505 c 128,-1,23
 333 529 333 529 393 529 c 0,24,25
 484 529 484 529 529 471 c 1,26,27
 537 487 537 487 546.5 500 c 128,-1,28
 556 513 556 513 570 532 c 1,29,-1
 653 502 l 1,30,31
 637 477 637 477 625 455 c 128,-1,32
 613 433 613 433 604 389 c 2,0,-1
487 284 m 0,33,34
 490 312 490 312 485 340.5 c 128,-1,35
 480 369 480 369 466.5 391 c 128,-1,36
 453 413 453 413 430 426 c 128,-1,37
 407 439 407 439 374 439 c 0,38,39
 332 439 332 439 300.5 420 c 128,-1,40
 269 401 269 401 246.5 373 c 128,-1,41
 224 345 224 345 210.5 314 c 128,-1,42
 197 283 197 283 193 260 c 0,43,44
 187 233 187 233 188.5 201 c 128,-1,45
 190 169 190 169 201 142 c 128,-1,46
 212 115 212 115 235.5 97 c 128,-1,47
 259 79 259 79 297 79 c 0,48,49
 332 79 332 79 360.5 93.5 c 128,-1,50
 389 108 389 108 411 129.5 c 128,-1,51
 433 151 433 151 449 178 c 128,-1,52
 465 205 465 205 474 232 c 2,53,-1
 475 239 l 2,54,55
 477 245 477 245 480 255 c 128,-1,56
 483 265 483 265 487 284 c 0,33,34
EndSplineSet
EndChar
StartChar: h
Encoding: 104 104 73
Width: 602
VWidth: 1494
Flags: W
HStem: -18 21<88 183.218 444 507> 447 81<349.743 449.785>
VStem: 88 496.5<0 407.5 503.877 597.993>
Fore
447 -18 m 1,0,1
 441 1 441 1 437 27.5 c 128,-1,2
 433 54 433 54 444 100 c 2,3,-1
 492 329 l 2,4,5
 499 362 499 362 492.5 384.5 c 128,-1,6
 486 407 486 407 472.5 421 c 128,-1,7
 459 435 459 435 440.5 441 c 128,-1,8
 422 447 422 447 405 447 c 0,9,10
 374 447 374 447 347 433.5 c 128,-1,11
 320 420 320 420 298.5 398.5 c 128,-1,12
 277 377 277 377 262 350 c 128,-1,13
 247 323 247 323 241 294 c 2,14,-1
 179 0 l 1,15,-1
 88 0 l 1,16,-1
 242 731 l 1,17,-1
 335 731 l 1,18,19
 318 655 318 655 307.5 606.5 c 128,-1,20
 297 558 297 558 291 528 c 0,21,22
 284 493 284 493 281 474 c 1,23,24
 314 499 314 499 350.5 513.5 c 128,-1,25
 387 528 387 528 426 528 c 0,26,27
 468 528 468 528 501.5 513 c 128,-1,28
 535 498 535 498 556 471 c 128,-1,29
 577 444 577 444 584.5 407.5 c 128,-1,30
 592 371 592 371 583 329 c 2,31,-1
 535 100 l 2,32,33
 534 94 534 94 531.5 84.5 c 128,-1,34
 529 75 529 75 528.5 63.5 c 128,-1,35
 528 52 528 52 530 38.5 c 128,-1,36
 532 25 532 25 540 13 c 1,37,-1
 447 -18 l 1,0,1
EndSplineSet
EndChar
StartChar: i
Encoding: 105 105 74
Width: 289
VWidth: 1494
Flags: W
HStem: 0 21G<100 194.215> 590 123<247.204 315.312>
VStem: 218 126<631.867 699.6>
Fore
344 652 m 256,0,1
 338 626 338 626 316 608 c 128,-1,2
 294 590 294 590 269 590 c 256,3,4
 244 590 244 590 228 608 c 128,-1,5
 212 626 212 626 218 652 c 256,6,7
 224 677 224 677 246.5 695 c 128,-1,8
 269 713 269 713 296 713 c 0,9,10
 321 713 321 713 335.5 695 c 128,-1,11
 350 677 350 677 344 652 c 256,0,1
100 0 m 1,12,-1
 211 522 l 1,13,-1
 300 522 l 1,14,-1
 190 0 l 1,15,-1
 100 0 l 1,12,-1
EndSplineSet
EndChar
StartChar: j
Encoding: 106 106 75
Width: 289
VWidth: 1494
Flags: W
HStem: -212 79<-87.046 -16.7314> 592 123<246.204 313.827>
VStem: 217 125<633.725 701.575>
Fore
342 653 m 256,0,1
 336 628 336 628 314.5 610 c 128,-1,2
 293 592 293 592 268 592 c 256,3,4
 242 592 242 592 227 610 c 128,-1,5
 212 628 212 628 217 653 c 0,6,7
 223 679 223 679 245.5 697 c 128,-1,8
 268 715 268 715 293 715 c 0,9,10
 320 715 320 715 334 697 c 128,-1,11
 348 679 348 679 342 653 c 256,0,1
190 3 m 2,12,13
 179 -46 179 -46 163.5 -83.5 c 128,-1,14
 148 -121 148 -121 119 -147 c 128,-1,15
 90 -173 90 -173 42 -189 c 128,-1,16
 -6 -205 -6 -205 -82 -212 c 1,17,-1
 -102 -133 l 1,18,19
 -39 -129 -39 -129 -2.5 -121.5 c 128,-1,20
 34 -114 34 -114 54.5 -99 c 128,-1,21
 75 -84 75 -84 83 -61.5 c 128,-1,22
 91 -39 91 -39 99 -3 c 0,23,24
 100 6 100 6 114 64 c 0,25,26
 118 88 118 88 126.5 126 c 128,-1,27
 135 164 135 164 146.5 219.5 c 128,-1,28
 158 275 158 275 174 350 c 128,-1,29
 190 425 190 425 211 522 c 1,30,-1
 300 522 l 1,31,-1
 190 3 l 2,12,13
EndSplineSet
EndChar
StartChar: k
Encoding: 107 107 76
Width: 505
VWidth: 1494
Flags: W
HStem: -16 21<78 177 387 479.759> 514 20G<461 546.879>
Fore
417 -16 m 1,0,1
 357 60 357 60 319 109 c 128,-1,2
 281 158 281 158 260 188 c 0,3,4
 233 223 233 223 221 242 c 1,5,6
 215 220 215 220 209 185 c 0,7,8
 202 155 202 155 193 110.5 c 128,-1,9
 184 66 184 66 170 0 c 1,10,-1
 78 0 l 1,11,-1
 232 731 l 1,12,-1
 324 731 l 1,13,14
 299 614 299 614 284 541 c 128,-1,15
 269 468 269 468 260 426 c 0,16,17
 250 377 250 377 245 353 c 1,18,19
 263 366 263 366 297 392 c 0,20,21
 327 413 327 413 375 447 c 128,-1,22
 423 481 423 481 499 534 c 1,23,-1
 578 501 l 1,24,25
 481 432 481 432 424.5 392.5 c 128,-1,26
 368 353 368 353 338 332 c 0,27,28
 302 306 302 306 290 299 c 1,29,30
 297 288 297 288 324 254 c 0,31,32
 347 224 347 224 390 167.5 c 128,-1,33
 433 111 433 111 508 13 c 1,34,-1
 417 -16 l 1,0,1
EndSplineSet
EndChar
StartChar: l
Encoding: 108 108 77
Width: 291
VWidth: 1494
Flags: W
HStem: 0 21G<100 195.222>
VStem: 100 251<0 758 1.53064e-18 1.53064e-18>
Fore
100 0 m 1,0,-1
 253 723 l 1,1,-1
 299 758 l 1,2,-1
 351 758 l 1,3,-1
 191 0 l 1,4,-1
 100 0 l 1,0,-1
EndSplineSet
EndChar
StartChar: m
Encoding: 109 109 78
Width: 884
VWidth: 1494
Flags: W
HStem: -16 21<87 182.2 399 494.2 728 790.125> 444 84<326.86 448.415 642.579 766.957>
VStem: 722.5 97<18.5181 31.5 31.5 47.6962 47.6962 78.7466>
Fore
169 389 m 2,0,1
 178 433 178 433 177 455 c 128,-1,2
 176 477 176 477 170 502 c 1,3,-1
 263 532 l 1,4,5
 271 513 271 513 272.5 501.5 c 128,-1,6
 274 490 274 490 274 474 c 1,7,8
 338 528 338 528 416 528 c 0,9,10
 463 528 463 528 498.5 507 c 128,-1,11
 534 486 534 486 550 450 c 1,12,13
 583 486 583 486 629.5 507 c 128,-1,14
 676 528 676 528 723 528 c 0,15,16
 776 528 776 528 808 509 c 128,-1,17
 840 490 840 490 855.5 460.5 c 128,-1,18
 871 431 871 431 872.5 395 c 128,-1,19
 874 359 874 359 867 323 c 2,20,-1
 821 103 l 2,21,22
 818 81 818 81 818 63 c 0,23,24
 818 46 818 46 819.5 32.5 c 128,-1,25
 821 19 821 19 825 16 c 1,26,-1
 732 -16 l 1,27,-1
 728 -1 l 2,28,29
 725 6 725 6 722.5 31.5 c 128,-1,30
 720 57 720 57 731 103 c 2,31,-1
 780 335 l 2,32,33
 792 387 792 387 772.5 415.5 c 128,-1,34
 753 444 753 444 706 444 c 0,35,36
 676 444 676 444 650.5 431.5 c 128,-1,37
 625 419 625 419 604.5 398.5 c 128,-1,38
 584 378 584 378 571.5 352.5 c 128,-1,39
 559 327 559 327 553 300 c 2,40,-1
 490 0 l 1,41,-1
 399 0 l 1,42,-1
 469 335 l 2,43,44
 480 384 480 384 456.5 414 c 128,-1,45
 433 444 433 444 384 444 c 0,46,47
 353 444 353 444 329 431.5 c 128,-1,48
 305 419 305 419 287 398 c 128,-1,49
 269 377 269 377 258 351.5 c 128,-1,50
 247 326 247 326 241 300 c 2,51,-1
 178 0 l 1,52,-1
 87 0 l 1,53,-1
 169 389 l 2,0,1
EndSplineSet
EndChar
StartChar: n
Encoding: 110 110 79
Width: 587
VWidth: 1494
Flags: W
HStem: -18 21<87 183.172 429 492.645> 442 87<340.501 458.975>
VStem: 87 487<0 394.5 0 20.7423> 423 96.5<20.9727 27.5 27.5 48.2423 48.2423 78.2188>
Fore
169 389 m 2,0,1
 178 433 178 433 177 455 c 128,-1,2
 176 477 176 477 170 502 c 1,3,-1
 263 532 l 1,4,5
 271 513 271 513 272.5 501 c 128,-1,6
 274 489 274 489 274 472 c 1,7,8
 303 498 303 498 342 513.5 c 128,-1,9
 381 529 381 529 422 529 c 0,10,11
 478 529 478 529 510.5 509 c 128,-1,12
 543 489 543 489 558 459 c 128,-1,13
 573 429 573 429 574 394.5 c 128,-1,14
 575 360 575 360 570 333 c 2,15,-1
 520 100 l 2,16,17
 519 96 519 96 518 85.5 c 128,-1,18
 517 75 517 75 517 61.5 c 128,-1,19
 517 48 517 48 519.5 35 c 128,-1,20
 522 22 522 22 526 13 c 1,21,-1
 432 -18 l 1,22,23
 426 1 426 1 423 27.5 c 128,-1,24
 420 54 420 54 431 100 c 2,25,-1
 480 335 l 2,26,27
 490 384 490 384 466 413 c 128,-1,28
 442 442 442 442 392 442 c 0,29,30
 362 442 362 442 337 430.5 c 128,-1,31
 312 419 312 419 293 398.5 c 128,-1,32
 274 378 274 378 261 353.5 c 128,-1,33
 248 329 248 329 242 302 c 2,34,-1
 179 0 l 1,35,-1
 87 0 l 1,36,-1
 169 389 l 2,0,1
EndSplineSet
EndChar
StartChar: o
Encoding: 111 111 80
Width: 574
VWidth: 1494
Flags: W
HStem: -6 82<239.659 365.834> 444 82<310.015 438.508>
VStem: 482 94.5<276.5 320.5 320.5 379.639>
Fore
570 260 m 0,0,1
 559 211 559 211 534.5 163 c 128,-1,2
 510 115 510 115 473 77.5 c 128,-1,3
 436 40 436 40 387.5 17 c 128,-1,4
 339 -6 339 -6 283 -6 c 0,5,6
 223 -6 223 -6 184 17 c 128,-1,7
 145 40 145 40 124 78.5 c 128,-1,8
 103 117 103 117 99.5 164.5 c 128,-1,9
 96 212 96 212 106 260 c 256,10,11
 117 308 117 308 140.5 356 c 128,-1,12
 164 404 164 404 201 442 c 128,-1,13
 238 480 238 480 286.5 503 c 128,-1,14
 335 526 335 526 395 526 c 256,15,16
 454 526 454 526 493 503 c 128,-1,17
 532 480 532 480 552.5 442 c 128,-1,18
 573 404 573 404 576.5 356 c 128,-1,19
 580 308 580 308 570 260 c 0,0,1
477 260 m 0,20,21
 483 288 483 288 482 320.5 c 128,-1,22
 481 353 481 353 470 380.5 c 128,-1,23
 459 408 459 408 436.5 426 c 128,-1,24
 414 444 414 444 378 444 c 0,25,26
 344 444 344 444 314 427.5 c 128,-1,27
 284 411 284 411 261 385 c 128,-1,28
 238 359 238 359 221.5 326 c 128,-1,29
 205 293 205 293 197 260 c 256,30,31
 190 227 190 227 192 194 c 128,-1,32
 194 161 194 161 207 135 c 128,-1,33
 220 109 220 109 242.5 92.5 c 128,-1,34
 265 76 265 76 299 76 c 0,35,36
 332 76 332 76 362 92.5 c 128,-1,37
 392 109 392 109 415 135 c 128,-1,38
 438 161 438 161 453.5 194 c 128,-1,39
 469 227 469 227 477 260 c 0,20,21
EndSplineSet
EndChar
StartChar: p
Encoding: 112 112 81
Width: 602
VWidth: 1494
Flags: W
HStem: -221 21G<53.6129 109.5> -9 88<278.991 412.588> 441 88<345.675 480.538>
VStem: 524 92.5<276.814 376.64>
Fore
519 260 m 256,0,1
 525 287 525 287 524 318.5 c 128,-1,2
 523 350 523 350 512.5 377.5 c 128,-1,3
 502 405 502 405 479 423 c 128,-1,4
 456 441 456 441 417 441 c 0,5,6
 381 441 381 441 352 427 c 128,-1,7
 323 413 323 413 300.5 390.5 c 128,-1,8
 278 368 278 368 263 340 c 128,-1,9
 248 312 248 312 239 286 c 0,10,11
 235 266 235 266 233.5 256.5 c 128,-1,12
 232 247 232 247 230 241 c 2,13,-1
 229 233 l 2,14,15
 226 206 226 206 230.5 179 c 128,-1,16
 235 152 235 152 247.5 130 c 128,-1,17
 260 108 260 108 283 93.5 c 128,-1,18
 306 79 306 79 341 79 c 0,19,20
 380 79 380 79 410.5 97 c 128,-1,21
 441 115 441 115 463.5 142 c 128,-1,22
 486 169 486 169 499.5 201 c 128,-1,23
 513 233 513 233 519 260 c 256,0,1
274 469 m 1,24,25
 347 529 347 529 436 529 c 0,26,27
 496 529 496 529 534.5 505 c 128,-1,28
 573 481 573 481 593 443 c 128,-1,29
 613 405 613 405 616.5 357 c 128,-1,30
 620 309 620 309 610 260 c 256,31,32
 599 211 599 211 575.5 163 c 128,-1,33
 552 115 552 115 515 77 c 128,-1,34
 478 39 478 39 429.5 15 c 128,-1,35
 381 -9 381 -9 321 -9 c 0,36,37
 232 -9 232 -9 185 45 c 1,38,39
 182 28 182 28 176 6 c 0,40,41
 172 -13 172 -13 166.5 -41 c 128,-1,42
 161 -69 161 -69 154 -103 c 0,43,44
 144 -148 144 -148 130.5 -175 c 128,-1,45
 117 -202 117 -202 102 -221 c 1,46,-1
 27 -190 l 1,47,48
 28 -188 28 -188 32.5 -178.5 c 128,-1,49
 37 -169 37 -169 43 -155.5 c 128,-1,50
 49 -142 49 -142 54.5 -128.5 c 128,-1,51
 60 -115 60 -115 63 -103 c 2,52,-1
 167 389 l 2,53,54
 176 433 176 433 174 455 c 128,-1,55
 172 477 172 477 166 502 c 1,56,-1
 262 532 l 1,57,58
 269 513 269 513 271.5 499.5 c 128,-1,59
 274 486 274 486 274 469 c 1,24,25
EndSplineSet
EndChar
StartChar: q
Encoding: 113 113 82
Width: 602
VWidth: 1494
Flags: W
HStem: -221 21G<404 468.29> -9 88<232.418 364.361> 441 88<299.388 434.671>
VStem: 95 91.5<142.845 163 163 241.66> 398 94<-174.321 -120.539>
Fore
528 471 m 1,0,1
 535 487 535 487 544 500 c 128,-1,2
 553 513 553 513 567 532 c 1,3,-1
 650 502 l 1,4,5
 634 477 634 477 622 455 c 128,-1,6
 610 433 610 433 601 389 c 1,7,8
 601 390 601 390 590 341 c 0,9,10
 586 320 586 320 578.5 285 c 128,-1,11
 571 250 571 250 560 197 c 128,-1,12
 549 144 549 144 533 70 c 128,-1,13
 517 -4 517 -4 496 -103 c 0,14,15
 492 -124 492 -124 492 -148.5 c 128,-1,16
 492 -173 492 -173 502 -190 c 1,17,-1
 407 -221 l 1,18,19
 401 -202 401 -202 398 -175 c 128,-1,20
 395 -148 395 -148 405 -103 c 0,21,22
 413 -69 413 -69 418 -41 c 128,-1,23
 423 -13 423 -13 428 6 c 0,24,25
 433 28 433 28 436 45 c 1,26,27
 366 -9 366 -9 277 -9 c 0,28,29
 217 -9 217 -9 178 15 c 128,-1,30
 139 39 139 39 119 77 c 128,-1,31
 99 115 99 115 95 163 c 128,-1,32
 91 211 91 211 102 260 c 256,33,34
 112 309 112 309 136 357 c 128,-1,35
 160 405 160 405 197.5 443 c 128,-1,36
 235 481 235 481 283.5 505 c 128,-1,37
 332 529 332 529 392 529 c 0,38,39
 483 529 483 529 528 471 c 1,0,1
484 284 m 0,40,41
 487 311 487 311 483.5 338.5 c 128,-1,42
 480 366 480 366 466.5 389.5 c 128,-1,43
 453 413 453 413 430.5 427 c 128,-1,44
 408 441 408 441 372 441 c 0,45,46
 333 441 333 441 302 423 c 128,-1,47
 271 405 271 405 248.5 377.5 c 128,-1,48
 226 350 226 350 211.5 318.5 c 128,-1,49
 197 287 197 287 191 260 c 256,50,51
 185 233 185 233 186.5 201 c 128,-1,52
 188 169 188 169 199.5 142 c 128,-1,53
 211 115 211 115 234 97 c 128,-1,54
 257 79 257 79 296 79 c 0,55,56
 330 79 330 79 358.5 93.5 c 128,-1,57
 387 108 387 108 409.5 130 c 128,-1,58
 432 152 432 152 448.5 179 c 128,-1,59
 465 206 465 206 474 233 c 2,60,-1
 475 241 l 2,61,62
 477 245 477 245 478.5 255.5 c 128,-1,63
 480 266 480 266 484 284 c 0,40,41
EndSplineSet
EndChar
StartChar: r
Encoding: 114 114 83
Width: 396
VWidth: 1494
Flags: W
HStem: 0 21G<91 188.236> 512 20G<206 271.5>
VStem: 91 429<0 504 -20.5129 0>
Fore
173 389 m 2,0,1
 182 433 182 433 181.5 455 c 128,-1,2
 181 477 181 477 175 502 c 1,3,-1
 268 532 l 1,4,5
 275 513 275 513 275 502.5 c 128,-1,6
 275 492 275 492 275 475 c 1,7,8
 333 529 333 529 393.5 536 c 128,-1,9
 454 543 454 543 520 504 c 1,10,-1
 444 419 l 1,11,12
 414 442 414 442 382.5 441.5 c 128,-1,13
 351 441 351 441 323.5 421.5 c 128,-1,14
 296 402 296 402 275 367.5 c 128,-1,15
 254 333 254 333 245 288 c 2,16,-1
 184 0 l 1,17,-1
 91 0 l 1,18,-1
 173 389 l 2,0,1
EndSplineSet
EndChar
StartChar: s
Encoding: 115 115 84
Width: 503
VWidth: 1494
Flags: W
HStem: -9 81<229.446 357.964> 450 84<286.292 430.405>
VStem: 55 483<70 478 70 70>
Fore
493 145 m 0,0,1
 478 73 478 73 415.5 33 c 128,-1,2
 353 -7 353 -7 256 -9 c 0,3,4
 217 -9 217 -9 188.5 -4 c 128,-1,5
 160 1 160 1 136 12.5 c 128,-1,6
 112 24 112 24 92.5 38 c 128,-1,7
 73 52 73 52 55 70 c 1,8,-1
 136 135 l 1,9,10
 167 100 167 100 200 85 c 128,-1,11
 233 70 233 70 275 72 c 0,12,13
 326 73 326 73 359 89.5 c 128,-1,14
 392 106 392 106 399 135 c 0,15,16
 402 149 402 149 400 160.5 c 128,-1,17
 398 172 398 172 386 181.5 c 128,-1,18
 374 191 374 191 350 201.5 c 128,-1,19
 326 212 326 212 287 227 c 0,20,21
 130 283 130 283 151 380 c 0,22,23
 157 408 157 408 175 435.5 c 128,-1,24
 193 463 193 463 221.5 485 c 128,-1,25
 250 507 250 507 288 520.5 c 128,-1,26
 326 534 326 534 372 534 c 0,27,28
 411 534 411 534 459.5 517.5 c 128,-1,29
 508 501 508 501 538 478 c 1,30,-1
 480 401 l 1,31,32
 459 417 459 417 426 433.5 c 128,-1,33
 393 450 393 450 353 450 c 0,34,35
 311 450 311 450 282.5 433 c 128,-1,36
 254 416 254 416 248 387 c 0,37,38
 241 359 241 359 266 341.5 c 128,-1,39
 291 324 291 324 351 303 c 0,40,41
 386 290 386 290 415 276 c 128,-1,42
 444 262 444 262 464 244 c 128,-1,43
 484 226 484 226 492.5 202 c 128,-1,44
 501 178 501 178 493 145 c 0,0,1
EndSplineSet
EndChar
StartChar: t
Encoding: 116 116 85
Width: 352
VWidth: 1494
Flags: W
HStem: -12 21G<211.5 335> 445 77<142 200 308 389 105 428 307.951 348.202>
Fore
236 -12 m 1,0,1
 187 -12 187 -12 163 3.5 c 128,-1,2
 139 19 139 19 131.5 42.5 c 128,-1,3
 124 66 124 66 128 93.5 c 128,-1,4
 132 121 132 121 136 145 c 0,5,6
 157 247 157 247 169.5 306 c 128,-1,7
 182 365 182 365 190 396 c 0,8,9
 197 433 197 433 200 445 c 1,10,-1
 105 445 l 1,11,-1
 142 522 l 1,12,-1
 217 522 l 1,13,14
 218 532 218 532 223 549 c 0,15,16
 226 564 226 564 230.5 586 c 128,-1,17
 235 608 235 608 242 641 c 1,18,-1
 296 676 l 1,19,-1
 341 676 l 1,20,21
 330 631 330 631 324 601 c 128,-1,22
 318 571 318 571 315 553 c 0,23,24
 311 532 311 532 308 522 c 1,25,-1
 428 522 l 1,26,-1
 389 445 l 1,27,-1
 291 445 l 1,28,29
 287 432 287 432 280 393 c 0,30,31
 272 359 272 359 258.5 296 c 128,-1,32
 245 233 245 233 223 124 c 0,33,34
 217 97 217 97 223.5 85 c 128,-1,35
 230 73 230 73 245 71 c 128,-1,36
 260 69 260 69 281 74 c 128,-1,37
 302 79 302 79 324 87 c 1,38,-1
 335 4 l 1,39,-1
 236 -12 l 1,0,1
EndSplineSet
EndChar
StartChar: u
Encoding: 117 117 86
Width: 597
VWidth: 1494
Flags: W
HStem: -12 81<240.923 330.945>
VStem: 123.5 499.5<124.5 522 145.648 181.202>
Fore
448 -21 m 1,0,1
 441 -1 441 -1 438 11.5 c 128,-1,2
 435 24 435 24 435 40 c 1,3,4
 401 10 401 10 359 -1 c 128,-1,5
 317 -12 317 -12 283 -12 c 0,6,7
 224 -12 224 -12 190.5 9 c 128,-1,8
 157 30 157 30 141.5 60.5 c 128,-1,9
 126 91 126 91 123.5 124.5 c 128,-1,10
 121 158 121 158 127 184 c 2,11,-1
 199 522 l 1,12,-1
 290 522 l 1,13,-1
 217 182 l 2,14,15
 206 132 206 132 231.5 100.5 c 128,-1,16
 257 69 257 69 309 69 c 0,17,18
 338 69 338 69 364 81.5 c 128,-1,19
 390 94 390 94 411 115 c 128,-1,20
 432 136 432 136 446 162 c 128,-1,21
 460 188 460 188 466 215 c 2,22,-1
 532 522 l 1,23,-1
 623 522 l 1,24,-1
 538 123 l 2,25,26
 528 78 528 78 531 56 c 128,-1,27
 534 34 534 34 540 9 c 1,28,-1
 448 -21 l 1,0,1
EndSplineSet
EndChar
StartChar: v
Encoding: 118 118 87
Width: 529
VWidth: 1494
Flags: W
HStem: 517 20G<157.931 223.766 519.98 582.625>
VStem: 130 483<508 508 508 508>
Fore
220 537 m 1,0,-1
 294 144 l 1,1,-1
 532 540 l 1,2,-1
 613 508 l 1,3,-1
 457 257 l 2,4,5
 428 209 428 209 400 164.5 c 128,-1,6
 372 120 372 120 349.5 84.5 c 128,-1,7
 327 49 327 49 315 28 c 128,-1,8
 303 7 303 7 302 6 c 2,9,10
 294 -9 294 -9 278 -12.5 c 128,-1,11
 262 -16 262 -16 245.5 -11.5 c 128,-1,12
 229 -7 229 -7 218.5 4 c 128,-1,13
 208 15 208 15 215 28 c 1,14,-1
 220 40 l 1,15,-1
 130 508 l 1,16,-1
 220 537 l 1,0,-1
EndSplineSet
EndChar
StartChar: w
Encoding: 119 119 88
Width: 798
VWidth: 1494
Flags: W
HStem: 520 20G<147.593 217.005 798.592 860.333>
Fore
592 123 m 1,0,-1
 809 540 l 1,1,-1
 886 510 l 1,2,-1
 623 37 l 1,3,-1
 623 25 l 2,4,5
 623 10 623 10 608 -1 c 128,-1,6
 593 -12 593 -12 574.5 -16.5 c 128,-1,7
 556 -21 556 -21 540.5 -17 c 128,-1,8
 525 -13 525 -13 523 1 c 2,9,-1
 475 390 l 1,10,11
 417 281 417 281 372 196 c 0,12,13
 353 160 353 160 335 125 c 128,-1,14
 317 90 317 90 302 62 c 128,-1,15
 287 34 287 34 279 18.5 c 128,-1,16
 271 3 271 3 271 1 c 1,17,18
 263 -13 263 -13 245 -17 c 128,-1,19
 227 -21 227 -21 210.5 -16.5 c 128,-1,20
 194 -12 194 -12 183.5 -1 c 128,-1,21
 173 10 173 10 179 25 c 2,22,-1
 185 37 l 1,23,-1
 124 513 l 1,24,-1
 215 540 l 1,25,-1
 257 121 l 1,26,-1
 462 520 l 1,27,28
 466 534 466 534 482.5 537.5 c 128,-1,29
 499 541 499 541 516.5 536.5 c 128,-1,30
 534 532 534 532 545 522.5 c 128,-1,31
 556 513 556 513 552 499 c 1,32,33
 553 499 553 499 553 498 c 0,34,35
 553 493 553 493 546 483 c 1,36,-1
 592 123 l 1,0,-1
EndSplineSet
EndChar
StartChar: x
Encoding: 120 120 89
Width: 536
VWidth: 1494
Flags: W
HStem: -15 21G<75.3846 120 409.5 461.222> 524 20G<183.306 237.5 515 575.122>
Fore
613 495 m 1,0,1
 531 414 531 414 484.5 367 c 128,-1,2
 438 320 438 320 414 296 c 0,3,4
 387 269 387 269 377 260 c 1,5,6
 383 253 383 253 399 226 c 0,7,8
 414 203 414 203 441 159 c 128,-1,9
 468 115 468 115 516 39 c 1,10,-1
 429 -15 l 1,11,12
 390 52 390 52 367 92.5 c 128,-1,13
 344 133 344 133 330 155 c 2,14,-1
 308 193 l 1,15,-1
 100 -15 l 1,16,-1
 36 37 l 1,17,18
 115 114 115 114 160.5 158 c 128,-1,19
 206 202 206 202 230 224 c 0,20,21
 257 251 257 251 266 260 c 1,22,23
 262 269 262 269 245 296 c 0,24,25
 232 320 232 320 205.5 367 c 128,-1,26
 179 414 179 414 133 495 c 1,27,-1
 218 544 l 1,28,29
 257 474 257 474 280 432 c 128,-1,30
 303 390 303 390 315 366 c 0,31,32
 330 339 330 339 336 327 c 1,33,-1
 375 366 l 2,34,35
 398 390 398 390 439.5 432 c 128,-1,36
 481 474 481 474 549 544 c 1,37,-1
 613 495 l 1,0,1
EndSplineSet
EndChar
StartChar: y
Encoding: 121 121 90
Width: 559
VWidth: 1494
Flags: W
HStem: -226 21G<48.9231 73> 523 20G<180.947 244.5 522.5 598.949>
Fore
271 -87 m 2,0,1
 250 -118 250 -118 229 -138 c 128,-1,2
 208 -158 208 -158 182 -173 c 0,3,4
 152 -190 152 -190 123 -200.5 c 128,-1,5
 94 -211 94 -211 52 -226 c 1,6,-1
 40 -148 l 1,7,8
 87 -132 87 -132 115.5 -120 c 128,-1,9
 144 -108 144 -108 164 -90.5 c 128,-1,10
 184 -73 184 -73 201 -45.5 c 128,-1,11
 218 -18 218 -18 244 30 c 1,12,13
 241 40 241 40 229 94 c 0,14,15
 223 117 223 117 214.5 152 c 128,-1,16
 206 187 206 187 195 236.5 c 128,-1,17
 184 286 184 286 169 352.5 c 128,-1,18
 154 419 154 419 135 505 c 1,19,-1
 232 543 l 1,20,21
 257 416 257 416 274 338 c 128,-1,22
 291 260 291 260 300 217 c 0,23,24
 311 166 311 166 317 142 c 1,25,26
 330 167 330 167 362 218 c 0,27,28
 389 262 389 262 436.5 339.5 c 128,-1,29
 484 417 484 417 561 543 c 1,30,-1
 635 504 l 1,31,-1
 271 -87 l 2,0,1
EndSplineSet
EndChar
StartChar: z
Encoding: 122 122 91
Width: 517
VWidth: 1494
Flags: W
HStem: 0 82<205 475> 448 83<152 419>
Fore
419 448 m 1,0,-1
 135 448 l 1,1,-1
 152 531 l 1,2,-1
 529 531 l 1,3,4
 540 534 540 534 552 534 c 128,-1,5
 564 534 564 534 570 529 c 0,6,7
 581 520 581 520 579.5 500 c 128,-1,8
 578 480 578 480 574 468 c 0,9,10
 570 459 570 459 565.5 457.5 c 0,11,-1
 549 451.5 l 0,12,13
 537 447 537 447 528 443 c 128,-1,14
 519 439 519 439 511 431 c 2,15,-1
 205 82 l 1,16,-1
 492 82 l 1,17,-1
 475 0 l 1,18,-1
 96 0 l 1,19,20
 84 -3 84 -3 72.5 -3 c 128,-1,21
 61 -3 61 -3 55 1 c 0,22,23
 42 10 42 10 43.5 30.5 c 128,-1,24
 45 51 45 51 49 63 c 1,25,26
 55 72 55 72 62.5 75 c 128,-1,27
 70 78 70 78 79 81 c 128,-1,28
 88 84 88 84 97 87.5 c 128,-1,29
 106 91 106 91 114 100 c 2,30,-1
 419 448 l 1,0,-1
EndSplineSet
EndChar
StartChar: braceleft
Encoding: 123 123 92
Width: 306
VWidth: 1494
Flags: W
HStem: -154 52<182.3 211> 694 55<315.644 326 326 357.266 357.736 381>
VStem: 66 369<-70 749 -70 -38.7338>
Fore
135 -154 m 2,0,1
 96 -154 96 -154 77 -127 c 128,-1,2
 58 -100 58 -100 66 -70 c 2,3,-1
 129 232 l 2,4,5
 135 257 135 257 126.5 264 c 128,-1,6
 118 271 118 271 105 275 c 1,7,-1
 117 320 l 1,8,9
 138 327 138 327 146 340 c 128,-1,10
 154 353 154 353 157 365 c 2,11,-1
 221 665 l 2,12,13
 229 695 229 695 258 722 c 128,-1,14
 287 749 287 749 326 749 c 2,15,-1
 435 749 l 1,16,-1
 381 697 l 1,17,18
 365 695 365 695 357.5 694.5 c 128,-1,19
 350 694 350 694 345 694 c 2,20,-1
 339 694 l 1,21,22
 320 691 320 691 315.5 681 c 128,-1,23
 311 671 311 671 309 667 c 2,24,-1
 247 371 l 2,25,26
 244 351 244 351 228 331 c 128,-1,27
 212 311 212 311 196 297 c 1,28,29
 208 283 208 283 214 262.5 c 128,-1,30
 220 242 220 242 215 224 c 2,31,-1
 152 -72 l 2,32,33
 151 -76 151 -76 152.5 -85 c 128,-1,34
 154 -94 154 -94 170 -97 c 2,35,-1
 211 -102 l 1,36,-1
 244 -154 l 1,37,-1
 135 -154 l 2,0,1
EndSplineSet
EndChar
StartChar: bar
Encoding: 124 124 93
Width: 276
VWidth: 1494
Flags: W
HStem: -13 21G<91 183.238> 708 20G<243.762 336>
VStem: 91 245<-13 728 -13 -13>
Fore
91 -13 m 1,0,-1
 248 728 l 1,1,-1
 336 728 l 1,2,-1
 179 -13 l 1,3,-1
 91 -13 l 1,0,-1
EndSplineSet
EndChar
StartChar: braceright
Encoding: 125 125 94
Width: 309
VWidth: 1494
Flags: W
HStem: -154 57<61 80.2645 80.7333 119.356> 697 52<224 252.7>
VStem: 0 369<-154 665 -164.267 -125.644>
Fore
308 271 m 2,0,1
 303 269 303 269 293 263 c 128,-1,2
 283 257 283 257 277 232 c 2,3,-1
 214 -70 l 2,4,5
 206 -100 206 -100 177 -127 c 128,-1,6
 148 -154 148 -154 109 -154 c 2,7,-1
 0 -154 l 1,8,-1
 61 -100 l 1,9,10
 73 -99 73 -99 80.5 -98 c 128,-1,11
 88 -97 88 -97 91 -97 c 2,12,-1
 96 -97 l 1,13,14
 115 -94 115 -94 119.5 -85 c 128,-1,15
 124 -76 124 -76 126 -72 c 2,16,-1
 188 224 l 2,17,18
 193 242 193 242 207 262.5 c 128,-1,19
 221 283 221 283 239 297 c 1,20,21
 227 311 227 311 222 331 c 128,-1,22
 217 351 217 351 220 371 c 2,23,-1
 283 667 l 2,24,25
 284 671 284 671 282.5 680 c 128,-1,26
 281 689 281 689 265 692 c 2,27,-1
 224 697 l 1,28,-1
 191 749 l 1,29,-1
 300 749 l 2,30,31
 339 749 339 749 358 722 c 128,-1,32
 377 695 377 695 369 665 c 2,33,-1
 305 365 l 2,34,35
 302 353 302 353 306.5 340 c 128,-1,36
 311 327 311 327 330 320 c 1,37,-1
 321 275 l 1,38,-1
 308 271 l 2,0,1
EndSplineSet
EndChar
StartChar: asciitilde
Encoding: 126 126 95
Width: 659
VWidth: 1494
Flags: W
HStem: 244 107<255.243 324.797>
Fore
658 259 m 1,0,1
 614 211 614 211 562.5 187.5 c 128,-1,2
 511 164 511 164 463 167 c 0,3,4
 438 169 438 169 415 181 c 128,-1,5
 392 193 392 193 370 205.5 c 128,-1,6
 348 218 348 218 325.5 229.5 c 128,-1,7
 303 241 303 241 280 244 c 0,8,9
 248 247 248 247 218 230.5 c 128,-1,10
 188 214 188 214 151 173 c 1,11,-1
 124 268 l 1,12,13
 139 283 139 283 158.5 299 c 128,-1,14
 178 315 178 315 201 327 c 128,-1,15
 224 339 224 339 251 346.5 c 128,-1,16
 278 354 278 354 309 351 c 0,17,18
 332 350 332 350 356 338 c 128,-1,19
 380 326 380 326 404.5 312.5 c 128,-1,20
 429 299 429 299 453 287 c 128,-1,21
 477 275 477 275 498 274 c 0,22,23
 520 271 520 271 549 288 c 128,-1,24
 578 305 578 305 614 345 c 1,25,-1
 658 259 l 1,0,1
EndSplineSet
EndChar
StartChar: uni0E33.alt1
Encoding: 65539 -1 96
Width: 556
VWidth: 1494
Flags: W
HStem: 0 21G<380 485.267> 517 91<297.362 424.428> 712 68<-213.776 -130.233> 889 71<-198.565 -115.176>
Fore
-190 712 m 0,0,1
 -251 712 -251 712 -274 750.5 c 128,-1,2
 -297 789 -297 789 -287 835.5 c 128,-1,3
 -277 882 -277 882 -238 921 c 128,-1,4
 -199 960 -199 960 -138 960 c 0,5,6
 -97 960 -97 960 -73 941 c 128,-1,7
 -49 922 -49 922 -41.5 895 c 128,-1,8
 -34 868 -34 868 -41 835.5 c 128,-1,9
 -48 803 -48 803 -67.5 776 c 128,-1,10
 -87 749 -87 749 -118 730.5 c 128,-1,11
 -149 712 -149 712 -190 712 c 0,0,1
-176 780 m 256,12,13
 -149 780 -149 780 -132 797.5 c 128,-1,14
 -115 815 -115 815 -110.5 835 c 128,-1,15
 -106 855 -106 855 -116 872 c 128,-1,16
 -126 889 -126 889 -152 889 c 256,17,18
 -179 889 -179 889 -196.5 872 c 128,-1,19
 -214 855 -214 855 -218.5 835 c 128,-1,20
 -223 815 -223 815 -213 797.5 c 128,-1,21
 -203 780 -203 780 -176 780 c 256,12,13
481 0 m 1,22,-1
 380 0 l 1,23,-1
 465 407 l 2,24,25
 466 419 466 419 475 434.5 c 128,-1,26
 484 450 484 450 492 454 c 1,27,28
 474 477 474 477 445.5 498 c 128,-1,29
 417 519 417 519 363 517 c 0,30,31
 324 516 324 516 296.5 504 c 128,-1,32
 269 492 269 492 250.5 474 c 128,-1,33
 232 456 232 456 220 434.5 c 128,-1,34
 208 413 208 413 202 392 c 1,35,-1
 105 392 l 1,36,37
 135 487 135 487 205 546 c 128,-1,38
 275 605 275 605 384 608 c 0,39,40
 422 610 422 610 449.5 603 c 128,-1,41
 477 596 477 596 498 585 c 128,-1,42
 519 574 519 574 534 558.5 c 128,-1,43
 549 543 549 543 561 528 c 1,44,45
 568 531 568 531 580.5 526.5 c 128,-1,46
 593 522 593 522 605 504 c 0,47,48
 623 475 623 475 614 462.5 c 128,-1,49
 605 450 605 450 586 429 c 0,50,51
 575 419 575 419 570 407.5 c 128,-1,52
 565 396 565 396 561 375 c 2,53,-1
 481 0 l 1,22,-1
EndSplineSet
EndChar
StartChar: quotedbl
Encoding: 34 34 97
Width: 429
VWidth: 1494
Flags: W
HStem: 422 278<220 251 390 422 176 502 220 220>
Fore
422 422 m 1,0,-1
 347 422 l 1,1,-1
 390 700 l 1,2,-1
 502 700 l 1,3,-1
 422 422 l 1,0,-1
251 422 m 1,4,-1
 176 422 l 1,5,-1
 220 700 l 1,6,-1
 332 700 l 1,7,-1
 251 422 l 1,4,-1
EndSplineSet
EndChar
StartChar: exclam
Encoding: 33 33 98
Width: 384
VWidth: 1494
Flags: W
HStem: -10 131<166.751 237.765> 692 20G<279.354 401>
VStem: 136 132<33.0707 106.142> 182 83<172.886 230.766>
Fore
265 158 m 1,0,-1
 182 158 l 1,1,-1
 283 712 l 1,2,-1
 401 712 l 1,3,-1
 265 158 l 1,0,-1
268 55 m 256,4,5
 262 28 262 28 238.5 9 c 128,-1,6
 215 -10 215 -10 188 -10 c 256,7,8
 161 -10 161 -10 145.5 9 c 128,-1,9
 130 28 130 28 136 55 c 256,10,11
 142 82 142 82 166 101.5 c 128,-1,12
 190 121 190 121 217 121 c 256,13,14
 244 121 244 121 259 101.5 c 128,-1,15
 274 82 274 82 268 55 c 256,4,5
EndSplineSet
EndChar
StartChar: uni0E4E.alt1
Encoding: 65540 -1 99
Width: 0
VWidth: 1494
Flags: W
HStem: 1007 38<22.6513 54>
VStem: -308 404<773 1007 773 773>
Fore
96 1007 m 1,0,1
 31 1021 31 1021 -20.5 1008.5 c 128,-1,2
 -72 996 -72 996 -81.5 955.5 c 128,-1,3
 -91 915 -91 915 -40 891 c 1,4,-1
 -81 842 l 1,5,6
 -176 837 -176 837 -200 794 c 1,7,8
 -209 756 -209 756 -166.5 750 c 128,-1,9
 -124 744 -124 744 -100 756 c 1,10,-1
 -152 695 l 1,11,12
 -218 667 -218 667 -268 688.5 c 128,-1,13
 -318 710 -318 710 -308 773 c 0,14,15
 -280 870 -280 870 -149 885 c 1,16,17
 -187 918 -187 918 -169.5 965 c 128,-1,18
 -152 1012 -152 1012 -91.5 1036 c 128,-1,19
 -31 1060 -31 1060 54 1045 c 1,20,-1
 96 1007 l 1,0,1
EndSplineSet
EndChar
StartChar: exclamdown
Encoding: 161 161 100
Width: 376
VWidth: 1494
Flags: W
HStem: 383 131<250.75 321.28>
VStem: 87 264<-208 448 -208 -208> 220 131<426.462 499.142> 223 82<288.845 345>
Fore
205 -208 m 1,0,-1
 87 -208 l 1,1,-1
 223 345 l 1,2,-1
 305 345 l 1,3,-1
 205 -208 l 1,0,-1
351 448 m 256,4,5
 345 422 345 422 322 402.5 c 128,-1,6
 299 383 299 383 272 383 c 256,7,8
 245 383 245 383 229.5 402.5 c 128,-1,9
 214 422 214 422 220 448 c 256,10,11
 226 475 226 475 250 494.5 c 128,-1,12
 274 514 274 514 300 514 c 256,13,14
 327 514 327 514 342 494.5 c 128,-1,15
 357 475 357 475 351 448 c 256,4,5
EndSplineSet
EndChar
StartChar: cent
Encoding: 162 162 101
Width: 674
VWidth: 1494
Flags: W
HStem: 591 20G<415.5 451.759>
Fore
641 78 m 1,0,1
 628.5 67.5 l 2,2,3
 616 57 616 57 592 43.5 c 128,-1,4
 568 30 568 30 533.5 15.5 c 128,-1,5
 499 1 499 1 456 -6 c 0,6,7
 431 -10 431 -10 407 -10 c 1,8,-1
 393 -75 l 1,9,-1
 311 -75 l 1,10,-1
 324 -7 l 1,11,12
 308 -4 308 -4 294 -0.5 c 128,-1,13
 280 3 280 3 268 7 c 0,14,15
 241 18 241 18 210 40.5 c 128,-1,16
 179 63 179 63 157 103.5 c 128,-1,17
 135 144 135 144 127.5 205 c 128,-1,18
 120 266 120 266 138 354 c 0,19,20
 160 457 160 457 202.5 526 c 128,-1,21
 245 595 245 595 294.5 637 c 128,-1,22
 344 679 344 679 394 697.5 c 128,-1,23
 444 716 444 716 480 718 c 1,24,-1
 495 789 l 1,25,-1
 577 789 l 1,26,-1
 562 720 l 1,27,28
 614 718 614 718 659 700.5 c 128,-1,29
 704 683 704 683 738 644 c 1,30,-1
 731 632 l 2,31,32
 725 623 725 623 711.5 604.5 c 128,-1,33
 698 586 698 586 674 552 c 1,34,35
 655 573 655 573 632.5 584.5 c 128,-1,36
 610 596 610 596 589 604 c 0,37,38
 565 611 565 611 540 616 c 1,39,-1
 428 90 l 1,40,41
 454 91 454 91 483 99 c 0,42,43
 508 105 508 105 536.5 117.5 c 128,-1,44
 565 130 565 130 592 152 c 1,45,-1
 641 78 l 1,0,1
324 106 m 2,46,-1
 347 97 l 1,47,-1
 456 611 l 1,48,49
 375 595 375 595 319 526 c 128,-1,50
 263 457 263 457 242 354 c 0,51,52
 221 260 221 260 243.5 195 c 128,-1,53
 266 130 266 130 324 106 c 2,46,-1
EndSplineSet
EndChar
StartChar: sterling
Encoding: 163 163 102
Width: 674
VWidth: 1494
Flags: W
HStem: 0 96<226 586> 317 81<158 241 345 484> 633.5 91.5<458.874 569.969>
VStem: 236.5 94.5<435.678 512.005> 241 104<273.305 315 398.153 419.349>
Fore
629 574 m 1,0,1
 604 604 604 604 571 618 c 128,-1,2
 538 632 538 632 504.5 633.5 c 128,-1,3
 471 635 471 635 440.5 625.5 c 128,-1,4
 410 616 410 616 389 599 c 0,5,6
 353 573 353 573 341.5 538.5 c 128,-1,7
 330 504 330 504 331 472.5 c 128,-1,8
 332 441 332 441 338 420 c 128,-1,9
 344 399 344 399 344 398 c 1,10,-1
 529 398 l 1,11,-1
 484 317 l 1,12,-1
 345 317 l 1,13,14
 345 294 345 294 340.5 266.5 c 128,-1,15
 336 239 336 239 323.5 209 c 128,-1,16
 311 179 311 179 287 149.5 c 128,-1,17
 263 120 263 120 226 96 c 1,18,-1
 607 96 l 1,19,-1
 586 0 l 1,20,-1
 84 0 l 1,21,-1
 100 79 l 1,22,23
 172 127 172 127 207 183 c 128,-1,24
 242 239 242 239 241 315 c 1,25,-1
 117 315 l 1,26,-1
 158 396 l 1,27,-1
 247 396 l 1,28,29
 229 465 229 465 236.5 519 c 128,-1,30
 244 573 244 573 274 616 c 0,31,32
 312 674 312 674 375.5 699.5 c 128,-1,33
 439 725 439 725 504 725 c 0,34,35
 561 725 561 725 611 705.5 c 128,-1,36
 661 686 661 686 688 653 c 1,37,-1
 629 574 l 1,0,1
EndSplineSet
EndChar
StartChar: currency
Encoding: 164 164 103
Width: 726
VWidth: 1494
Flags: W
HStem: 146 95<354.891 439.438> 448 92<437.516 516.421>
VStem: 230.5 101.5<288.807 297 297 342.901>
Fore
640 354 m 0,0,1
 632 311 632 311 612.5 284 c 128,-1,2
 593 257 593 257 581 241 c 1,3,-1
 640 164 l 1,4,-1
 561 102 l 1,5,-1
 501 176 l 1,6,7
 480 166 480 166 456 155 c 128,-1,8
 432 144 432 144 392 146 c 0,9,10
 366 146 366 146 342 154.5 c 128,-1,11
 318 163 318 163 302 178 c 1,12,-1
 208 100 l 1,13,-1
 155 166 l 1,14,-1
 248 244 l 1,15,16
 232 268 232 268 230.5 297 c 128,-1,17
 229 326 229 326 236.5 354.5 c 128,-1,18
 244 383 244 383 259 407 c 128,-1,19
 274 431 274 431 290 444 c 1,20,-1
 227 519 l 1,21,-1
 309 586 l 1,22,-1
 369 510 l 1,23,24
 390 523 390 523 419 532 c 128,-1,25
 448 541 448 541 481 540 c 0,26,27
 546 537 546 537 575 513 c 1,28,-1
 670 589 l 1,29,-1
 722 522 l 1,30,-1
 628 444 l 1,31,32
 631 429 631 429 639 409 c 128,-1,33
 647 389 647 389 640 354 c 0,0,1
540 338 m 0,34,35
 550 378 550 378 527.5 413 c 128,-1,36
 505 448 505 448 457 448 c 0,37,38
 433 448 433 448 411.5 438.5 c 128,-1,39
 390 429 390 429 373 413.5 c 128,-1,40
 356 398 356 398 344.5 377.5 c 128,-1,41
 333 357 333 357 332 338 c 0,42,43
 324 294 324 294 349.5 267.5 c 128,-1,44
 375 241 375 241 414 241 c 0,45,46
 442 241 442 241 464.5 251.5 c 128,-1,47
 487 262 487 262 503 276 c 128,-1,48
 519 290 519 290 528 307 c 128,-1,49
 537 324 537 324 540 338 c 0,34,35
EndSplineSet
EndChar
StartChar: yen
Encoding: 165 165 104
Width: 618
VWidth: 1494
Flags: W
HStem: 0 21G<260 361.129> 155 62<145 293 401 544> 283 61<172 318 428 571>
Fore
741 697 m 1,0,-1
 428 344 l 1,1,-1
 583 344 l 1,2,-1
 571 283 l 1,3,-1
 416 283 l 1,4,-1
 401 217 l 1,5,-1
 556 217 l 1,6,-1
 544 155 l 1,7,-1
 389 155 l 1,8,-1
 357 0 l 1,9,-1
 260 0 l 1,10,-1
 293 155 l 1,11,-1
 133 155 l 1,12,-1
 145 217 l 1,13,-1
 305 217 l 1,14,-1
 318 283 l 1,15,-1
 160 283 l 1,16,-1
 172 344 l 1,17,-1
 332 344 l 1,18,-1
 170 697 l 1,19,-1
 251 743 l 1,20,-1
 398 428 l 1,21,-1
 679 743 l 1,22,-1
 741 697 l 1,0,-1
EndSplineSet
EndChar
StartChar: brokenbar
Encoding: 166 166 105
Width: 269
VWidth: 1494
Flags: W
HStem: 705 20G<240.726 333>
VStem: 51 282<-187 725 -168.629 186.24>
Fore
256 360 m 1,0,-1
 167 360 l 1,1,-1
 245 725 l 1,2,-1
 333 725 l 1,3,-1
 256 360 l 1,0,-1
129 178 m 1,4,-1
 217 178 l 1,5,-1
 139 -187 l 1,6,-1
 51 -187 l 1,7,-1
 129 178 l 1,4,-1
EndSplineSet
EndChar
StartChar: section
Encoding: 167 167 106
Width: 683
VWidth: 1494
Flags: W
HStem: 697 104<456.937 608.903>
Fore
643 643 m 1,0,1
 632 667 632 667 604.5 682 c 128,-1,2
 577 697 577 697 522 697 c 0,3,4
 490 697 490 697 462.5 682.5 c 128,-1,5
 435 668 435 668 419.5 648 c 128,-1,6
 404 628 404 628 401.5 603 c 128,-1,7
 399 578 399 578 417 559 c 0,8,9
 423 552 423 552 444 538.5 c 128,-1,10
 465 525 465 525 490.5 509 c 128,-1,11
 516 493 516 493 542 477.5 c 128,-1,12
 568 462 568 462 587 448 c 0,13,14
 626 423 626 423 648 397.5 c 128,-1,15
 670 372 670 372 667 321 c 0,16,17
 664 291 664 291 652 262 c 128,-1,18
 640 233 640 233 617 209 c 0,19,20
 599 188 599 188 580 174 c 128,-1,21
 561 160 561 160 544 148 c 1,22,23
 540 149 540 149 542 143.5 c 128,-1,24
 544 138 544 138 548.5 126.5 c 128,-1,25
 553 115 553 115 557 100 c 128,-1,26
 561 85 561 85 559 67 c 0,27,28
 555 22 555 22 533 -13 c 128,-1,29
 511 -48 511 -48 478 -73.5 c 128,-1,30
 445 -99 445 -99 403.5 -113 c 128,-1,31
 362 -127 362 -127 317 -129 c 0,32,33
 280 -130 280 -130 251.5 -127 c 128,-1,34
 223 -124 223 -124 199 -113.5 c 128,-1,35
 175 -103 175 -103 153.5 -86 c 128,-1,36
 132 -69 132 -69 108 -42 c 1,37,-1
 197 27 l 1,38,39
 211 1 211 1 237 -12 c 128,-1,40
 263 -25 263 -25 292 -29.5 c 128,-1,41
 321 -34 321 -34 349.5 -29 c 128,-1,42
 378 -24 378 -24 398 -10 c 0,43,44
 416 3 416 3 427.5 20 c 128,-1,45
 439 37 439 37 442 55 c 128,-1,46
 445 73 445 73 439 89 c 128,-1,47
 433 105 433 105 414 114 c 1,48,49
 410 114 410 114 389 127 c 0,50,51
 371 139 371 139 332 165 c 128,-1,52
 293 191 293 191 221 241 c 0,53,54
 182 268 182 268 169.5 305 c 128,-1,55
 157 342 157 342 167 390 c 0,56,57
 176 435 176 435 206 472.5 c 128,-1,58
 236 510 236 510 283 537 c 1,59,60
 262 575 262 575 270 623 c 128,-1,61
 278 671 278 671 314 715 c 0,62,63
 350 756 350 756 405 778.5 c 128,-1,64
 460 801 460 801 520 801 c 0,65,66
 601 801 601 801 649.5 779.5 c 128,-1,67
 698 758 698 758 732 712 c 1,68,-1
 643 643 l 1,0,1
483 218 m 1,69,70
 493 224 493 224 506 233 c 128,-1,71
 519 242 519 242 534 256 c 0,72,73
 543 265 543 265 547.5 279 c 128,-1,74
 552 293 552 293 551 306.5 c 128,-1,75
 550 320 550 320 543.5 331 c 128,-1,76
 537 342 537 342 526 347 c 1,77,78
 503.5 361 l 2,79,80
 481 375 481 375 450.5 394.5 c 128,-1,81
 420 414 420 414 388.5 433.5 c 128,-1,82
 357 453 357 453 341 463 c 1,83,84
 315 451 315 451 299.5 438 c 128,-1,85
 284 425 284 425 277 399 c 0,86,87
 272 375 272 375 281 359.5 c 128,-1,88
 290 344 290 344 306 332 c 2,89,-1
 328 318.5 l 2,90,91
 350 305 350 305 379 286.5 c 128,-1,92
 408 268 408 268 437 248.5 c 128,-1,93
 466 229 466 229 483 218 c 1,69,70
EndSplineSet
EndChar
StartChar: dieresis
Encoding: 168 168 107
Width: 328
VWidth: 1494
Flags: W
HStem: 595 133<167.72 237.765 369.751 441.28>
VStem: 138 131<639.075 712.572> 339 133<638.727 713.142>
Fore
217 728 m 256,0,1
 244 728 244 728 259.5 708 c 128,-1,2
 275 688 275 688 269 662 c 0,3,4
 262 634 262 634 238.5 614.5 c 128,-1,5
 215 595 215 595 188 595 c 0,6,7
 160 595 160 595 146 615 c 128,-1,8
 132 635 132 635 138 662 c 0,9,10
 144 688 144 688 167 708 c 128,-1,11
 190 728 190 728 217 728 c 256,0,1
462 709 m 0,12,13
 477 686 477 686 472 662 c 0,14,15
 465 634 465 634 442 614.5 c 128,-1,16
 419 595 419 595 392 595 c 0,17,18
 363 595 363 595 347.5 614.5 c 128,-1,19
 332 634 332 634 339 662 c 0,20,21
 345 689 345 689 369 708.5 c 128,-1,22
 393 728 393 728 420 728 c 0,23,24
 445 728 445 728 462 709 c 0,12,13
EndSplineSet
EndChar
StartChar: copyright
Encoding: 169 169 108
Width: 799
VWidth: 1494
Flags: W
HStem: -22 68<307.573 519.773> 653 69<429.214 640.725>
Fore
831 350 m 0,0,1
 815 274 815 274 772 206 c 128,-1,2
 729 138 729 138 670 87 c 128,-1,3
 611 36 611 36 539.5 7 c 128,-1,4
 468 -22 468 -22 395 -22 c 0,5,6
 318 -22 318 -22 260 8.5 c 128,-1,7
 202 39 202 39 164.5 90 c 128,-1,8
 127 141 127 141 113.5 208 c 128,-1,9
 100 275 100 275 117 350 c 0,10,11
 132 423 132 423 174.5 491 c 128,-1,12
 217 559 217 559 276 610 c 128,-1,13
 335 661 335 661 406.5 691.5 c 128,-1,14
 478 722 478 722 553 722 c 256,15,16
 628 722 628 722 687 691.5 c 128,-1,17
 746 661 746 661 783.5 610 c 128,-1,18
 821 559 821 559 833.5 491 c 128,-1,19
 846 423 846 423 831 350 c 0,0,1
764 350 m 256,20,21
 777 410 777 410 766 465 c 128,-1,22
 755 520 755 520 725 562 c 128,-1,23
 695 604 695 604 647 628.5 c 128,-1,24
 599 653 599 653 538 653 c 0,25,26
 478 653 478 653 420.5 629 c 128,-1,27
 363 605 363 605 314.5 564 c 128,-1,28
 266 523 266 523 231.5 468 c 128,-1,29
 197 413 197 413 184 350 c 0,30,31
 170 290 170 290 181.5 234.5 c 128,-1,32
 193 179 193 179 223.5 137.5 c 128,-1,33
 254 96 254 96 301 71 c 128,-1,34
 348 46 348 46 410 46 c 0,35,36
 469 46 469 46 527.5 71 c 128,-1,37
 586 96 586 96 634.5 137.5 c 128,-1,38
 683 179 683 179 716.5 234.5 c 128,-1,39
 750 290 750 290 764 350 c 256,20,21
592 170 m 1,40,41
 562 145 562 145 530.5 132.5 c 128,-1,42
 499 120 499 120 468.5 116 c 128,-1,43
 438 112 438 112 410.5 116 c 128,-1,44
 383 120 383 120 363 127 c 0,45,46
 345 133 345 133 325.5 147 c 128,-1,47
 306 161 306 161 292 186.5 c 128,-1,48
 278 212 278 212 273 251 c 128,-1,49
 268 290 268 290 280 345 c 0,50,51
 291 402 291 402 313 441 c 128,-1,52
 335 480 335 480 359.5 504.5 c 128,-1,53
 384 529 384 529 409.5 543.5 c 128,-1,54
 435 558 435 558 456 565 c 0,55,56
 480 574 480 574 507.5 576 c 128,-1,57
 535 578 535 578 562 574 c 128,-1,58
 589 570 589 570 612 558.5 c 128,-1,59
 635 547 635 547 652 528 c 1,60,61
 650 525 650 525 644 519 c 1,62,63
 640 513 640 513 631 500 c 128,-1,64
 622 487 622 487 607 466 c 1,65,66
 586 489 586 489 562 497 c 128,-1,67
 538 505 538 505 517 507 c 0,68,69
 492 508 492 508 466 501 c 0,70,71
 423 484 423 484 392.5 444 c 128,-1,72
 362 404 362 404 350 345 c 256,73,74
 338 287 338 287 350.5 246.5 c 128,-1,75
 363 206 363 206 401 191 c 0,76,77
 425 182 425 182 451 182 c 0,78,79
 474 182 474 182 501 189.5 c 128,-1,80
 528 197 528 197 556 221 c 1,81,-1
 592 170 l 1,40,41
EndSplineSet
EndChar
StartChar: ordfeminine
Encoding: 170 170 109
Width: 424
VWidth: 1494
Flags: W
HStem: 271 73<224.152 332.12> 564 74<275.425 365.295>
VStem: 129 370<387 638 398.396 415.425> 129 71<395.226 449.906>
Fore
359 280 m 1,0,1
 360 294 360 294 363 302 c 0,2,3
 365 306 365 306 365 308 c 1,4,5
 317 271 317 271 256 271 c 0,6,7
 214 271 214 271 187 287 c 128,-1,8
 160 303 160 303 146 328.5 c 128,-1,9
 132 354 132 354 129 387 c 128,-1,10
 126 420 126 420 133 453 c 256,11,12
 141 486 141 486 157 519.5 c 128,-1,13
 173 553 173 553 198.5 579 c 128,-1,14
 224 605 224 605 257.5 621.5 c 128,-1,15
 291 638 291 638 333 638 c 0,16,17
 392 638 392 638 426 601 c 1,18,19
 426 604 426 604 428 610 c 0,20,21
 429 614 429 614 430 621 c 128,-1,22
 431 628 431 628 433 638 c 1,23,-1
 499 638 l 1,24,-1
 436 341 l 1,25,-1
 426 280 l 1,26,-1
 359 280 l 1,0,1
383 435 m 0,27,28
 390 456 390 456 391 479 c 128,-1,29
 392 502 392 502 384.5 521 c 128,-1,30
 377 540 377 540 360.5 552 c 128,-1,31
 344 564 344 564 318 564 c 256,32,33
 293 564 293 564 273.5 552.5 c 128,-1,34
 254 541 254 541 239 524.5 c 128,-1,35
 224 508 224 508 215 488.5 c 128,-1,36
 206 469 206 469 203 453 c 0,37,38
 200 439 200 439 200 420.5 c 128,-1,39
 200 402 200 402 207 385 c 128,-1,40
 214 368 214 368 229 356 c 128,-1,41
 244 344 244 344 271 344 c 0,42,43
 309 344 309 344 340 372.5 c 128,-1,44
 371 401 371 401 383 435 c 0,27,28
EndSplineSet
EndChar
StartChar: guillemotleft
Encoding: 171 171 110
Width: 597
VWidth: 1494
Flags: W
HStem: 45 441<293 321 293 293>
Fore
108 266 m 1,0,-1
 293 486 l 1,1,-1
 416 486 l 1,2,-1
 223 266 l 1,3,-1
 321 45 l 1,4,-1
 199 45 l 1,5,-1
 108 266 l 1,0,-1
327 266 m 1,6,-1
 513 486 l 1,7,-1
 635 486 l 1,8,-1
 442 266 l 1,9,-1
 541 45 l 1,10,-1
 419 45 l 1,11,-1
 327 266 l 1,6,-1
EndSplineSet
EndChar
StartChar: logicalnot
Encoding: 172 172 111
Width: 684
VWidth: 1494
Flags: W
HStem: 327 89<130 620>
Fore
577 123 m 1,0,-1
 620 327 l 1,1,-1
 111 327 l 1,2,-1
 130 416 l 1,3,-1
 728 416 l 1,4,-1
 665 123 l 1,5,-1
 577 123 l 1,0,-1
EndSplineSet
EndChar
StartChar: registered
Encoding: 174 174 112
Width: 804
VWidth: 1494
Flags: W
HStem: -22 68<307.573 519.773> 291 60<410 463> 505 62<442.096 536.559> 653 69<429.214 640.725>
Fore
831 350 m 0,0,1
 815 274 815 274 772 206 c 128,-1,2
 729 138 729 138 670 87 c 128,-1,3
 611 36 611 36 539.5 7 c 128,-1,4
 468 -22 468 -22 395 -22 c 0,5,6
 318 -22 318 -22 260 8.5 c 128,-1,7
 202 39 202 39 164.5 90 c 128,-1,8
 127 141 127 141 113.5 208 c 128,-1,9
 100 275 100 275 117 350 c 0,10,11
 132 423 132 423 174.5 491 c 128,-1,12
 217 559 217 559 276 610 c 128,-1,13
 335 661 335 661 406.5 691.5 c 128,-1,14
 478 722 478 722 553 722 c 256,15,16
 628 722 628 722 687 691.5 c 128,-1,17
 746 661 746 661 783.5 610 c 128,-1,18
 821 559 821 559 833.5 491 c 128,-1,19
 846 423 846 423 831 350 c 0,0,1
764 350 m 256,20,21
 777 410 777 410 766 465 c 128,-1,22
 755 520 755 520 725 562 c 128,-1,23
 695 604 695 604 647 628.5 c 128,-1,24
 599 653 599 653 538 653 c 0,25,26
 478 653 478 653 420.5 629 c 128,-1,27
 363 605 363 605 314.5 564 c 128,-1,28
 266 523 266 523 231.5 468 c 128,-1,29
 197 413 197 413 184 350 c 0,30,31
 170 290 170 290 181.5 234.5 c 128,-1,32
 193 179 193 179 223.5 137.5 c 128,-1,33
 254 96 254 96 301 71 c 128,-1,34
 348 46 348 46 410 46 c 0,35,36
 469 46 469 46 527.5 71 c 128,-1,37
 586 96 586 96 634.5 137.5 c 128,-1,38
 683 179 683 179 716.5 234.5 c 128,-1,39
 750 290 750 290 764 350 c 256,20,21
587 435 m 0,40,41
 595 472 595 472 565 488.5 c 128,-1,42
 535 505 535 505 480 505 c 0,43,44
 469 505 469 505 457 505 c 128,-1,45
 445 505 445 505 442 504 c 1,46,-1
 410 351 l 1,47,-1
 447 351 l 2,48,49
 507 351 507 351 542.5 370 c 128,-1,50
 578 389 578 389 587 435 c 0,40,41
381 502 m 2,51,52
 384 517 384 517 374.5 524.5 c 128,-1,53
 365 532 365 532 369 547 c 1,54,55
 375 555 375 555 386.5 565 c 128,-1,56
 398 575 398 575 410 573 c 1,57,58
 414 573 414 573 423 567 c 1,59,-1
 492 567 l 2,60,61
 526 567 526 567 557.5 559.5 c 128,-1,62
 589 552 589 552 611.5 536 c 128,-1,63
 634 520 634 520 644.5 495.5 c 128,-1,64
 655 471 655 471 647 435 c 0,65,66
 635 375 635 375 598.5 345 c 128,-1,67
 562 315 562 315 523 303 c 1,68,-1
 598 138 l 1,69,-1
 534 129 l 1,70,-1
 463 291 l 1,71,-1
 399 291 l 1,72,-1
 366 136 l 1,73,-1
 303 136 l 1,74,-1
 381 502 l 2,51,52
EndSplineSet
EndChar
StartChar: macron
Encoding: 175 175 113
Width: 322
VWidth: 1494
Flags: W
HStem: 598 81<185 407 169 423 185 185>
Fore
169 598 m 1,0,-1
 185 679 l 1,1,-1
 423 679 l 1,2,-1
 407 598 l 1,3,-1
 169 598 l 1,0,-1
EndSplineSet
EndChar
StartChar: degree
Encoding: 176 176 114
Width: 355
VWidth: 1494
Flags: W
HStem: 484 60<250.763 331.634> 688 59<290.525 372.735>
VStem: 179 265<589 616 616 643 616 616 616 616>
Fore
339 747 m 0,0,1
 395 747 395 747 425.5 709 c 128,-1,2
 456 671 456 671 444 616 c 0,3,4
 438 589 438 589 422.5 565 c 128,-1,5
 407 541 407 541 385 523 c 128,-1,6
 363 505 363 505 336 494.5 c 128,-1,7
 309 484 309 484 283 484 c 0,8,9
 227 484 227 484 197 522.5 c 128,-1,10
 167 561 167 561 179 616 c 0,11,12
 185 643 185 643 200 667 c 128,-1,13
 215 691 215 691 237 708.5 c 128,-1,14
 259 726 259 726 285.5 736.5 c 128,-1,15
 312 747 312 747 339 747 c 0,0,1
296 544 m 256,16,17
 326 544 326 544 351.5 565 c 128,-1,18
 377 586 377 586 383 616 c 0,19,20
 390 646 390 646 373 667 c 128,-1,21
 356 688 356 688 326 688 c 256,22,23
 296 688 296 688 271.5 667 c 128,-1,24
 247 646 247 646 239 616 c 0,25,26
 235 586 235 586 250.5 565 c 128,-1,27
 266 544 266 544 296 544 c 256,16,17
EndSplineSet
EndChar
StartChar: plusminus
Encoding: 177 177 115
Width: 641
VWidth: 1494
Flags: W
HStem: 0 90<108 550> 326 96<197 341 456 601> 584 20G<395 495>
Fore
108 90 m 1,0,-1
 568 90 l 1,1,-1
 550 0 l 1,2,-1
 90 0 l 1,3,-1
 108 90 l 1,0,-1
302 142 m 1,4,-1
 341 326 l 1,5,-1
 178 326 l 1,6,-1
 197 422 l 1,7,-1
 362 422 l 1,8,9
 365 438 365 438 371 463 c 0,10,11
 375 484 375 484 382 518.5 c 128,-1,12
 389 553 389 553 401 604 c 1,13,-1
 495 604 l 1,14,-1
 456 422 l 1,15,-1
 620 422 l 1,16,-1
 601 326 l 1,17,-1
 436 326 l 1,18,-1
 398 142 l 1,19,-1
 302 142 l 1,4,-1
EndSplineSet
EndChar
StartChar: twosuperior
Encoding: 178 178 116
Width: 436
VWidth: 1494
Flags: W
HStem: 284 75<256 374> 534 21G<190.5 271>
VStem: 194 77<552 592.89>
Fore
401 284 m 1,0,-1
 135 284 l 2,1,2
 120 284 120 284 121.5 295 c 128,-1,3
 123 306 123 306 126 321 c 0,4,5
 129 333 129 333 138.5 340.5 c 128,-1,6
 148 348 148 348 158 353 c 1,7,8
 173 369 173 369 195.5 391 c 128,-1,9
 218 413 218 413 253 438 c 0,10,11
 306 477 306 477 336 501 c 128,-1,12
 366 525 366 525 380 540 c 0,13,14
 396 556 396 556 399 567 c 1,15,16
 411 587 411 587 403.5 611 c 128,-1,17
 396 635 396 635 374 643 c 0,18,19
 354 649 354 649 333 644.5 c 128,-1,20
 312 640 312 640 296.5 626.5 c 128,-1,21
 281 613 281 613 273 593.5 c 128,-1,22
 265 574 265 574 271 552 c 1,23,-1
 194 534 l 1,24,25
 187 575 187 575 204 613.5 c 128,-1,26
 221 652 221 652 254 678 c 128,-1,27
 287 704 287 704 329 714.5 c 128,-1,28
 371 725 371 725 411 713 c 0,29,30
 450 701 450 701 468.5 667.5 c 128,-1,31
 487 634 487 634 480 586 c 0,32,33
 472 547 472 547 447.5 516.5 c 128,-1,34
 423 486 423 486 390 459.5 c 128,-1,35
 357 433 357 433 320.5 408.5 c 128,-1,36
 284 384 284 384 256 359 c 1,37,-1
 374 359 l 1,38,-1
 401 398 l 1,39,-1
 428 383 l 2,40,41
 439 377 439 377 454 366 c 1,42,-1
 401 284 l 1,0,-1
EndSplineSet
EndChar
StartChar: threesuperior
Encoding: 179 179 117
Width: 454
VWidth: 1494
Flags: W
HStem: 634 75<286 390>
Fore
220 416 m 1,0,1
 220 389 220 389 231 374 c 128,-1,2
 242 359 242 359 258 352 c 128,-1,3
 274 345 274 345 291 344.5 c 128,-1,4
 308 344 308 344 321 347 c 0,5,6
 353 354 353 354 381.5 379.5 c 128,-1,7
 410 405 410 405 417 451 c 0,8,9
 419 471 419 471 410.5 484.5 c 128,-1,10
 402 498 402 498 389.5 505.5 c 128,-1,11
 377 513 377 513 361 513 c 128,-1,12
 345 513 345 513 335 504 c 0,13,14
 332 501 332 501 317.5 492 c 128,-1,15
 303 483 303 483 296 481 c 1,16,17
 284 481 284 481 271 492 c 1,18,19
 263 504 263 504 258.5 511.5 c 128,-1,20
 254 519 254 519 268 531 c 2,21,-1
 390 634 l 1,22,-1
 286 634 l 1,23,-1
 254 581 l 1,24,25
 245 586.5 l 2,26,27
 236 592 236 592 226.5 598 c 128,-1,28
 217 604 217 604 208.5 608.5 c 128,-1,29
 200 613 200 613 199 614 c 1,30,-1
 245 709 l 1,31,-1
 507 709 l 2,32,33
 537 709 537 709 520 677 c 0,34,35
 508 652 508 652 499 645 c 128,-1,36
 490 638 490 638 477 635 c 1,37,-1
 408 574 l 1,38,39
 445 577 445 577 471.5 545.5 c 128,-1,40
 498 514 498 514 490 457 c 0,41,42
 484 419 484 419 467 387.5 c 128,-1,43
 450 356 450 356 427 332 c 128,-1,44
 404 308 404 308 375.5 294 c 128,-1,45
 347 280 347 280 320 274 c 0,46,47
 288 268 288 268 257 272.5 c 128,-1,48
 226 277 226 277 201 291.5 c 128,-1,49
 176 306 176 306 160.5 331.5 c 128,-1,50
 145 357 145 357 145 395 c 1,51,-1
 154 398 l 2,52,53
 163 401 163 401 175 404 c 128,-1,54
 187 407 187 407 199.5 410 c 128,-1,55
 212 413 212 413 220 416 c 1,0,1
EndSplineSet
EndChar
StartChar: acute
Encoding: 180 180 118
Width: 381
VWidth: 1494
Flags: W
HStem: 577 157<329 511 511 511>
Fore
372 732 m 1,0,-1
 511 734 l 1,1,-1
 329 577 l 1,2,-1
 242 577 l 1,3,-1
 372 732 l 1,0,-1
EndSplineSet
EndChar
StartChar: mu
Encoding: 181 181 119
Width: 605
VWidth: 1494
Flags: W
HStem: -12 81<240.879 330.945>
Fore
448 -21 m 1,0,1
 441 -1 441 -1 438 11.5 c 128,-1,2
 435 24 435 24 435 40 c 1,3,4
 401 10 401 10 359 -1 c 128,-1,5
 317 -12 317 -12 283 -12 c 256,6,7
 248 -12 248 -12 223.5 -4.5 c 128,-1,8
 199 3 199 3 182 15 c 1,9,-1
 124 -254 l 1,10,-1
 33 -254 l 1,11,-1
 199 522 l 1,12,-1
 290 522 l 1,13,-1
 217 182 l 2,14,15
 206 132 206 132 231.5 100.5 c 128,-1,16
 257 69 257 69 309 69 c 0,17,18
 338 69 338 69 364 81.5 c 128,-1,19
 390 94 390 94 411 115 c 128,-1,20
 432 136 432 136 446 162 c 128,-1,21
 460 188 460 188 466 215 c 2,22,-1
 532 522 l 1,23,-1
 623 522 l 1,24,-1
 538 123 l 2,25,26
 528 78 528 78 529.5 56 c 128,-1,27
 531 34 531 34 537 9 c 1,28,-1
 448 -21 l 1,0,1
EndSplineSet
EndChar
StartChar: paragraph
Encoding: 182 182 120
Width: 745
VWidth: 1494
Flags: W
HStem: -211 21G<444 541.217> 638 94<534 623 716 791>
Fore
342 312 m 2,0,1
 309 312 309 312 275 325 c 128,-1,2
 241 338 241 338 214.5 363.5 c 128,-1,3
 188 389 188 389 175.5 427.5 c 128,-1,4
 163 466 163 466 175 520 c 256,5,6
 187 574 187 574 213 613.5 c 128,-1,7
 239 653 239 653 274 679.5 c 128,-1,8
 309 706 309 706 350.5 719 c 128,-1,9
 392 732 392 732 432 732 c 2,10,-1
 812 732 l 1,11,-1
 791 638 l 1,12,-1
 716 638 l 1,13,-1
 537 -211 l 1,14,-1
 444 -209 l 1,15,-1
 623 638 l 1,16,-1
 534 638 l 1,17,-1
 354 -208 l 1,18,-1
 265 -208 l 1,19,-1
 375 312 l 1,20,-1
 342 312 l 2,0,1
EndSplineSet
EndChar
StartChar: periodcentered
Encoding: 183 183 121
Width: 343
VWidth: 1494
Flags: W
HStem: 257 193<201.078 292.49>
VStem: 149 195<325.471 419.29>
Fore
344 353 m 0,0,1
 335 312 335 312 300.5 284.5 c 128,-1,2
 266 257 266 257 226 257 c 0,3,4
 187 257 187 257 164 284.5 c 128,-1,5
 141 312 141 312 149 353 c 0,6,7
 157 393 157 393 192 421.5 c 128,-1,8
 227 450 227 450 266 450 c 0,9,10
 306 450 306 450 328.5 421.5 c 128,-1,11
 351 393 351 393 344 353 c 0,0,1
EndSplineSet
EndChar
StartChar: cedilla
Encoding: 184 184 122
Width: 322
VWidth: 1494
Flags: W
HStem: -217.5 223.5<61.5 149 149 149> -217.5 57<65.2559 122.78>
VStem: -3 250<-200 -130 -200 -200>
Fore
247 -130 m 0,0,1
 233 -164 233 -164 202.5 -185 c 128,-1,2
 172 -206 172 -206 135.5 -213.5 c 128,-1,3
 99 -221 99 -221 61.5 -217.5 c 128,-1,4
 24 -214 24 -214 -3 -200 c 1,5,-1
 36 -144 l 1,6,7
 45 -152 45 -152 63 -156.5 c 128,-1,8
 81 -161 81 -161 100.5 -160.5 c 128,-1,9
 120 -160 120 -160 135.5 -152 c 128,-1,10
 151 -144 151 -144 157 -127 c 0,11,12
 161 -115 161 -115 155 -106 c 128,-1,13
 149 -97 149 -97 136.5 -92.5 c 128,-1,14
 124 -88 124 -88 107 -86 c 128,-1,15
 90 -84 90 -84 70 -85 c 1,16,-1
 149 6 l 1,17,-1
 217 6 l 1,18,-1
 164 -48 l 1,19,20
 217 -40 217 -40 239.5 -66.5 c 128,-1,21
 262 -93 262 -93 247 -130 c 0,0,1
EndSplineSet
EndChar
StartChar: onesuperior
Encoding: 185 185 123
Width: 391
VWidth: 1494
Flags: W
HStem: 283 436<320 395 395 395>
VStem: 212 203<620 675 620 620>
Fore
320 283 m 1,0,-1
 245 283 l 1,1,-1
 312 602 l 1,2,-1
 241 561 l 1,3,-1
 226 590 l 2,4,5
 223 596 223 596 221.5 601.5 c 128,-1,6
 220 607 220 607 217 611 c 2,7,-1
 212 620 l 1,8,9
 237 634.5 l 2,10,11
 262 649 262 649 291 667 c 128,-1,12
 320 685 320 685 344.5 699 c 128,-1,13
 369 713 369 713 371 715 c 0,14,15
 386 723 386 723 395 719 c 128,-1,16
 404 715 404 715 411 703 c 256,17,18
 419 691 419 691 415 675 c 128,-1,19
 411 659 411 659 398 649 c 1,20,-1
 320 283 l 1,0,-1
EndSplineSet
EndChar
StartChar: ordmasculine
Encoding: 186 186 124
Width: 376
VWidth: 1494
Flags: W
HStem: 280 70<219.21 307.435> 567 70<261.18 352.867>
VStem: 103 365.5<496 496 454 528.5 454 454>
Fore
466 460 m 0,0,1
 456 413 456 413 431.5 378.5 c 128,-1,2
 407 344 407 344 375.5 322 c 128,-1,3
 344 300 344 300 309.5 290 c 128,-1,4
 275 280 275 280 245 280 c 0,5,6
 167 280 167 280 127 329 c 128,-1,7
 87 378 87 378 103 454 c 0,8,9
 112 496 112 496 134.5 530.5 c 128,-1,10
 157 565 157 565 187.5 588 c 128,-1,11
 218 611 218 611 252.5 624 c 128,-1,12
 287 637 287 637 321 637 c 0,13,14
 363 637 363 637 394.5 622.5 c 128,-1,15
 426 608 426 608 444.5 584.5 c 128,-1,16
 463 561 463 561 468.5 528.5 c 128,-1,17
 474 496 474 496 466 460 c 0,0,1
392 457 m 0,18,19
 396 475 396 475 394 494.5 c 128,-1,20
 392 514 392 514 382 530 c 128,-1,21
 372 546 372 546 354 556.5 c 128,-1,22
 336 567 336 567 308 567 c 0,23,24
 256 567 256 567 222 532.5 c 128,-1,25
 188 498 188 498 179 456 c 0,26,27
 173 429 173 429 178.5 409 c 128,-1,28
 184 389 184 389 196.5 376 c 128,-1,29
 209 363 209 363 226.5 356.5 c 128,-1,30
 244 350 244 350 262 350 c 0,31,32
 302 350 302 350 341 376 c 128,-1,33
 380 402 380 402 392 457 c 0,18,19
EndSplineSet
EndChar
StartChar: guillemotright
Encoding: 187 187 125
Width: 597
VWidth: 1494
Flags: W
HStem: 45 441<383 411 383 383>
Fore
411 45 m 1,0,-1
 288 45 l 1,1,-1
 480 266 l 1,2,-1
 383 486 l 1,3,-1
 505 486 l 1,4,-1
 595 266 l 1,5,-1
 411 45 l 1,0,-1
191 45 m 1,6,-1
 69 45 l 1,7,-1
 260 266 l 1,8,-1
 163 486 l 1,9,-1
 286 486 l 1,10,-1
 375 266 l 1,11,-1
 191 45 l 1,6,-1
EndSplineSet
EndChar
StartChar: onequarter
Encoding: 188 188 126
Width: 943
VWidth: 1494
Flags: W
HStem: -9 21G<199 296.221 728.918 798> 582 20G<277.366 307.799> 696 20G<769.807 868>
Fore
280 -9 m 1,0,-1
 199 -9 l 1,1,-1
 786 716 l 1,2,-1
 868 716 l 1,3,-1
 280 -9 l 1,0,-1
320 283 m 1,4,-1
 245 283 l 1,5,-1
 312 602 l 1,6,-1
 241 561 l 1,7,-1
 226 590 l 2,8,9
 223 596 223 596 221.5 601.5 c 128,-1,10
 220 607 220 607 217 611 c 2,11,-1
 212 620 l 1,12,13
 237 634.5 l 2,14,15
 262 649 262 649 291 667 c 128,-1,16
 320 685 320 685 344.5 699 c 128,-1,17
 369 713 369 713 371 715 c 0,18,19
 386 723 386 723 395 719 c 128,-1,20
 404 715 404 715 411 703 c 256,21,22
 419 691 419 691 415 675 c 128,-1,23
 411 659 411 659 398 649 c 1,24,-1
 320 283 l 1,4,-1
891 97 m 1,25,-1
 907 170 l 1,26,-1
 834 170 l 1,27,-1
 879 386 l 1,28,29
 886 395 886 395 889 397 c 128,-1,30
 892 399 892 399 892 410 c 1,31,32
 892 407 892 407 889 413 c 128,-1,33
 886 419 886 419 882.5 427 c 128,-1,34
 879 435 879 435 874.5 441.5 c 128,-1,35
 870 448 870 448 864 448 c 0,36,37
 852 450 852 450 842 438 c 1,38,-1
 843 439 l 1,39,-1
 546 154 l 1,40,-1
 546 152 l 1,41,42
 532 136 532 136 539 117.5 c 128,-1,43
 546 99 546 99 562 97 c 2,44,-1
 744 97 l 1,45,-1
 725 0 l 1,46,-1
 798 0 l 1,47,-1
 818 97 l 1,48,-1
 891 97 l 1,25,-1
789 299 m 1,49,-1
 761 170 l 1,50,-1
 658 170 l 1,51,-1
 789 299 l 1,49,-1
EndSplineSet
Ligature2: "'frac' Diagonal Fractions in Latin lookup 0 subtable" one fraction four
Ligature2: "'frac' Diagonal Fractions in Latin lookup 0 subtable" one slash four
EndChar
StartChar: onehalf
Encoding: 189 189 127
Width: 923
VWidth: 1494
Flags: W
HStem: 0 75<659 777> 582 20G<277.366 307.799> 696 20G<738.779 837>
VStem: 599 77<268 308.89>
Fore
806 0 m 1,0,-1
 540 0 l 2,1,2
 525 0 525 0 526.5 11 c 128,-1,3
 528 22 528 22 531 37 c 0,4,5
 534 49 534 49 543 56.5 c 128,-1,6
 552 64 552 64 562 69 c 1,7,8
 577 85 577 85 599.5 107 c 128,-1,9
 622 129 622 129 656 154 c 0,10,11
 712 193 712 193 741 217 c 128,-1,12
 770 241 770 241 785 256 c 0,13,14
 801 272 801 272 804 283 c 1,15,16
 816 303 816 303 808.5 327 c 128,-1,17
 801 351 801 351 779 359 c 0,18,19
 759 365 759 365 738.5 360.5 c 128,-1,20
 718 356 718 356 702 342.5 c 128,-1,21
 686 329 686 329 678 309.5 c 128,-1,22
 670 290 670 290 676 268 c 1,23,-1
 599 250 l 1,24,25
 592 291 592 291 609 329.5 c 128,-1,26
 626 368 626 368 658.5 394 c 128,-1,27
 691 420 691 420 732.5 430.5 c 128,-1,28
 774 441 774 441 816 429 c 0,29,30
 854 417 854 417 873 383.5 c 128,-1,31
 892 350 892 350 883 302 c 0,32,33
 877 263 877 263 852.5 232.5 c 128,-1,34
 828 202 828 202 795 175.5 c 128,-1,35
 762 149 762 149 725.5 124.5 c 128,-1,36
 689 100 689 100 659 75 c 1,37,-1
 777 75 l 1,38,-1
 806 114 l 1,39,40
 809 112 809 112 813 109 c 0,41,42
 816 106 816 106 820.5 104 c 128,-1,43
 825 102 825 102 831 99 c 0,44,45
 843 93 843 93 858 82 c 1,46,-1
 806 0 l 1,0,-1
320 283 m 1,47,-1
 245 283 l 1,48,-1
 312 602 l 1,49,-1
 241 561 l 1,50,-1
 226 590 l 2,51,52
 223 596 223 596 221.5 601.5 c 128,-1,53
 220 607 220 607 217 611 c 2,54,-1
 212 620 l 1,55,56
 237 634.5 l 2,57,58
 262 649 262 649 291 667 c 128,-1,59
 320 685 320 685 344.5 699 c 128,-1,60
 369 713 369 713 371 715 c 0,61,62
 386 723 386 723 395 719 c 128,-1,63
 404 715 404 715 411 703 c 256,64,65
 419 691 419 691 415 675 c 128,-1,66
 411 659 411 659 398 649 c 1,67,-1
 320 283 l 1,47,-1
248 -9 m 1,68,-1
 167 -9 l 1,69,-1
 755 716 l 1,70,-1
 837 716 l 1,71,-1
 248 -9 l 1,68,-1
EndSplineSet
Ligature2: "'frac' Diagonal Fractions in Latin lookup 0 subtable" one fraction two
Ligature2: "'frac' Diagonal Fractions in Latin lookup 0 subtable" one slash two
EndChar
StartChar: threequarters
Encoding: 190 190 128
Width: 938
VWidth: 1494
Flags: W
HStem: 0 21G<245 342.248 728.918 798> 634 75<286 390>
Fore
891 97 m 1,0,-1
 907 170 l 1,1,-1
 834 170 l 1,2,-1
 879 386 l 1,3,4
 886 395 886 395 889 397 c 128,-1,5
 892 399 892 399 892 410 c 1,6,7
 892 407 892 407 889 413 c 128,-1,8
 886 419 886 419 882.5 427 c 128,-1,9
 879 435 879 435 874.5 441.5 c 128,-1,10
 870 448 870 448 864 448 c 0,11,12
 852 450 852 450 842 438 c 1,13,-1
 843 439 l 1,14,-1
 546 154 l 1,15,-1
 546 152 l 1,16,17
 532 136 532 136 539 117.5 c 128,-1,18
 546 99 546 99 562 97 c 2,19,-1
 744 97 l 1,20,-1
 725 0 l 1,21,-1
 798 0 l 1,22,-1
 818 97 l 1,23,-1
 891 97 l 1,0,-1
789 299 m 1,24,-1
 761 170 l 1,25,-1
 658 170 l 1,26,-1
 789 299 l 1,24,-1
220 416 m 1,27,28
 220 389 220 389 231 374 c 128,-1,29
 242 359 242 359 258 352 c 128,-1,30
 274 345 274 345 291 344.5 c 128,-1,31
 308 344 308 344 321 347 c 0,32,33
 353 354 353 354 381.5 379.5 c 128,-1,34
 410 405 410 405 417 451 c 0,35,36
 419 471 419 471 410.5 484.5 c 128,-1,37
 402 498 402 498 389.5 505.5 c 128,-1,38
 377 513 377 513 361 513 c 128,-1,39
 345 513 345 513 335 504 c 0,40,41
 332 501 332 501 317.5 492 c 128,-1,42
 303 483 303 483 296 481 c 1,43,44
 284 481 284 481 271 492 c 1,45,46
 263 504 263 504 258.5 511.5 c 128,-1,47
 254 519 254 519 268 531 c 2,48,-1
 390 634 l 1,49,-1
 286 634 l 1,50,-1
 254 581 l 1,51,52
 245 586.5 l 2,53,54
 236 592 236 592 226.5 598 c 128,-1,55
 217 604 217 604 208.5 608.5 c 128,-1,56
 200 613 200 613 199 614 c 1,57,-1
 245 709 l 1,58,-1
 507 709 l 2,59,60
 537 709 537 709 520 677 c 0,61,62
 508 652 508 652 499 645 c 128,-1,63
 490 638 490 638 477 635 c 1,64,-1
 408 574 l 1,65,66
 445 577 445 577 471.5 545.5 c 128,-1,67
 498 514 498 514 490 457 c 0,68,69
 484 419 484 419 467 387.5 c 128,-1,70
 450 356 450 356 427 332 c 128,-1,71
 404 308 404 308 375.5 294 c 128,-1,72
 347 280 347 280 320 274 c 0,73,74
 288 268 288 268 257 272.5 c 128,-1,75
 226 277 226 277 201 291.5 c 128,-1,76
 176 306 176 306 160.5 331.5 c 128,-1,77
 145 357 145 357 145 395 c 1,78,-1
 154 398 l 2,79,80
 163 401 163 401 175 404 c 128,-1,81
 187 407 187 407 199.5 410 c 128,-1,82
 212 413 212 413 220 416 c 1,27,28
326 -9 m 1,83,-1
 245 -9 l 1,84,-1
 833 716 l 1,85,-1
 915 716 l 1,86,-1
 326 -9 l 1,83,-1
EndSplineSet
Ligature2: "'frac' Diagonal Fractions in Latin lookup 0 subtable" three fraction four
Ligature2: "'frac' Diagonal Fractions in Latin lookup 0 subtable" three slash four
EndChar
StartChar: questiondown
Encoding: 191 191 129
Width: 596
VWidth: 1494
Flags: W
HStem: 377 134<377.205 452.311>
VStem: 348 135<418.768 496.966>
Fore
112 -145 m 0,0,1
 91 -108 91 -108 93.5 -70.5 c 128,-1,2
 96 -33 96 -33 113 2 c 128,-1,3
 130 37 130 37 156 68.5 c 128,-1,4
 182 100 182 100 211 126 c 0,5,6
 253 164 253 164 285.5 201 c 128,-1,7
 318 238 318 238 329 286 c 2,8,-1
 342 348 l 1,9,-1
 447 348 l 1,10,-1
 433 286 l 2,11,12
 420 221 420 221 377.5 174 c 128,-1,13
 335 127 335 127 291 87 c 0,14,15
 235 36 235 36 211 -2 c 128,-1,16
 187 -40 187 -40 202 -84 c 0,17,18
 218 -133 218 -133 297 -127 c 0,19,20
 330 -124 330 -124 370 -98.5 c 128,-1,21
 410 -73 410 -73 429 -39 c 1,22,-1
 489 -84 l 1,23,24
 459 -135 459 -135 412 -168.5 c 128,-1,25
 365 -202 365 -202 305 -209 c 0,26,27
 244 -218 244 -218 190 -203 c 128,-1,28
 136 -188 136 -188 112 -145 c 0,0,1
348 445 m 0,29,30
 354 475 354 475 376.5 493 c 128,-1,31
 399 511 399 511 429 511 c 256,32,33
 459 511 459 511 474 493 c 128,-1,34
 489 475 489 475 483 445 c 0,35,36
 475 416 475 416 453 396.5 c 128,-1,37
 431 377 431 377 401 377 c 256,38,39
 371 377 371 377 356 396.5 c 128,-1,40
 341 416 341 416 348 445 c 0,29,30
EndSplineSet
EndChar
StartChar: Aring
Encoding: 197 197 134
Width: 684
VWidth: 1494
Flags: W
HStem: -18 21G<19 128.724 557.453 665> 185 93<291 508> 782 69<486.365 563.98> 955 66<499.972 578.426>
Fore
520 851 m 0,0,1
 543 851 543 851 561.5 866.5 c 128,-1,2
 580 882 580 882 584 903 c 256,3,4
 589 924 589 924 577 939.5 c 128,-1,5
 565 955 565 955 543 955 c 0,6,7
 522 955 522 955 503 939.5 c 128,-1,8
 484 924 484 924 480 903 c 0,9,10
 477 882 477 882 488 866.5 c 128,-1,11
 499 851 499 851 520 851 c 0,0,1
558 1021 m 256,12,13
 608 1021 608 1021 636 986.5 c 128,-1,14
 664 952 664 952 653 901 c 0,15,16
 641 851 641 851 599.5 816.5 c 128,-1,17
 558 782 558 782 507 782 c 256,18,19
 456 782 456 782 428.5 816.5 c 128,-1,20
 401 851 401 851 413 901 c 0,21,22
 423 952 423 952 465 986.5 c 128,-1,23
 507 1021 507 1021 558 1021 c 256,12,13
665 0 m 1,24,-1
 561 -18 l 1,25,-1
 525 185 l 1,26,-1
 236 185 l 1,27,-1
 117 -18 l 1,28,-1
 19 0 l 1,29,-1
 435 680 l 2,30,31
 441 689 441 689 456 706 c 128,-1,32
 471 723 471 723 489 732 c 0,33,34
 498 737 498 737 508.5 735.5 c 128,-1,35
 519 734 519 734 529.5 729.5 c 128,-1,36
 540 725 540 725 547.5 719 c 128,-1,37
 555 713 555 713 558 709 c 0,38,39
 568 695 568 695 557.5 681.5 c 128,-1,40
 547 668 547 668 543 662 c 1,41,-1
 665 0 l 1,24,-1
460 564 m 1,42,-1
 291 278 l 1,43,-1
 508 278 l 1,44,-1
 460 564 l 1,42,-1
EndSplineSet
EndChar
StartChar: AE
Encoding: 198 198 135
Width: 970
VWidth: 1494
Flags: W
HStem: 1 101<650 924> 184 93<393 564> 320 100<716 963> 613 102<758 1054>
Fore
697 320 m 1,0,1
 683 257 683 257 671 200.5 c 128,-1,2
 659 144 659 144 650 102 c 1,3,-1
 945 102 l 1,4,-1
 924 1 l 1,5,-1
 599 1 l 2,6,7
 570 1 570 1 551 23 c 128,-1,8
 532 45 532 45 540 75 c 0,9,10
 543 91 543 91 548 110.5 c 128,-1,11
 553 130 553 130 556 146 c 0,12,13
 561 164 561 164 564 184 c 1,14,-1
 320 184 l 1,15,-1
 145 -19 l 1,16,-1
 54 27 l 1,17,-1
 595 655 l 2,18,19
 644 715 644 715 715 715 c 2,20,-1
 1076 715 l 1,21,-1
 1054 613 l 1,22,-1
 758 613 l 1,23,24
 750 580 750 580 739 529 c 128,-1,25
 728 478 728 478 716 420 c 1,26,-1
 982 420 l 1,27,-1
 963 320 l 1,28,-1
 697 320 l 1,0,1
393 277 m 1,29,-1
 583 277 l 1,30,31
 592 320 592 320 601.5 365 c 128,-1,32
 611 410 611 410 620 451.5 c 128,-1,33
 629 493 629 493 637.5 529 c 128,-1,34
 646 565 646 565 650 590 c 1,35,-1
 393 277 l 1,29,-1
EndSplineSet
EndChar
StartChar: Eth
Encoding: 208 208 145
Width: 780
VWidth: 1494
Flags: W
HStem: 0 102<215 442.213> 324 75<84 163 278 411> 610 100<323 523.095>
Fore
84 399 m 1,0,-1
 178 399 l 1,1,-1
 218 589 l 2,2,3
 221 602 221 602 214.5 612.5 c 128,-1,4
 208 623 208 623 201 632 c 128,-1,5
 194 641 194 641 189.5 650 c 128,-1,6
 185 659 185 659 193 670 c 0,7,8
 197 677 197 677 207 687.5 c 128,-1,9
 217 698 217 698 227.5 707 c 128,-1,10
 238 716 238 716 249 721 c 128,-1,11
 260 726 260 726 269 722 c 0,12,13
 273.5 719 l 0,14,-1
 287 710 l 1,15,-1
 450 710 l 2,16,17
 616 710 616 710 678.5 616 c 128,-1,18
 741 522 741 522 707 356 c 0,19,20
 671 184 671 184 566.5 92 c 128,-1,21
 462 0 462 0 300 0 c 2,22,-1
 94 0 l 1,23,-1
 163 324 l 1,24,-1
 69 324 l 1,25,-1
 84 399 l 1,0,-1
602 356 m 0,26,27
 656 610 656 610 407 610 c 2,28,-1
 323 610 l 1,29,-1
 278 399 l 1,30,-1
 426 399 l 1,31,-1
 411 324 l 1,32,-1
 263 324 l 1,33,-1
 215 102 l 1,34,-1
 333 102 l 2,35,36
 450 102 450 102 513.5 170 c 128,-1,37
 577 238 577 238 602 356 c 0,26,27
EndSplineSet
EndChar
StartChar: multiply
Encoding: 215 215 152
Width: 641
VWidth: 1494
Flags: W
Fore
510 12 m 1,0,-1
 369 202 l 1,1,2
 330 169 330 169 309 152 c 128,-1,3
 288 135 288 135 276.5 124.5 c 128,-1,4
 265 114 265 114 257.5 107 c 128,-1,5
 250 100 250 100 238 89.5 c 128,-1,6
 226 79 226 79 205 61 c 128,-1,7
 184 43 184 43 145 10 c 1,8,-1
 93 70 l 1,9,-1
 317 260 l 1,10,-1
 173 450 l 1,11,-1
 251 510 l 1,12,-1
 393 318 l 1,13,-1
 611 507 l 1,14,-1
 662 447 l 1,15,-1
 441 260 l 1,16,-1
 587 72 l 1,17,-1
 510 12 l 1,0,-1
EndSplineSet
EndChar
StartChar: Oslash
Encoding: 216 216 153
Width: 730
VWidth: 1494
Flags: W
HStem: -9 99<301.237 471.53> 506 20G<611.077 637> 629 99<407.289 575.981>
Fore
821 755 m 1,0,-1
 710 623 l 1,1,2
 762 526 762 526 728 360 c 0,3,4
 710 275 710 275 675 207 c 128,-1,5
 640 139 640 139 592 90.5 c 128,-1,6
 544 42 544 42 486 16.5 c 128,-1,7
 428 -9 428 -9 360 -9 c 0,8,9
 269 -9 269 -9 215 36 c 1,10,-1
 111 -87 l 1,11,-1
 57 -48 l 1,12,-1
 170 88 l 1,13,14
 142 136 142 136 136 205 c 128,-1,15
 130 274 130 274 149 360 c 0,16,17
 164 436 164 436 195.5 503 c 128,-1,18
 227 570 227 570 273.5 620 c 128,-1,19
 320 670 320 670 380.5 699 c 128,-1,20
 441 728 441 728 517 728 c 0,21,22
 608 728 608 728 668 677 c 1,23,-1
 765 794 l 1,24,-1
 821 755 l 1,0,-1
251 360 m 0,25,26
 229 254 229 254 251 182 c 1,27,-1
 595 590 l 1,28,29
 561 629 561 629 496 629 c 0,30,31
 444 629 444 629 403 605 c 128,-1,32
 362 581 362 581 332 543 c 128,-1,33
 302 505 302 505 282 457.5 c 128,-1,34
 262 410 262 410 251 360 c 0,25,26
626 360 m 0,35,36
 646 456 646 456 628 526 c 1,37,-1
 287 123 l 1,38,39
 321 90 321 90 381 90 c 0,40,41
 432 90 432 90 473 112.5 c 128,-1,42
 514 135 514 135 544 173 c 128,-1,43
 574 211 574 211 594 259.5 c 128,-1,44
 614 308 614 308 626 360 c 0,35,36
EndSplineSet
EndChar
StartChar: Thorn
Encoding: 222 222 159
Width: 727
VWidth: 1494
Flags: W
HStem: 96 113<244 462.325> 532 99<333 496.708>
Fore
729 374 m 0,0,1
 713 299 713 299 677 246.5 c 128,-1,2
 641 194 641 194 587.5 160.5 c 128,-1,3
 534 127 534 127 464.5 111.5 c 128,-1,4
 395 96 395 96 314 96 c 2,5,-1
 220 96 l 1,6,-1
 173 -126 l 1,7,-1
 66 -126 l 1,8,-1
 262 801 l 1,9,-1
 369 801 l 1,10,-1
 333 631 l 1,11,-1
 462 631 l 2,12,13
 531 632 531 632 586 617 c 128,-1,14
 641 602 641 602 678 570 c 128,-1,15
 715 538 715 538 729 489.5 c 128,-1,16
 743 441 743 441 729 374 c 0,0,1
617 369 m 0,17,18
 626 413 626 413 616.5 443.5 c 128,-1,19
 607 474 607 474 583 494 c 128,-1,20
 559 514 559 514 524.5 523 c 128,-1,21
 490 532 490 532 450 532 c 2,22,-1
 312 532 l 1,23,-1
 244 209 l 1,24,-1
 356 209 l 2,25,26
 466 209 466 209 532.5 246.5 c 128,-1,27
 599 284 599 284 617 369 c 0,17,18
EndSplineSet
EndChar
StartChar: uni00DF
Encoding: 223 223 160
Width: 689
VWidth: 1494
Flags: W
HStem: -6 97<294 396.337> 401 97<381 471.307> 637.5 82.5<381.36 491.18>
VStem: 49 103<-172.032 190.198>
Fore
275 -6 m 1,0,-1
 294 91 l 1,1,-1
 359 91 l 2,2,3
 393 91 393 91 427.5 102.5 c 128,-1,4
 462 114 462 114 491 135.5 c 128,-1,5
 520 157 520 157 540.5 185.5 c 128,-1,6
 561 214 561 214 567 248 c 0,7,8
 573 281 573 281 566 308.5 c 128,-1,9
 559 336 559 336 541 356.5 c 128,-1,10
 523 377 523 377 497 389 c 128,-1,11
 471 401 471 401 439 401 c 2,12,-1
 359 401 l 1,13,-1
 381 498 l 1,14,-1
 466 498 l 2,15,16
 499 502 499 502 518.5 520 c 128,-1,17
 538 538 538 538 542 560.5 c 128,-1,18
 546 583 546 583 534.5 604 c 128,-1,19
 523 625 523 625 498 632 c 0,20,21
 471 641 471 641 439.5 637.5 c 128,-1,22
 408 634 408 634 380.5 618 c 128,-1,23
 353 602 353 602 331 576 c 128,-1,24
 309 550 309 550 302 513 c 0,25,26
 260 317 260 317 227 161 c 2,27,-1
 152 -191 l 2,28,29
 152 -193 152 -193 136 -193.5 c 128,-1,30
 120 -194 120 -194 101 -194 c 128,-1,31
 82 -194 82 -194 66.5 -193.5 c 128,-1,32
 51 -193 51 -193 49 -193 c 1,33,-1
 200 520 l 2,34,35
 221 614 221 614 288.5 667 c 128,-1,36
 356 720 356 720 450 720 c 0,37,38
 540 725 540 725 590.5 696 c 128,-1,39
 641 667 641 667 657 623.5 c 128,-1,40
 673 580 673 580 653.5 531.5 c 128,-1,41
 634 483 634 483 583 448 c 1,42,43
 610 438 610 438 625.5 422.5 c 128,-1,44
 641 407 641 407 653 383 c 0,45,46
 682 321 682 321 664 244 c 0,47,48
 653 191 653 191 622.5 145.5 c 128,-1,49
 592 100 592 100 549.5 66.5 c 128,-1,50
 507 33 507 33 455.5 13.5 c 128,-1,51
 404 -6 404 -6 350 -6 c 2,52,-1
 275 -6 l 1,0,-1
EndSplineSet
EndChar
StartChar: ae
Encoding: 230 230 167
Width: 988
VWidth: 1494
Flags: W
HStem: -12 97<236.287 363.433 653.237 708 731 786.566> 227 91<601 897> 433 96<298.6 438.979> 444 93<710.9 857.261>
Fore
801 537 m 0,0,1
 864 537 864 537 906 514.5 c 128,-1,2
 948 492 948 492 969.5 456 c 128,-1,3
 991 420 991 420 995.5 374.5 c 128,-1,4
 1000 329 1000 329 990 283 c 0,5,6
 987 271 987 271 981 259 c 128,-1,7
 975 247 975 247 961 238 c 0,8,9
 946 227 946 227 915 227 c 2,10,-1
 583 227 l 1,11,12
 573 175 573 175 590.5 142 c 128,-1,13
 608 109 608 109 645 95.5 c 128,-1,14
 682 82 682 82 731 89.5 c 128,-1,15
 780 97 780 97 831 127 c 1,16,-1
 873 49 l 1,17,18
 843 28 843 28 799 13.5 c 128,-1,19
 755 -1 755 -1 708 -5.5 c 128,-1,20
 661 -10 661 -10 615.5 -1.5 c 128,-1,21
 570 7 570 7 535 34 c 1,22,23
 535 30 535 30 534 24 c 0,24,25
 531 12 531 12 531 3 c 1,26,-1
 429 3 l 1,27,-1
 439 58 l 1,28,29
 402 24 402 24 360 6 c 128,-1,30
 318 -12 318 -12 271 -12 c 0,31,32
 217 -12 217 -12 179.5 10.5 c 128,-1,33
 142 33 142 33 121 71 c 128,-1,34
 100 109 100 109 95.5 157.5 c 128,-1,35
 91 206 91 206 102 259 c 256,36,37
 112 311 112 311 139 360.5 c 128,-1,38
 166 410 166 410 203.5 447 c 128,-1,39
 241 484 241 484 287 506.5 c 128,-1,40
 333 529 333 529 386 529 c 0,41,42
 480 529 480 529 523 462 c 1,43,-1
 540 535 l 1,44,-1
 638 535 l 1,45,-1
 626 478 l 1,46,47
 664 505 664 505 708 521 c 128,-1,48
 752 537 752 537 801 537 c 0,0,1
393 117 m 0,49,50
 431 145 431 145 451.5 185.5 c 128,-1,51
 472 226 472 226 480 259 c 0,52,53
 486 286 486 286 484.5 316.5 c 128,-1,54
 483 347 483 347 471.5 373 c 128,-1,55
 460 399 460 399 436.5 416 c 128,-1,56
 413 433 413 433 372 433 c 0,57,58
 333 433 333 433 302 416 c 128,-1,59
 271 399 271 399 248.5 373 c 128,-1,60
 226 347 226 347 211.5 316.5 c 128,-1,61
 197 286 197 286 191 259 c 0,62,63
 185 229 185 229 187.5 198 c 128,-1,64
 190 167 190 167 202.5 142.5 c 128,-1,65
 215 118 215 118 239 101.5 c 128,-1,66
 263 85 263 85 299 85 c 0,67,68
 350 85 350 85 393 117 c 0,49,50
601 318 m 1,69,-1
 897 318 l 1,70,71
 904 369 904 369 873.5 406.5 c 128,-1,72
 843 444 843 444 780 444 c 0,73,74
 741 444 741 444 711.5 431.5 c 128,-1,75
 682 419 682 419 659.5 399.5 c 128,-1,76
 637 380 637 380 622 358 c 128,-1,77
 607 336 607 336 601 318 c 1,69,-1
EndSplineSet
EndChar
StartChar: eth
Encoding: 240 240 177
Width: 621
VWidth: 1494
Flags: W
Fore
329 827 m 1,0,1
 345 821 345 821 366 810.5 c 128,-1,2
 387 800 387 800 409.5 786.5 c 128,-1,3
 432 773 432 773 453 759.5 c 128,-1,4
 474 746 474 746 489 734 c 1,5,6
 505 741 505 741 531.5 752.5 c 128,-1,7
 558 764 558 764 581 773 c 0,8,9
 608 783 608 783 638 794 c 1,10,11
 641 782 641 782 647 758 c 128,-1,12
 653 734 653 734 656 722 c 1,13,14
 623 709 623 709 597 700 c 128,-1,15
 571 691 571 691 540 677 c 1,16,17
 614 599 614 599 642.5 497.5 c 128,-1,18
 671 396 671 396 644 272 c 0,19,20
 632 212 632 212 601 154.5 c 128,-1,21
 570 97 570 97 513 54 c 256,22,23
 456 10 456 10 387 -6 c 128,-1,24
 318 -22 318 -22 256 -11.5 c 128,-1,25
 194 -1 194 -1 147 36 c 128,-1,26
 100 73 100 73 87 139 c 0,27,28
 73 203 73 203 87.5 264.5 c 128,-1,29
 102 326 102 326 135.5 377.5 c 128,-1,30
 169 429 169 429 217.5 466.5 c 128,-1,31
 266 504 266 504 323 522.5 c 128,-1,32
 380 541 380 541 439.5 536.5 c 128,-1,33
 499 532 499 532 556 499 c 1,34,35
 538 543 538 543 512.5 575.5 c 128,-1,36
 487 608 487 608 453 637 c 1,37,38
 410 619 410 619 356 595 c 128,-1,39
 302 571 302 571 259 555 c 1,40,41
 256 567 256 567 252 590 c 128,-1,42
 248 613 248 613 245 625 c 1,43,-1
 402 692 l 1,44,45
 374 710 374 710 339.5 728.5 c 128,-1,46
 305 747 305 747 274 759 c 1,47,48
 283 771 283 771 301.5 793 c 128,-1,49
 320 815 320 815 329 827 c 1,0,1
550 265 m 0,50,51
 565 330 565 330 544 375 c 128,-1,52
 523 420 523 420 480.5 440 c 128,-1,53
 438 460 438 460 382.5 455 c 128,-1,54
 327 450 327 450 274 414 c 0,55,56
 230 386 230 386 207 342.5 c 128,-1,57
 184 299 184 299 175 253 c 0,58,59
 163 191 163 191 185.5 145 c 128,-1,60
 208 99 208 99 250.5 76.5 c 128,-1,61
 293 54 293 54 347.5 58.5 c 128,-1,62
 402 63 402 63 453 102 c 0,63,64
 495 135 495 135 516.5 176.5 c 128,-1,65
 538 218 538 218 550 265 c 0,50,51
EndSplineSet
EndChar
StartChar: divide
Encoding: 247 247 184
Width: 747
VWidth: 1494
Flags: W
HStem: 1 150<340.298 418.229> 208 104<157 692> 372 151<419.123 496.462>
Fore
532 447 m 0,0,1
 526 419 526 419 499 395.5 c 128,-1,2
 472 372 472 372 442 372 c 0,3,4
 411 372 411 372 394 394 c 128,-1,5
 377 416 377 416 384 447 c 256,6,7
 392 478 392 478 418 500.5 c 128,-1,8
 444 523 444 523 475 523 c 0,9,10
 505 523 505 523 522.5 500 c 128,-1,11
 540 477 540 477 532 447 c 0,0,1
454 78 m 0,12,13
 447 49 447 49 421 25 c 128,-1,14
 395 1 395 1 365 1 c 0,15,16
 333 1 333 1 316 23.5 c 128,-1,17
 299 46 299 46 306 78 c 256,18,19
 314 109 314 109 339.5 130 c 128,-1,20
 365 151 365 151 396 151 c 0,21,22
 426 151 426 151 443 129.5 c 128,-1,23
 460 108 460 108 454 78 c 0,12,13
157 312 m 1,24,-1
 715 312 l 1,25,-1
 692 208 l 1,26,-1
 135 208 l 1,27,-1
 157 312 l 1,24,-1
EndSplineSet
EndChar
StartChar: oslash
Encoding: 248 248 185
Width: 621
VWidth: 1494
Flags: W
HStem: -10 97<262.951 410.466> 431 97<326.435 461.332> 578 20G<602.549 644.444>
VStem: 126 87<149.813 163.5 163.5 245.067>
Fore
664 562 m 1,0,-1
 571 456 l 1,1,2
 599 414 599 414 604.5 359.5 c 128,-1,3
 610 305 610 305 599 259 c 0,4,5
 587 206 587 206 554.5 144 c 128,-1,6
 522 82 522 82 462 39 c 0,7,8
 392 -10 392 -10 309 -10 c 0,9,10
 238 -10 238 -10 191 25 c 1,11,-1
 99 -81 l 1,12,-1
 54 -45 l 1,13,-1
 154 70 l 1,14,15
 129 112 129 112 126 163.5 c 128,-1,16
 123 215 123 215 132 259 c 0,17,18
 141 299 141 299 163 346 c 128,-1,19
 185 393 185 393 222 433.5 c 128,-1,20
 259 474 259 474 309.5 501 c 128,-1,21
 360 528 360 528 425 528 c 128,-1,22
 490 528 490 528 531 496 c 1,23,-1
 620 598 l 1,24,-1
 664 562 l 1,0,-1
217 259 m 0,25,26
 212 233 212 233 213 204 c 128,-1,27
 214 175 214 175 226 149 c 1,28,-1
 462 417 l 1,29,30
 436 431 436 431 404 431 c 0,31,32
 362 431 362 431 329.5 413.5 c 128,-1,33
 297 396 297 396 274 370 c 128,-1,34
 251 344 251 344 237 314 c 128,-1,35
 223 284 223 284 217 259 c 0,25,26
516 259 m 0,36,37
 523 287 523 287 520 319 c 128,-1,38
 517 351 517 351 502 378 c 1,39,-1
 262 105 l 1,40,41
 290 87 290 87 330 87 c 0,42,43
 383 87 383 87 426 118 c 0,44,45
 465 145 465 145 486.5 184.5 c 128,-1,46
 508 224 508 224 516 259 c 0,36,37
EndSplineSet
EndChar
StartChar: thorn
Encoding: 254 254 191
Width: 730
VWidth: 1494
Flags: W
HStem: -27 93<307.258 459.983> 450 94<388.524 532.204>
Fore
241 259 m 256,0,1
 232 218 232 218 238.5 183 c 128,-1,2
 245 148 245 148 264 122 c 128,-1,3
 283 96 283 96 312.5 81 c 128,-1,4
 342 66 342 66 380 66 c 256,5,6
 417 66 417 66 453 81 c 128,-1,7
 489 96 489 96 519 122 c 128,-1,8
 549 148 549 148 569.5 183 c 128,-1,9
 590 218 590 218 599 259 c 256,10,11
 608 299 608 299 601.5 333.5 c 128,-1,12
 595 368 595 368 575.5 394 c 128,-1,13
 556 420 556 420 527 435 c 128,-1,14
 498 450 498 450 460 450 c 256,15,16
 423 450 423 450 387 435 c 128,-1,17
 351 420 351 420 321 394 c 128,-1,18
 291 368 291 368 270.5 333.5 c 128,-1,19
 250 299 250 299 241 259 c 256,0,1
250 743 m 1,20,-1
 357 743 l 1,21,-1
 302 484 l 1,22,23
 342 513 342 513 387.5 528.5 c 128,-1,24
 433 544 433 544 481 544 c 0,25,26
 538 544 538 544 583.5 521.5 c 128,-1,27
 629 499 629 499 657.5 460.5 c 128,-1,28
 686 422 686 422 696.5 370 c 128,-1,29
 707 318 707 318 694 259 c 0,30,31
 682 199 682 199 649.5 147.5 c 128,-1,32
 617 96 617 96 571.5 57 c 128,-1,33
 526 18 526 18 471.5 -4.5 c 128,-1,34
 417 -27 417 -27 360 -27 c 0,35,36
 312 -27 312 -27 273.5 -11.5 c 128,-1,37
 235 4 235 4 206 31 c 1,38,-1
 149 -236 l 1,39,-1
 42 -236 l 1,40,-1
 250 743 l 1,20,-1
EndSplineSet
EndChar
StartChar: Lslash
Encoding: 321 321 193
Width: 527
VWidth: 1494
Flags: W
HStem: 0 91<211 513> 505 20G<386.407 414.775> 693 20G<237.752 344>
VStem: 51 480<91 241 241 262.191>
Fore
66 311 m 1,0,-1
 170 374 l 1,1,-1
 242 713 l 1,2,-1
 344 713 l 1,3,-1
 287 444 l 1,4,-1
 419 525 l 1,5,-1
 404 454 l 1,6,-1
 272 374 l 1,7,-1
 211 91 l 1,8,-1
 531 91 l 1,9,-1
 513 0 l 1,10,-1
 151 0 l 1,11,12
 142 -7 142 -7 128 -12.5 c 128,-1,13
 114 -18 114 -18 109 -21 c 1,14,15
 97 -25 97 -25 88 -20 c 128,-1,16
 79 -15 79 -15 71.5 -6 c 128,-1,17
 64 3 64 3 59.5 13.5 c 128,-1,18
 55 24 55 24 54 31 c 0,19,20
 51 42 51 42 59 51 c 128,-1,21
 67 60 67 60 78.5 69 c 128,-1,22
 90 78 90 78 100.5 88.5 c 128,-1,23
 111 99 111 99 114 112 c 2,24,-1
 155 303 l 1,25,-1
 51 241 l 1,26,-1
 66 311 l 1,0,-1
EndSplineSet
EndChar
StartChar: lslash
Encoding: 322 322 194
Width: 273
VWidth: 1494
Flags: W
HStem: 0 21G<91 186.235> 511 20G<363.324 391.652>
VStem: 55 341<265 531 265 279.771>
Fore
70 333 m 1,0,-1
 175 396 l 1,1,-1
 241 707 l 1,2,-1
 287 741 l 1,3,-1
 339 741 l 1,4,-1
 280 460 l 1,5,-1
 396 531 l 1,6,-1
 381 462 l 1,7,-1
 265 392 l 1,8,-1
 182 0 l 1,9,-1
 91 0 l 1,10,-1
 160 327 l 1,11,-1
 55 265 l 1,12,-1
 70 333 l 1,0,-1
EndSplineSet
EndChar
StartChar: OE
Encoding: 338 338 195
Width: 1025
VWidth: 1494
Flags: W
HStem: -13 98<304.566 468.02> 1 101<674 949> 318 102<741 988> 611 102<782 1079> 628 98<408.498 574.544>
VStem: 137 103<217.258 218.5 218.5 299.89>
Fore
1079 611 m 1,0,-1
 782 611 l 1,1,-1
 741 420 l 1,2,-1
 1007 420 l 1,3,-1
 988 318 l 1,4,-1
 720 318 l 1,5,-1
 674 102 l 1,6,-1
 970 102 l 1,7,-1
 949 1 l 1,8,-1
 625 1 l 2,9,10
 596 1 596 1 580 18.5 c 128,-1,11
 564 36 564 36 567 64 c 1,12,13
 523 28 523 28 471 7.5 c 128,-1,14
 419 -13 419 -13 362 -13 c 0,15,16
 286 -13 286 -13 237 17.5 c 128,-1,17
 188 48 188 48 163.5 99.5 c 128,-1,18
 139 151 139 151 137 218.5 c 128,-1,19
 135 286 135 286 149 357 c 0,20,21
 164 425 164 425 194 490.5 c 128,-1,22
 224 556 224 556 269.5 608.5 c 128,-1,23
 315 661 315 661 377 693.5 c 128,-1,24
 439 726 439 726 519 726 c 0,25,26
 578 726 578 726 621 705.5 c 128,-1,27
 664 685 664 685 689 650 c 1,28,29
 701 680 701 680 725.5 696.5 c 128,-1,30
 750 713 750 713 779 713 c 2,31,-1
 1102 713 l 1,32,-1
 1079 611 l 1,0,-1
383 85 m 0,33,34
 431 85 431 85 469.5 107.5 c 128,-1,35
 508 130 508 130 537.5 165 c 128,-1,36
 567 200 567 200 587.5 244 c 128,-1,37
 608 288 608 288 620 332 c 2,38,-1
 631 384 l 2,39,40
 637 425 637 425 635.5 468 c 128,-1,41
 634 511 634 511 619.5 547 c 128,-1,42
 605 583 605 583 576 605.5 c 128,-1,43
 547 628 547 628 498 628 c 0,44,45
 445 628 445 628 404 604 c 128,-1,46
 363 580 363 580 332.5 541 c 128,-1,47
 302 502 302 502 281 454.5 c 128,-1,48
 260 407 260 407 250 357 c 0,49,50
 241 314 241 314 240 266 c 128,-1,51
 239 218 239 218 253.5 178 c 128,-1,52
 268 138 268 138 298.5 111.5 c 128,-1,53
 329 85 329 85 383 85 c 0,33,34
EndSplineSet
EndChar
StartChar: oe
Encoding: 339 339 196
Width: 979
VWidth: 1494
Flags: W
HStem: -10 97<232.453 377.946> 221 91<598 895> 431 95<302.999 433.956 699.509 854.261>
Fore
798 529 m 0,0,1
 861 529 861 529 903 506.5 c 128,-1,2
 945 484 945 484 966.5 448.5 c 128,-1,3
 988 413 988 413 992.5 367 c 128,-1,4
 997 321 997 321 987 277 c 0,5,6
 979 247 979 247 961 234 c 128,-1,7
 943 221 943 221 912 221 c 2,8,-1
 580 221 l 1,9,10
 570 169 570 169 587.5 136 c 128,-1,11
 605 103 605 103 642 89.5 c 128,-1,12
 679 76 679 76 728 83.5 c 128,-1,13
 777 91 777 91 828 121 c 1,14,-1
 870 43 l 1,15,16
 834 13 834 13 775 -2.5 c 128,-1,17
 716 -18 716 -18 657 -14 c 128,-1,18
 598 -10 598 -10 550 16 c 128,-1,19
 502 42 502 42 487 96 c 1,20,21
 447 48 447 48 393 19 c 128,-1,22
 339 -10 339 -10 278 -10 c 0,23,24
 221 -10 221 -10 182.5 13.5 c 128,-1,25
 144 37 144 37 122 76 c 128,-1,26
 100 115 100 115 95 163 c 128,-1,27
 90 211 90 211 100 259 c 0,28,29
 109 299 109 299 131.5 346 c 128,-1,30
 154 393 154 393 190.5 432.5 c 128,-1,31
 227 472 227 472 277 499 c 128,-1,32
 327 526 327 526 392 526 c 0,33,34
 463 526 463 526 503 494 c 128,-1,35
 543 462 543 462 561 416 c 1,36,37
 604 468 604 468 664.5 498.5 c 128,-1,38
 725 529 725 529 798 529 c 0,0,1
395 117 m 0,39,40
 423 138 423 138 444 169 c 128,-1,41
 465 200 465 200 481 250 c 0,42,43
 487 278 487 278 486.5 310 c 128,-1,44
 486 342 486 342 474.5 369 c 128,-1,45
 463 396 463 396 438.5 413.5 c 128,-1,46
 414 431 414 431 372 431 c 256,47,48
 330 431 330 431 298 413.5 c 128,-1,49
 266 396 266 396 243 370 c 128,-1,50
 220 344 220 344 205.5 314 c 128,-1,51
 191 284 191 284 185 259 c 0,52,53
 178 227 178 227 181.5 196.5 c 128,-1,54
 185 166 185 166 198.5 141.5 c 128,-1,55
 212 117 212 117 237 102 c 128,-1,56
 262 87 262 87 299 87 c 0,57,58
 351 87 351 87 395 117 c 0,39,40
777 438 m 0,59,60
 738 438 738 438 708.5 425.5 c 128,-1,61
 679 413 679 413 656.5 393.5 c 128,-1,62
 634 374 634 374 619 352 c 128,-1,63
 604 330 604 330 598 312 c 1,64,-1
 895 312 l 1,65,66
 901 363 901 363 870.5 400.5 c 128,-1,67
 840 438 840 438 777 438 c 0,59,60
EndSplineSet
EndChar
StartChar: florin
Encoding: 402 402 202
Width: 533
VWidth: 1494
Flags: W
HStem: 362 64<196 281 393 483> 642.5 81<519.562 573.155>
Fore
614 622 m 1,0,1
 602 628 602 628 586.5 634.5 c 128,-1,2
 571 641 571 641 554 642.5 c 128,-1,3
 537 644 537 644 519 639.5 c 128,-1,4
 501 635 501 635 484 622 c 0,5,6
 448 592 448 592 429.5 535 c 128,-1,7
 411 478 411 478 393 426 c 1,8,-1
 507 426 l 1,9,-1
 483 362 l 1,10,-1
 372 362 l 1,11,12
 355.5 314 l 0,13,-1
 306 170 l 0,14,15
 291 129 291 129 278 92 c 128,-1,16
 265 55 265 55 247 22.5 c 128,-1,17
 229 -10 229 -10 202.5 -37 c 128,-1,18
 176 -64 176 -64 139 -87 c 0,19,20
 121 -97 121 -97 98.5 -103 c 128,-1,21
 76 -109 76 -109 53.5 -111.5 c 128,-1,22
 31 -114 31 -114 9.5 -113 c 128,-1,23
 -12 -112 -12 -112 -27 -111 c 1,24,25
 -21 -103 -21 -103 -13.5 -89 c 128,-1,26
 -6 -75 -6 -75 1 -63 c 0,27,28
 9 -48 9 -48 18 -31 c 1,29,30
 64 -39 64 -39 95.5 -23 c 128,-1,31
 127 -7 127 -7 148.5 22 c 128,-1,32
 170 51 170 51 183.5 88.5 c 128,-1,33
 197 126 197 126 211 161 c 0,34,35
 230 212 230 212 246 261.5 c 128,-1,36
 262 311 262 311 281 362 c 1,37,-1
 169 362 l 1,38,39
 176 378 176 378 182 393 c 0,40,41
 187 405 187 405 191.5 415 c 128,-1,42
 196 425 196 425 196 426 c 1,43,-1
 302 426 l 1,44,45
 320 483 320 483 341.5 545 c 128,-1,46
 363 607 363 607 407 656 c 0,47,48
 436 691 436 691 471.5 706.5 c 128,-1,49
 507 722 507 722 542.5 723.5 c 128,-1,50
 578 725 578 725 612.5 714.5 c 128,-1,51
 647 704 647 704 674 686 c 1,52,-1
 614 622 l 1,0,1
EndSplineSet
EndChar
StartChar: circumflex
Encoding: 710 710 203
Width: 535
VWidth: 1494
Flags: W
HStem: 692 148<321 384 384 384>
VStem: 217 387<692 692 692 692>
Fore
432 788 m 1,0,1
 402 762 402 762 375 739 c 128,-1,2
 348 716 348 716 321 692 c 1,3,-1
 217 692 l 1,4,5
 236 710 236 710 265 735.5 c 128,-1,6
 294 761 294 761 321 784 c 128,-1,7
 348 807 348 807 365.5 823 c 128,-1,8
 383 839 383 839 384 840 c 1,9,-1
 501 840 l 1,10,11
 526 804 526 804 551.5 766.5 c 128,-1,12
 577 729 577 729 604 692 c 1,13,-1
 501 692 l 1,14,-1
 432 788 l 1,0,1
EndSplineSet
EndChar
StartChar: caron
Encoding: 711 711 204
Width: 523
VWidth: 1494
Flags: W
HStem: 753 148<483 546 546 546>
VStem: 262 387<901 901 901 901>
Fore
546 901 m 1,0,-1
 649 901 l 1,1,2
 605 864 605 864 564 826.5 c 128,-1,3
 523 789 523 789 483 753 c 1,4,-1
 366 753 l 1,5,6
 355 769.5 l 2,7,8
 344 786 344 786 326.5 809.5 c 128,-1,9
 309 833 309 833 291.5 858 c 128,-1,10
 274 883 274 883 262 901 c 1,11,-1
 366 901 l 1,12,13
 383 877 383 877 399.5 855 c 128,-1,14
 416 833 416 833 435 807 c 1,15,-1
 546 901 l 1,0,-1
EndSplineSet
EndChar
StartChar: breve
Encoding: 728 728 205
Width: 448
VWidth: 1494
Flags: W
HStem: 616 73<316.414 432.194>
VStem: 215 87<743.951 789> 481 89<716.177 789>
Fore
357 616 m 0,0,1
 275 616 275 616 236 661.5 c 128,-1,2
 197 707 197 707 215 789 c 1,3,-1
 302 789 l 1,4,5
 291 738 291 738 313.5 713.5 c 128,-1,6
 336 689 336 689 370 689 c 128,-1,7
 404 689 404 689 437.5 714.5 c 128,-1,8
 471 740 471 740 481 789 c 1,9,-1
 570 789 l 1,10,11
 553 712 553 712 495.5 664 c 128,-1,12
 438 616 438 616 357 616 c 0,0,1
EndSplineSet
EndChar
StartChar: dotaccent
Encoding: 729 729 206
Width: 236
VWidth: 1494
Flags: W
HStem: 616 149<224.871 306.186>
VStem: 190 149<646.666 730.719>
Fore
339 689 m 0,0,1
 333 658 333 658 307 637 c 128,-1,2
 281 616 281 616 250 616 c 256,3,4
 218 616 218 616 201 637 c 128,-1,5
 184 658 184 658 190 689 c 0,6,7
 197 720 197 720 223.5 742.5 c 128,-1,8
 250 765 250 765 281 765 c 256,9,10
 312 765 312 765 329.5 742.5 c 128,-1,11
 347 720 347 720 339 689 c 0,0,1
EndSplineSet
EndChar
StartChar: ring
Encoding: 730 730 207
Width: 415
VWidth: 1494
Flags: W
HStem: 573 56<313.845 382.922> 718 56<325.408 394.512>
VStem: 253 201<629 642 705 716 673 673 673 673>
Fore
253 673 m 256,0,1
 262 716 262 716 297 745 c 128,-1,2
 332 774 332 774 375 774 c 256,3,4
 419 774 419 774 441 745 c 128,-1,5
 463 716 463 716 454 673 c 256,6,7
 445 629 445 629 410 601 c 128,-1,8
 375 573 375 573 332 573 c 256,9,10
 288 573 288 573 266 601 c 128,-1,11
 244 629 244 629 253 673 c 256,0,1
309 673 m 0,12,13
 306 655 306 655 316 642 c 128,-1,14
 326 629 326 629 344 629 c 0,15,16
 363 629 363 629 379 642 c 128,-1,17
 395 655 395 655 398 673 c 0,18,19
 402 692 402 692 392.5 705 c 128,-1,20
 383 718 383 718 363 718 c 0,21,22
 345 718 345 718 329.5 705 c 128,-1,23
 314 692 314 692 309 673 c 0,12,13
EndSplineSet
EndChar
StartChar: tilde
Encoding: 732 732 209
Width: 449
VWidth: 1494
Flags: W
HStem: 581 140<155 288.5 288.5 288.5>
Fore
155 581 m 1,0,1
 164 622 164 622 183 654 c 128,-1,2
 202 686 202 686 229 703 c 128,-1,3
 256 720 256 720 288.5 721 c 128,-1,4
 321 722 321 722 357 700 c 0,5,6
 393 680 393 680 416 675 c 128,-1,7
 439 670 439 670 454 674.5 c 128,-1,8
 469 679 469 679 476.5 691 c 128,-1,9
 484 703 484 703 487 719 c 1,10,-1
 568 719 l 1,11,12
 564 691 564 691 548 661 c 128,-1,13
 532 631 532 631 507.5 610 c 128,-1,14
 483 589 483 589 449.5 583 c 128,-1,15
 416 577 416 577 374 596 c 0,16,17
 330 623 330 623 305 627.5 c 128,-1,18
 280 632 280 632 266.5 624.5 c 128,-1,19
 253 617 253 617 247 603.5 c 128,-1,20
 241 590 241 590 238 581 c 1,21,-1
 155 581 l 1,0,1
EndSplineSet
EndChar
StartChar: uni0E01
Encoding: 3585 3585 212
Width: 693
VWidth: 1494
Flags: W
HStem: 0 21G<139 246.135 501 608.262> 528 79<375.218 534.043>
Fore
613 444 m 1,0,1
 611 445 611 445 601.5 458.5 c 128,-1,2
 592 472 592 472 573.5 487 c 128,-1,3
 555 502 555 502 525.5 515 c 128,-1,4
 496 528 496 528 456 528 c 0,5,6
 407 528 407 528 371.5 516.5 c 128,-1,7
 336 505 336 505 312 488.5 c 128,-1,8
 288 472 288 472 273.5 455 c 128,-1,9
 259 438 259 438 250 426 c 1,10,-1
 286 395 l 1,11,12
 302 411 302 411 320 422 c 128,-1,13
 338 433 338 433 365 442 c 1,14,15
 371 432 l 2,16,17
 377 422 377 422 383 410 c 128,-1,18
 389 398 389 398 393.5 389 c 128,-1,19
 398 380 398 380 398 378 c 1,20,21
 357 363 357 363 331.5 334 c 128,-1,22
 306 305 306 305 297 266 c 2,23,-1
 242 0 l 1,24,-1
 139 0 l 1,25,-1
 196 271 l 2,26,27
 202 297 202 297 208 310.5 c 128,-1,28
 214 324 214 324 221 332 c 1,29,-1
 132 399 l 1,30,31
 136 408 136 408 157.5 441.5 c 128,-1,32
 179 475 179 475 219.5 511 c 128,-1,33
 260 547 260 547 322 576 c 128,-1,34
 384 605 384 605 469 607 c 0,35,36
 516 607 516 607 550 598 c 128,-1,37
 584 589 584 589 609.5 575 c 128,-1,38
 635 561 635 561 651 544.5 c 128,-1,39
 667 528 667 528 674 513 c 1,40,41
 682 520 682 520 697 517 c 128,-1,42
 712 514 712 514 726 493 c 0,43,44
 743 465 743 465 734.5 452 c 128,-1,45
 726 439 726 439 706 419 c 0,46,47
 695 408 695 408 690 397.5 c 128,-1,48
 685 387 685 387 682 366 c 2,49,-1
 604 0 l 1,50,-1
 501 0 l 1,51,-1
 581 381 l 2,52,53
 584 398 584 398 590 415 c 128,-1,54
 596 432 596 432 613 444 c 1,0,1
EndSplineSet
EndChar
StartChar: uni0E02
Encoding: 3586 3586 213
Width: 653
VWidth: 1494
Flags: W
HStem: 3 90<318 473.242> 347 67<195.269 267.498> 578 20G<585.765 695>
VStem: 229 3<124.044 125.971>
Fore
253 3 m 1,0,1
 247 0 247 0 241 -2 c 128,-1,2
 235 -4 235 -4 229 -7 c 0,3,4
 218 -12 218 -12 209 -6.5 c 128,-1,5
 200 -1 200 -1 192.5 7.5 c 128,-1,6
 185 16 185 16 180.5 26.5 c 128,-1,7
 176 37 176 37 175 45 c 0,8,9
 172 55 172 55 178.5 64 c 128,-1,10
 185 73 185 73 195.5 82 c 128,-1,11
 206 91 206 91 216 101.5 c 128,-1,12
 226 112 226 112 229 126 c 1,13,14
 229 124 229 124 232 136 c 0,15,16
 235 146 235 146 239.5 169.5 c 128,-1,17
 244 193 244 193 254 241 c 0,18,19
 259 259 259 259 269.5 273.5 c 128,-1,20
 280 288 280 288 294 301 c 128,-1,21
 308 314 308 314 324.5 324.5 c 128,-1,22
 341 335 341 335 354 345 c 0,23,24
 384 366 384 366 402 399.5 c 128,-1,25
 420 433 420 433 421.5 464 c 128,-1,26
 423 495 423 495 404.5 514.5 c 128,-1,27
 386 534 386 534 344 528 c 1,28,29
 359 495 359 495 351 460 c 0,30,31
 341 413 341 413 301.5 380 c 128,-1,32
 262 347 262 347 214 347 c 256,33,34
 166 347 166 347 140 380 c 128,-1,35
 114 413 114 413 124 460 c 0,36,37
 130 486 130 486 146.5 510.5 c 128,-1,38
 163 535 163 535 188.5 556 c 128,-1,39
 214 577 214 577 247 591 c 128,-1,40
 280 605 280 605 315 608 c 0,41,42
 423 620 423 620 475.5 577.5 c 128,-1,43
 528 535 528 535 508 448 c 0,44,45
 496 396 496 396 473.5 364.5 c 128,-1,46
 451 333 451 333 426.5 313 c 128,-1,47
 402 293 402 293 382.5 277.5 c 128,-1,48
 363 262 363 262 359 239 c 2,49,-1
 332 114 l 1,50,51
 330 111 330 111 326.5 103.5 c 128,-1,52
 323 96 323 96 318 93 c 1,53,-1
 457 93 l 2,54,55
 472 93 472 93 479 101 c 128,-1,56
 486 109 486 109 489 121 c 2,57,-1
 590 598 l 1,58,-1
 695 598 l 1,59,-1
 584 82 l 2,60,61
 577 43 577 43 545 23 c 128,-1,62
 513 3 513 3 475 3 c 2,63,-1
 253 3 l 1,0,1
284 460 m 256,64,65
 288 480 288 480 278 493.5 c 128,-1,66
 268 507 268 507 248 507 c 256,67,68
 229 507 229 507 212.5 493.5 c 128,-1,69
 196 480 196 480 191 460 c 256,70,71
 187 441 187 441 197.5 427.5 c 128,-1,72
 208 414 208 414 227 414 c 256,73,74
 247 414 247 414 263.5 427.5 c 128,-1,75
 280 441 280 441 284 460 c 256,64,65
EndSplineSet
EndChar
StartChar: uni0E03
Encoding: 3587 3587 214
Width: 672
VWidth: 1494
Flags: W
HStem: 3 88<351 491.141> 299 52<178.92 235.495> 578 20G<605.732 715>
Fore
256 392 m 256,0,1
 259 408 259 408 250 420 c 128,-1,2
 241 432 241 432 224 432 c 256,3,4
 208 432 208 432 193 420 c 128,-1,5
 178 408 178 408 175 392 c 256,6,7
 172 375 172 375 181 363 c 128,-1,8
 190 351 190 351 206 351 c 256,9,10
 223 351 223 351 238 363 c 128,-1,11
 253 375 253 375 256 392 c 256,0,1
268 126 m 1,12,13
 268 124 268 124 271.5 142.5 c 128,-1,14
 275 161 275 161 280 184 c 0,15,16
 286 211 286 211 293 244 c 0,17,18
 299 275 299 275 309.5 295 c 128,-1,19
 320 315 320 315 332.5 330 c 128,-1,20
 345 345 345 345 360 356.5 c 128,-1,21
 375 368 375 368 392 380 c 0,22,23
 399 386 399 386 412.5 395.5 c 128,-1,24
 426 405 426 405 438.5 416.5 c 128,-1,25
 451 428 451 428 461.5 437.5 c 128,-1,26
 472 447 472 447 474 454 c 1,27,28
 478 466 478 466 479 481 c 128,-1,29
 480 496 480 496 477.5 508 c 128,-1,30
 475 520 475 520 470.5 528.5 c 128,-1,31
 466 537 466 537 460 537 c 0,32,33
 450 535 450 535 439 529 c 128,-1,34
 428 523 428 523 417 516 c 1,35,36
 419 508 419 508 422 500 c 128,-1,37
 425 492 425 492 424 484.5 c 128,-1,38
 423 477 423 477 417 470 c 128,-1,39
 411 463 411 463 396 457 c 0,40,41
 390 454 390 454 383.5 452 c 128,-1,42
 377 450 377 450 369.5 450.5 c 128,-1,43
 362 451 362 451 356 458.5 c 128,-1,44
 350 466 350 466 347 483 c 0,45,46
 342 504 342 504 321 519 c 128,-1,47
 300 534 300 534 277 526 c 0,48,49
 256 519 256 519 242.5 507 c 128,-1,50
 229 495 229 495 221 483 c 1,51,52
 248 489 248 489 267.5 483 c 128,-1,53
 287 477 287 477 299 463.5 c 128,-1,54
 311 450 311 450 314.5 430.5 c 128,-1,55
 318 411 318 411 314 392 c 0,56,57
 306 351 306 351 271 325 c 128,-1,58
 236 299 236 299 196 299 c 0,59,60
 166 299 166 299 146 313 c 128,-1,61
 126 327 126 327 117 351 c 0,62,63
 108 381 108 381 112.5 417 c 128,-1,64
 117 453 117 453 133 486.5 c 128,-1,65
 149 520 149 520 176 548.5 c 128,-1,66
 203 577 203 577 241 593 c 0,67,68
 281 611 281 611 323.5 606 c 128,-1,69
 366 601 366 601 392 567 c 1,70,71
 435 596 435 596 451.5 602 c 128,-1,72
 468 608 468 608 483 608 c 0,73,74
 510 610 510 610 528 593 c 0,75,76
 544 580 544 580 554 547 c 128,-1,77
 564 514 564 514 555 448 c 1,78,79
 549 432 549 432 542 422.5 c 128,-1,80
 535 413 535 413 524 404 c 128,-1,81
 513 395 513 395 497 383.5 c 128,-1,82
 481 372 481 372 457 353 c 0,83,84
 439 338 439 338 424.5 324.5 c 128,-1,85
 410 311 410 311 405 288 c 2,86,-1
 368 117 l 2,87,88
 366 109 366 109 361.5 101.5 c 128,-1,89
 357 94 357 94 351 91 c 1,90,-1
 475 91 l 2,91,92
 490 91 490 91 497.5 99.5 c 128,-1,93
 505 108 505 108 508 120 c 2,94,-1
 610 598 l 1,95,-1
 715 598 l 1,96,-1
 604 81 l 2,97,98
 596 42 596 42 564 22.5 c 128,-1,99
 532 3 532 3 495 3 c 2,100,-1
 291 3 l 1,101,102
 286 0 286 0 280.5 -2 c 128,-1,103
 275 -4 275 -4 269 -7 c 0,104,105
 259 -12 259 -12 250 -6.5 c 128,-1,106
 241 -1 241 -1 233.5 7.5 c 128,-1,107
 226 16 226 16 221.5 26.5 c 128,-1,108
 217 37 217 37 215 45 c 0,109,110
 212 55 212 55 219 64 c 128,-1,111
 226 73 226 73 235.5 82 c 128,-1,112
 245 91 245 91 255 101.5 c 128,-1,113
 265 112 265 112 268 126 c 1,12,13
EndSplineSet
EndChar
StartChar: uni0E04
Encoding: 3588 3588 215
Width: 689
VWidth: 1494
Flags: W
HStem: 0 21G<510 617.262> 226 62<378.049 450.972> 381 63<390.834 463.429> 528 80<370.07 553.805>
VStem: 154.5 89.5<220.756 266.727 266.727 315.92>
Fore
468 335 m 256,0,1
 472 354 472 354 461.5 367.5 c 128,-1,2
 451 381 451 381 431 381 c 128,-1,3
 411 381 411 381 394.5 367.5 c 128,-1,4
 378 354 378 354 374 335 c 256,5,6
 369 315 369 315 380.5 301.5 c 128,-1,7
 392 288 392 288 411 288 c 0,8,9
 432 288 432 288 447.5 301.5 c 128,-1,10
 463 315 463 315 468 335 c 256,0,1
622 444 m 1,11,12
 620 447 620 447 613.5 460.5 c 128,-1,13
 607 474 607 474 590.5 489 c 128,-1,14
 574 504 574 504 544 516 c 128,-1,15
 514 528 514 528 466 528 c 0,16,17
 414 528 414 528 377.5 513.5 c 128,-1,18
 341 499 341 499 315.5 476 c 128,-1,19
 290 453 290 453 276 425.5 c 128,-1,20
 262 398 262 398 256 371 c 0,21,22
 250 341 250 341 247.5 320 c 128,-1,23
 245 299 245 299 244.5 282.5 c 128,-1,24
 244 266 244 266 244 251 c 128,-1,25
 244 236 244 236 244 220 c 1,26,27
 268 268 268 268 293 315 c 128,-1,28
 318 362 318 362 330 380 c 0,29,30
 351 408 351 408 381 426 c 128,-1,31
 411 444 411 444 444 444 c 0,32,33
 490 444 490 444 515 412 c 128,-1,34
 540 380 540 380 529 335 c 0,35,36
 520 290 520 290 482 258 c 128,-1,37
 444 226 444 226 398 226 c 0,38,39
 363 226 363 226 339 245 c 1,40,41
 309 190 309 190 283 141 c 0,42,43
 259 99 259 99 232 60 c 128,-1,44
 205 21 205 21 185 6 c 0,45,46
 151 -21 151 -21 124 15 c 0,47,48
 112 28 112 28 110 38 c 128,-1,49
 108 48 108 48 118 61 c 0,50,51
 136 84 136 84 148 102 c 128,-1,52
 160 120 160 120 158 158 c 0,53,54
 155 199 155 199 154.5 253.5 c 128,-1,55
 154 308 154 308 166 366 c 0,56,57
 188 475 188 475 271 541.5 c 128,-1,58
 354 608 354 608 480 608 c 0,59,60
 571 608 571 608 619 580.5 c 128,-1,61
 667 553 667 553 691 516 c 1,62,63
 698 519 698 519 710.5 514.5 c 128,-1,64
 723 510 723 510 735 493 c 0,65,66
 752 465 752 465 743.5 452 c 128,-1,67
 735 439 735 439 715 419 c 0,68,69
 704 408 704 408 699 397.5 c 128,-1,70
 694 387 694 387 691 366 c 2,71,-1
 613 0 l 1,72,-1
 510 0 l 1,73,-1
 590 381 l 2,74,75
 593 398 593 398 599 415 c 128,-1,76
 605 432 605 432 622 444 c 1,11,12
EndSplineSet
EndChar
StartChar: uni0E05
Encoding: 3589 3589 216
Width: 692
VWidth: 1494
Flags: W
HStem: 0 21G<514 621.262> 199 63<373.165 444.773> 354 63<384.838 456.582>
VStem: 150 91<212.191 251 251 251.212 251.212 386.751>
Fore
626 448 m 1,0,1
 620 474 620 474 604.5 491 c 128,-1,2
 589 508 589 508 555 517 c 1,3,4
 550 516 550 516 538 505.5 c 128,-1,5
 526 495 526 495 512 482 c 128,-1,6
 498 469 498 469 485 459.5 c 128,-1,7
 472 450 472 450 469 448 c 0,8,9
 453 441 453 441 442 447 c 128,-1,10
 431 453 431 453 423 466 c 0,11,12
 416 478 416 478 397 494.5 c 128,-1,13
 378 511 378 511 365 519 c 1,14,15
 312 502 312 502 290 471.5 c 128,-1,16
 268 441 268 441 256 389 c 0,17,18
 244 333 244 333 241.5 291.5 c 128,-1,19
 239 250 239 250 241 211 c 1,20,21
 263 253 263 253 287.5 293 c 128,-1,22
 312 333 312 333 326 353 c 0,23,24
 345 381 345 381 375 399 c 128,-1,25
 405 417 405 417 439 417 c 0,26,27
 484 417 484 417 509 385 c 128,-1,28
 534 353 534 353 523 308 c 0,29,30
 514 263 514 263 476 231 c 128,-1,31
 438 199 438 199 393 199 c 0,32,33
 375 199 375 199 357 205.5 c 128,-1,34
 339 212 339 212 332 221 c 1,35,36
 302 167 302 167 275 123 c 0,37,38
 251 84 251 84 225.5 48.5 c 128,-1,39
 200 13 200 13 184 3 c 0,40,41
 172 -4 172 -4 158.5 -6.5 c 128,-1,42
 145 -9 145 -9 130 6 c 0,43,44
 117 21 117 21 112.5 31.5 c 128,-1,45
 108 42 108 42 110 49.5 c 128,-1,46
 112 57 112 57 118 62 c 128,-1,47
 124 67 124 67 130 75 c 2,48,49
 138 81 138 81 144 91 c 0,50,51
 148 99 148 99 151.5 112.5 c 128,-1,52
 155 126 155 126 154 144 c 0,53,54
 151 185 151 185 150 251 c 128,-1,55
 149 317 149 317 166 389 c 0,56,57
 202 556 202 556 368 607 c 0,58,59
 383 613 383 613 396 605 c 1,60,61
 417 598 417 598 438.5 581 c 128,-1,62
 460 564 460 564 477 546 c 1,63,64
 516 577 516 577 540.5 595 c 128,-1,65
 565 613 565 613 578 610 c 0,66,67
 634 599 634 599 664.5 570 c 128,-1,68
 695 541 695 541 704 519 c 1,69,70
 723 516 723 516 740 493 c 0,71,72
 756 465 756 465 748 452 c 128,-1,73
 740 439 740 439 719 419 c 0,74,75
 709 408 709 408 703.5 397.5 c 128,-1,76
 698 387 698 387 695 366 c 2,77,-1
 617 0 l 1,78,-1
 514 0 l 1,79,-1
 595 386 l 2,80,81
 598 402 598 402 604.5 419 c 128,-1,82
 611 436 611 436 626 448 c 1,0,1
460 308 m 0,83,84
 465 327 465 327 454.5 340.5 c 128,-1,85
 444 354 444 354 425 354 c 256,86,87
 405 354 405 354 388.5 340.5 c 128,-1,88
 372 327 372 327 368 308 c 0,89,90
 365 288 365 288 375.5 275 c 128,-1,91
 386 262 386 262 405 262 c 256,92,93
 425 262 425 262 441 275 c 128,-1,94
 457 288 457 288 460 308 c 0,83,84
EndSplineSet
EndChar
StartChar: uni0E06
Encoding: 3590 3590 217
Width: 754
VWidth: 1494
Flags: W
HStem: 0 21G<580 684.247> 578 20G<702.748 807>
VStem: 125 62<366.204 418.624>
Fore
680 0 m 1,0,-1
 580 0 l 1,1,-1
 587 39 l 1,2,3
 575 79 575 79 556.5 107.5 c 128,-1,4
 538 136 538 136 515.5 155.5 c 128,-1,5
 493 175 493 175 469 185.5 c 128,-1,6
 445 196 445 196 423 200 c 1,7,-1
 402 105 l 2,8,9
 395 66 395 66 376 42.5 c 128,-1,10
 357 19 357 19 334 6.5 c 128,-1,11
 311 -6 311 -6 287 -9 c 128,-1,12
 263 -12 263 -12 245 -9 c 0,13,14
 224 -4 224 -4 207.5 7.5 c 128,-1,15
 191 19 191 19 180.5 38.5 c 128,-1,16
 170 58 170 58 168.5 85 c 128,-1,17
 167 112 167 112 178 145 c 0,18,19
 199 209 199 209 246 243.5 c 128,-1,20
 293 278 293 278 345 290 c 1,21,22
 345 294 345 294 347 300 c 0,23,24
 348 305 348 305 349 311.5 c 128,-1,25
 350 318 350 318 353 326 c 2,26,27
 359 353 359 353 368 370 c 128,-1,28
 377 387 377 387 388 399 c 128,-1,29
 399 411 399 411 413.5 421 c 128,-1,30
 428 431 428 431 444 442 c 256,31,32
 460 454 460 454 469 459.5 c 128,-1,33
 478 465 478 465 483 478 c 0,34,35
 486 490 486 490 483.5 502 c 128,-1,36
 481 514 481 514 475 522.5 c 128,-1,37
 469 531 469 531 461.5 534.5 c 128,-1,38
 454 538 454 538 448 535 c 0,39,40
 438 529 438 529 435 528.5 c 128,-1,41
 432 528 432 528 420 520 c 1,42,43
 429 499 429 499 418.5 485.5 c 128,-1,44
 408 472 408 472 392 465 c 1,45,46
 381 462 381 462 370 463.5 c 128,-1,47
 359 465 359 465 354 481 c 0,48,49
 350 502 350 502 329 517 c 128,-1,50
 308 532 308 532 283 525 c 0,51,52
 262 517 262 517 251.5 506 c 128,-1,53
 241 495 241 495 233 483 c 1,54,55
 260 489 260 489 279.5 483 c 128,-1,56
 299 477 299 477 310 462.5 c 128,-1,57
 321 448 321 448 325.5 429 c 128,-1,58
 330 410 330 410 326 390 c 0,59,60
 318 351 318 351 290.5 327 c 128,-1,61
 263 303 263 303 231 296.5 c 128,-1,62
 199 290 199 290 170.5 302 c 128,-1,63
 142 314 142 314 132 347 c 0,64,65
 121 375 121 375 125 411 c 128,-1,66
 129 447 129 447 144.5 483 c 128,-1,67
 160 519 160 519 187 548 c 128,-1,68
 214 577 214 577 248 592 c 0,69,70
 288 610 288 610 331 604.5 c 128,-1,71
 374 599 374 599 399 565 c 1,72,73
 426 583 426 583 450 593.5 c 128,-1,74
 474 604 474 604 490 608 c 0,75,76
 511 614 511 614 527 602 c 128,-1,77
 543 590 543 590 553.5 573 c 128,-1,78
 564 556 564 556 569 540.5 c 128,-1,79
 574 525 574 525 574 523 c 0,80,81
 580 502 580 502 575 486.5 c 128,-1,82
 570 471 570 471 558.5 457.5 c 128,-1,83
 547 444 547 444 531.5 432 c 128,-1,84
 516 420 516 420 501 408 c 0,85,86
 489 399 489 399 475.5 388.5 c 128,-1,87
 462 378 462 378 454 351 c 2,88,-1
 442 287 l 1,89,90
 465 284 465 284 491 274.5 c 128,-1,91
 517 265 517 265 542 249 c 128,-1,92
 567 233 567 233 587 213.5 c 128,-1,93
 607 194 607 194 616 170 c 1,94,-1
 707 598 l 1,95,-1
 807 598 l 1,96,-1
 680 0 l 1,0,-1
268 390 m 256,97,98
 271 407 271 407 262 419 c 128,-1,99
 253 431 253 431 236 431 c 256,100,101
 220 431 220 431 205 419 c 128,-1,102
 190 407 190 407 187 390 c 256,103,104
 184 374 184 374 193 362.5 c 128,-1,105
 202 351 202 351 218 351 c 256,106,107
 235 351 235 351 250 362.5 c 128,-1,108
 265 374 265 374 268 390 c 256,97,98
324 200 m 1,109,110
 302 197 302 197 277.5 179 c 128,-1,111
 253 161 253 161 245 126 c 0,112,113
 239 96 239 96 246.5 84 c 128,-1,114
 254 72 254 72 265.5 70.5 c 128,-1,115
 277 69 277 69 288 75.5 c 128,-1,116
 299 82 299 82 300 91 c 2,117,-1
 324 200 l 1,109,110
EndSplineSet
EndChar
StartChar: uni0E07
Encoding: 3591 3591 218
Width: 509
VWidth: 1494
Flags: W
HStem: 378 67<373.629 410.805> 538 67<383.897 456.886>
VStem: 300 68<465.185 525.107>
Fore
451 85 m 2,0,1
 447 67 447 67 436 53 c 128,-1,2
 425 39 425 39 409 27 c 128,-1,3
 393 15 393 15 376 6 c 128,-1,4
 359 -3 359 -3 342 -9 c 0,5,6
 320 -19 320 -19 306.5 -1.5 c 128,-1,7
 293 16 293 16 287 34 c 0,8,9
 284 42 284 42 287.5 48 c 128,-1,10
 291 54 291 54 287 61 c 0,11,12
 277 75 277 75 249 107 c 128,-1,13
 221 139 221 139 189 176.5 c 128,-1,14
 157 214 157 214 125 249 c 128,-1,15
 93 284 93 284 72 303 c 1,16,-1
 145 383 l 1,17,18
 164 365 164 365 192.5 331 c 128,-1,19
 221 297 221 297 252.5 258.5 c 128,-1,20
 284 220 284 220 313 182.5 c 128,-1,21
 342 145 342 145 363 123 c 1,22,-1
 419 384 l 1,23,24
 411 381 411 381 403 379.5 c 128,-1,25
 395 378 395 378 390 378 c 0,26,27
 342 378 342 378 316.5 411 c 128,-1,28
 291 444 291 444 300 492 c 0,29,30
 311 540 311 540 351.5 572 c 128,-1,31
 392 604 392 604 439 605 c 0,32,33
 486 605 486 605 507 589 c 128,-1,34
 528 573 528 573 535 552 c 0,35,36
 543 528 543 528 538 496 c 2,37,-1
 451 85 l 2,0,1
460 492 m 0,38,39
 465 513 465 513 454.5 525.5 c 128,-1,40
 444 538 444 538 425 538 c 256,41,42
 405 538 405 538 388.5 525.5 c 128,-1,43
 372 513 372 513 368 492 c 0,44,45
 365 472 365 472 375.5 458.5 c 128,-1,46
 386 445 386 445 405 445 c 256,47,48
 425 445 425 445 441 458.5 c 128,-1,49
 457 472 457 472 460 492 c 0,38,39
EndSplineSet
EndChar
StartChar: uni0E08
Encoding: 3592 3592 219
Width: 656
VWidth: 1494
Flags: W
HStem: 205 63<322.579 380.03> 365 64<334.536 409.685> 528 80<325.164 513.217>
VStem: 99 89<329.616 451.219> 399 78<146 148 148 223> 416 67<282.439 317 317 342.479>
Fore
653 516 m 1,0,1
 659 523 659 523 673.5 518.5 c 128,-1,2
 688 514 688 514 703 493 c 0,3,4
 719 465 719 465 710 452 c 128,-1,5
 701 439 701 439 680 419 c 0,6,7
 673 411 673 411 667 403.5 c 128,-1,8
 661 396 661 396 656 386 c 2,9,-1
 537 61 l 2,10,11
 534 52 534 52 528.5 44.5 c 128,-1,12
 523 37 523 37 513.5 29.5 c 128,-1,13
 504 22 504 22 486 12.5 c 128,-1,14
 468 3 468 3 439 -12 c 0,15,16
 422 -21 422 -21 407 -6 c 128,-1,17
 392 9 392 9 380 36 c 0,18,19
 375 48 375 48 384 57 c 128,-1,20
 393 66 393 66 399 73 c 1,21,-1
 395 223 l 1,22,23
 380 212 380 212 367 208.5 c 128,-1,24
 354 205 354 205 336 205 c 0,25,26
 296 205 296 205 270 236.5 c 128,-1,27
 244 268 244 268 256 320 c 0,28,29
 265 360 265 360 301.5 394.5 c 128,-1,30
 338 429 338 429 390 429 c 0,31,32
 429 429 429 429 457.5 406 c 128,-1,33
 486 383 486 383 483 326 c 2,34,-1
 477 146 l 1,35,-1
 562 393 l 2,36,37
 570 414 570 414 578 426 c 128,-1,38
 586 438 586 438 592 442 c 1,39,40
 589 444 589 444 580 457.5 c 128,-1,41
 571 471 571 471 553 486.5 c 128,-1,42
 535 502 535 502 505 515 c 128,-1,43
 475 528 475 528 431 528 c 0,44,45
 327 528 327 528 268 472 c 128,-1,46
 209 416 209 416 188 312 c 1,47,-1
 99 312 l 1,48,49
 115 390 115 390 148.5 446 c 128,-1,50
 182 502 182 502 228 538 c 128,-1,51
 274 574 274 574 330 591 c 128,-1,52
 386 608 386 608 445 608 c 0,53,54
 532 608 532 608 580.5 580.5 c 128,-1,55
 629 553 629 553 653 516 c 1,0,1
416 317 m 0,56,57
 419 336 419 336 407.5 350.5 c 128,-1,58
 396 365 396 365 375 365 c 256,59,60
 354 365 354 365 337.5 350.5 c 128,-1,61
 321 336 321 336 318 317 c 0,62,63
 314 296 314 296 324.5 282 c 128,-1,64
 335 268 335 268 356 268 c 256,65,66
 377 268 377 268 394 282 c 128,-1,67
 411 296 411 296 416 317 c 0,56,57
EndSplineSet
EndChar
StartChar: uni0E09
Encoding: 3593 3593 220
Width: 702
VWidth: 1494
Flags: W
HStem: -6 69<515.293 596.566> 335 61<241.489 315.225> 525 88<335.763 532.6>
VStem: 163 61<257.826 321.076>
Fore
680 517 m 1,0,1
 689 520 689 520 702 515.5 c 128,-1,2
 715 511 715 511 726 493 c 0,3,4
 743 465 743 465 734.5 452 c 128,-1,5
 726 439 726 439 706 419 c 0,6,7
 695 408 695 408 690 397.5 c 128,-1,8
 685 387 685 387 682 366 c 2,9,-1
 650 223 l 1,10,11
 676 211 676 211 685 179.5 c 128,-1,12
 694 148 694 148 686 118 c 0,13,14
 674 66 674 66 631.5 30 c 128,-1,15
 589 -6 589 -6 537 -6 c 0,16,17
 511 -6 511 -6 490 3.5 c 128,-1,18
 469 13 469 13 455 29.5 c 128,-1,19
 441 46 441 46 436 68.5 c 128,-1,20
 431 91 431 91 436 118 c 1,21,22
 438 121 438 121 441.5 132.5 c 128,-1,23
 445 144 445 144 453 152 c 1,24,25
 435 146 435 146 412.5 132 c 128,-1,26
 390 118 390 118 367.5 100 c 128,-1,27
 345 82 345 82 325 64 c 128,-1,28
 305 46 305 46 291 33 c 0,29,30
 284 25 284 25 269 11 c 128,-1,31
 254 -3 254 -3 242 -9 c 0,32,33
 221 -16 221 -16 205.5 0 c 128,-1,34
 190 16 190 16 187 31 c 0,35,36
 184 42 184 42 190.5 50 c 128,-1,37
 197 58 197 58 206 66.5 c 128,-1,38
 215 75 215 75 223.5 84 c 128,-1,39
 232 93 232 93 235 106 c 2,40,-1
 250 178 l 1,41,42
 205 178 205 178 179.5 210 c 128,-1,43
 154 242 154 242 163 287 c 0,44,45
 173 332 173 332 212 364 c 128,-1,46
 251 396 251 396 296 396 c 256,47,48
 341 396 341 396 366.5 364 c 128,-1,49
 392 332 392 332 381 287 c 0,50,51
 378 274 378 274 370.5 259.5 c 128,-1,52
 363 245 363 245 356 233 c 1,53,-1
 341 167 l 1,54,55
 392 206 392 206 448 229.5 c 128,-1,56
 504 253 504 253 558 250 c 1,57,-1
 587 389 l 2,58,59
 592 419 592 419 614 438 c 1,60,61
 611 444 611 444 602 458 c 128,-1,62
 593 472 593 472 573 487 c 128,-1,63
 553 502 553 502 521 513.5 c 128,-1,64
 489 525 489 525 439 525 c 0,65,66
 368 525 368 525 300.5 486 c 128,-1,67
 233 447 233 447 191 369 c 1,68,-1
 117 402 l 1,69,70
 175 498 175 498 260 555.5 c 128,-1,71
 345 613 345 613 460 613 c 0,72,73
 511 613 511 613 547.5 604 c 128,-1,74
 584 595 584 595 609.5 581.5 c 128,-1,75
 635 568 635 568 651.5 551 c 128,-1,76
 668 534 668 534 680 517 c 1,0,1
224 287 m 256,77,78
 220 266 220 266 231 252.5 c 128,-1,79
 242 239 242 239 263 239 c 256,80,81
 284 239 284 239 299.5 252.5 c 128,-1,82
 315 266 315 266 320 287 c 256,83,84
 324 308 324 308 313.5 321.5 c 128,-1,85
 303 335 303 335 283 335 c 256,86,87
 262 335 262 335 245.5 321.5 c 128,-1,88
 229 308 229 308 224 287 c 256,77,78
617 118 m 0,89,90
 623 141 623 141 611 157 c 128,-1,91
 599 173 599 173 575 173 c 256,92,93
 552 173 552 173 534 157 c 128,-1,94
 516 141 516 141 510 118 c 0,95,96
 505 96 505 96 516.5 79.5 c 128,-1,97
 528 63 528 63 552 63 c 256,98,99
 575 63 575 63 594 79.5 c 128,-1,100
 613 96 613 96 617 118 c 0,89,90
EndSplineSet
EndChar
StartChar: uni0E0A
Encoding: 3594 3594 221
Width: 653
VWidth: 1494
Flags: W
HStem: 3 90<317 473.242> 347 67<195.269 267.498>
Fore
253 3 m 1,0,1
 247 0 247 0 241.5 -2 c 128,-1,2
 236 -4 236 -4 230 -7 c 0,3,4
 220 -12 220 -12 210 -6.5 c 128,-1,5
 200 -1 200 -1 193.5 7.5 c 128,-1,6
 187 16 187 16 181.5 26.5 c 128,-1,7
 176 37 176 37 175 45 c 0,8,9
 172 55 172 55 178.5 64 c 128,-1,10
 185 73 185 73 195.5 82 c 128,-1,11
 206 91 206 91 216 101.5 c 128,-1,12
 226 112 226 112 229 126 c 2,13,-1
 254 241 l 2,14,15
 259 259 259 259 269.5 273.5 c 128,-1,16
 280 288 280 288 294 301 c 128,-1,17
 308 314 308 314 324.5 324.5 c 128,-1,18
 341 335 341 335 354 345 c 0,19,20
 384 366 384 366 402 399.5 c 128,-1,21
 420 433 420 433 421.5 464 c 128,-1,22
 423 495 423 495 404.5 514.5 c 128,-1,23
 386 534 386 534 344 528 c 1,24,25
 359 495 359 495 351 460 c 0,26,27
 341 413 341 413 301.5 380 c 128,-1,28
 262 347 262 347 214 347 c 256,29,30
 166 347 166 347 140 380 c 128,-1,31
 114 413 114 413 124 460 c 0,32,33
 130 486 130 486 146.5 510.5 c 128,-1,34
 163 535 163 535 188.5 556 c 128,-1,35
 214 577 214 577 247 591 c 128,-1,36
 280 605 280 605 315 608 c 0,37,38
 423 620 423 620 475.5 577.5 c 128,-1,39
 528 535 528 535 508 448 c 0,40,41
 496 396 496 396 473.5 364.5 c 128,-1,42
 451 333 451 333 426.5 313 c 128,-1,43
 402 293 402 293 382.5 277.5 c 128,-1,44
 363 262 363 262 359 239 c 2,45,-1
 332 114 l 2,46,47
 326 97 326 97 317 93 c 1,48,-1
 457 93 l 2,49,50
 472 93 472 93 479 101 c 128,-1,51
 486 109 486 109 489 121 c 2,52,-1
 547 396 l 2,53,54
 550 414 550 414 546.5 425 c 128,-1,55
 543 436 543 436 535 444 c 256,56,57
 528 451 528 451 514 456 c 1,58,59
 514 477 514 477 532 501.5 c 128,-1,60
 550 526 550 526 582 554.5 c 128,-1,61
 614 583 614 583 657 613.5 c 128,-1,62
 700 644 700 644 747 679 c 1,63,-1
 794 610 l 1,64,65
 750 581 750 581 707.5 551.5 c 128,-1,66
 665 522 665 522 626 478 c 1,67,68
 637 471 637 471 643 460 c 0,69,70
 649 451 649 451 652.5 436.5 c 128,-1,71
 656 422 656 422 652 401 c 2,72,-1
 584 82 l 2,73,74
 577 43 577 43 545 23 c 128,-1,75
 513 3 513 3 475 3 c 2,76,-1
 253 3 l 1,0,1
284 460 m 256,77,78
 288 480 288 480 278 493.5 c 128,-1,79
 268 507 268 507 248 507 c 256,80,81
 229 507 229 507 212.5 493.5 c 128,-1,82
 196 480 196 480 191 460 c 256,83,84
 187 441 187 441 197.5 427.5 c 128,-1,85
 208 414 208 414 227 414 c 256,86,87
 247 414 247 414 263.5 427.5 c 128,-1,88
 280 441 280 441 284 460 c 256,77,78
EndSplineSet
EndChar
StartChar: uni0E0B
Encoding: 3595 3595 222
Width: 686
VWidth: 1494
Flags: W
HStem: 3 88<351 506.141> 299 52<178.92 235.495> 537 71<454.21 488.536>
Fore
256 392 m 256,0,1
 259 408 259 408 250 420 c 128,-1,2
 241 432 241 432 224 432 c 256,3,4
 208 432 208 432 193 420 c 128,-1,5
 178 408 178 408 175 392 c 256,6,7
 172 375 172 375 181 363 c 128,-1,8
 190 351 190 351 206 351 c 256,9,10
 223 351 223 351 238 363 c 128,-1,11
 253 375 253 375 256 392 c 256,0,1
293 244 m 2,12,13
 299 275 299 275 309.5 295 c 128,-1,14
 320 315 320 315 332.5 330 c 128,-1,15
 345 345 345 345 360 356.5 c 128,-1,16
 375 368 375 368 392 380 c 0,17,18
 399 386 399 386 412.5 395.5 c 128,-1,19
 426 405 426 405 438.5 416.5 c 128,-1,20
 451 428 451 428 461.5 437.5 c 128,-1,21
 472 447 472 447 474 454 c 1,22,23
 478 466 478 466 479 481 c 128,-1,24
 480 496 480 496 477.5 508 c 128,-1,25
 475 520 475 520 470.5 528.5 c 128,-1,26
 466 537 466 537 460 537 c 0,27,28
 450 535 450 535 439 529 c 128,-1,29
 428 523 428 523 417 516 c 1,30,31
 419 508 419 508 422 500 c 128,-1,32
 425 492 425 492 424 484.5 c 128,-1,33
 423 477 423 477 417 470 c 128,-1,34
 411 463 411 463 396 457 c 0,35,36
 390 454 390 454 383.5 452 c 128,-1,37
 377 450 377 450 369.5 450.5 c 128,-1,38
 362 451 362 451 356 458.5 c 128,-1,39
 350 466 350 466 347 483 c 0,40,41
 342 504 342 504 321 519 c 128,-1,42
 300 534 300 534 277 526 c 0,43,44
 256 519 256 519 242.5 507 c 128,-1,45
 229 495 229 495 221 483 c 1,46,47
 248 489 248 489 267.5 483 c 128,-1,48
 287 477 287 477 299 463.5 c 128,-1,49
 311 450 311 450 314.5 430.5 c 128,-1,50
 318 411 318 411 314 392 c 0,51,52
 306 351 306 351 271 325 c 128,-1,53
 236 299 236 299 196 299 c 0,54,55
 166 299 166 299 146 313 c 128,-1,56
 126 327 126 327 117 351 c 0,57,58
 108 381 108 381 112.5 417 c 128,-1,59
 117 453 117 453 133 486.5 c 128,-1,60
 149 520 149 520 176 548.5 c 128,-1,61
 203 577 203 577 241 593 c 0,62,63
 281 611 281 611 323.5 606 c 128,-1,64
 366 601 366 601 392 567 c 1,65,66
 435 596 435 596 451.5 602 c 128,-1,67
 468 608 468 608 483 608 c 0,68,69
 510 607 510 607 528 590 c 0,70,71
 544 577 544 577 552.5 547 c 128,-1,72
 561 517 561 517 547 463 c 0,73,74
 541 447 541 447 535 435 c 128,-1,75
 529 423 529 423 520 411 c 128,-1,76
 511 399 511 399 496 385.5 c 128,-1,77
 481 372 481 372 457 353 c 0,78,79
 439 338 439 338 424.5 324.5 c 128,-1,80
 410 311 410 311 405 288 c 2,81,-1
 368 117 l 2,82,83
 366 109 366 109 361.5 101.5 c 128,-1,84
 357 94 357 94 351 91 c 1,85,-1
 490 91 l 2,86,87
 505 91 505 91 512.5 99.5 c 128,-1,88
 520 108 520 108 523 120 c 2,89,-1
 581 396 l 2,90,91
 584 414 584 414 580.5 425 c 128,-1,92
 577 436 577 436 570 444 c 256,93,94
 562 451 562 451 549 456 c 1,95,96
 549 477 549 477 566 501.5 c 128,-1,97
 583 526 583 526 614.5 554.5 c 128,-1,98
 646 583 646 583 688.5 613.5 c 128,-1,99
 731 644 731 644 779 679 c 1,100,-1
 825 610 l 1,101,102
 782 581 782 581 741 551.5 c 128,-1,103
 700 522 700 522 661 478 c 1,104,105
 671 471 671 471 677 460 c 0,106,107
 683 451 683 451 687 436.5 c 128,-1,108
 691 422 691 422 686 401 c 2,109,-1
 619 81 l 2,110,111
 611 42 611 42 579 22.5 c 128,-1,112
 547 3 547 3 510 3 c 2,113,-1
 291 3 l 1,114,115
 286 0 286 0 280 -2 c 128,-1,116
 274 -4 274 -4 268 -7 c 0,117,118
 257 -12 257 -12 248 -6.5 c 128,-1,119
 239 -1 239 -1 231.5 7.5 c 128,-1,120
 224 16 224 16 219.5 26.5 c 128,-1,121
 215 37 215 37 214 45 c 0,122,123
 211 55 211 55 217.5 64 c 128,-1,124
 224 73 224 73 234.5 82 c 128,-1,125
 245 91 245 91 255 101.5 c 128,-1,126
 265 112 265 112 268 126 c 2,127,-1
 293 244 l 2,12,13
EndSplineSet
EndChar
StartChar: uni0E0C
Encoding: 3596 3596 223
Width: 970
VWidth: 1494
Flags: W
HStem: -1 66<234.714 307.352 483.673 503.704 503.704 515.61> 185 83<661 714.793> 528 79<375.218 531.975>
VStem: 161 68<86.1302 127.9>
Fore
552 193 m 1,0,1
 528 190 528 190 509 169 c 128,-1,2
 490 148 490 148 484 123 c 0,3,4
 478 93 478 93 483.5 80 c 128,-1,5
 489 67 489 67 498 65 c 128,-1,6
 507 63 507 63 516.5 69 c 128,-1,7
 526 75 526 75 528 84 c 2,8,-1
 552 193 l 1,0,1
323 112 m 0,9,10
 327 132 327 132 316.5 145 c 128,-1,11
 306 158 306 158 287 158 c 0,12,13
 266 158 266 158 249.5 145 c 128,-1,14
 233 132 233 132 229 112 c 0,15,16
 226 93 226 93 236.5 79.5 c 128,-1,17
 247 66 247 66 268 66 c 0,18,19
 287 66 287 66 303.5 79.5 c 128,-1,20
 320 93 320 93 323 112 c 0,9,10
680 516 m 1,21,22
 688 519 688 519 701.5 515 c 128,-1,23
 715 511 715 511 726 493 c 0,24,25
 743 465 743 465 734.5 452 c 128,-1,26
 726 439 726 439 706 419 c 0,27,28
 695 408 695 408 690 397.5 c 128,-1,29
 685 387 685 387 682 366 c 2,30,-1
 661 268 l 1,31,32
 697 265 697 265 740 241 c 128,-1,33
 783 217 783 217 816 179 c 1,34,-1
 906 598 l 1,35,-1
 1007 598 l 1,36,-1
 880 0 l 1,37,-1
 779 0 l 1,38,-1
 792 64 l 1,39,40
 765 117 765 117 722 147.5 c 128,-1,41
 679 178 679 178 644 185 c 1,42,-1
 626 100 l 2,43,44
 619 66 619 66 601.5 44 c 128,-1,45
 584 22 584 22 563.5 11 c 128,-1,46
 543 0 543 0 521 -2 c 128,-1,47
 499 -4 499 -4 483 -1 c 0,48,49
 447 6 447 6 425.5 41 c 128,-1,50
 404 76 404 76 422 136 c 0,51,52
 438 188 438 188 475.5 218 c 128,-1,53
 513 248 513 248 556 262 c 1,54,-1
 583 387 l 2,55,56
 584 399 584 399 592.5 417.5 c 128,-1,57
 601 436 601 436 613 444 c 1,58,59
 608 445 608 445 597.5 458.5 c 128,-1,60
 587 472 587 472 569.5 487 c 128,-1,61
 552 502 552 502 524 515 c 128,-1,62
 496 528 496 528 456 528 c 0,63,64
 407 528 407 528 371.5 516.5 c 128,-1,65
 336 505 336 505 312 488.5 c 128,-1,66
 288 472 288 472 273.5 455 c 128,-1,67
 259 438 259 438 250 426 c 1,68,-1
 286 395 l 1,69,70
 302 411 302 411 320 422 c 128,-1,71
 338 433 338 433 365 442 c 1,72,73
 371 432 l 2,74,75
 377 422 377 422 383 410 c 128,-1,76
 389 398 389 398 393.5 389 c 128,-1,77
 398 380 398 380 398 378 c 1,78,79
 317 348 317 348 297 266 c 2,80,-1
 288 223 l 1,81,82
 314 224 314 224 334 216 c 128,-1,83
 354 208 354 208 367.5 192 c 128,-1,84
 381 176 381 176 385.5 156 c 128,-1,85
 390 136 390 136 386 112 c 0,86,87
 377 64 377 64 335.5 31.5 c 128,-1,88
 294 -1 294 -1 247 -1 c 256,89,90
 199 -1 199 -1 175.5 31.5 c 128,-1,91
 152 64 152 64 161 112 c 2,92,-1
 196 271 l 2,93,94
 202 297 202 297 208 310.5 c 128,-1,95
 214 324 214 324 221 332 c 1,96,-1
 132 399 l 1,97,98
 136 408 136 408 157.5 441.5 c 128,-1,99
 179 475 179 475 219.5 511 c 128,-1,100
 260 547 260 547 322 576 c 128,-1,101
 384 605 384 605 469 607 c 0,102,103
 514 607 514 607 548.5 598.5 c 128,-1,104
 583 590 583 590 608.5 577.5 c 128,-1,105
 634 565 634 565 651 548.5 c 128,-1,106
 668 532 668 532 680 516 c 1,21,22
EndSplineSet
EndChar
StartChar: uni0E0D
Encoding: 3597 3597 224
Width: 962
VWidth: 1494
Flags: W
HStem: -7 67<232.454 290.919> 0 90<608 787.963> 528 79<375.218 530.932>
VStem: 562 63<-160.379 -126.395>
Fore
323 108 m 0,0,1
 326 127 326 127 315.5 140.5 c 128,-1,2
 305 154 305 154 284 154 c 0,3,4
 265 154 265 154 248.5 140.5 c 128,-1,5
 232 127 232 127 229 108 c 0,6,7
 224 87 224 87 234.5 73.5 c 128,-1,8
 245 60 245 60 265 60 c 0,9,10
 286 60 286 60 302 73.5 c 128,-1,11
 318 87 318 87 323 108 c 0,0,1
562 -148 m 0,12,13
 565 -130 565 -130 552.5 -119.5 c 128,-1,14
 540 -109 540 -109 523 -112 c 0,15,16
 505 -115 505 -115 492.5 -129.5 c 128,-1,17
 480 -144 480 -144 478 -160 c 0,18,19
 477 -178 477 -178 488 -188.5 c 128,-1,20
 499 -199 499 -199 519 -196 c 0,21,22
 535 -193 535 -193 548 -178.5 c 128,-1,23
 561 -164 561 -164 562 -148 c 0,12,13
625 118 m 1,24,25
 625 111 625 111 619.5 102 c 128,-1,26
 614 93 614 93 608 90 c 1,27,-1
 762 90 l 2,28,29
 789 90 789 90 794 118 c 2,30,-1
 897 598 l 1,31,-1
 1002 598 l 1,32,-1
 891 82 l 2,33,34
 879 22 879 22 866.5 -22.5 c 128,-1,35
 854 -67 854 -67 837 -100 c 1,36,-1
 837 -102 l 1,37,38
 834 -109 834 -109 832 -113 c 0,39,-1
 821 -132 l 0,40,41
 806 -154 806 -154 791 -169 c 128,-1,42
 776 -184 776 -184 761 -196 c 0,43,44
 725 -224 725 -224 684.5 -240.5 c 128,-1,45
 644 -257 644 -257 604.5 -263 c 128,-1,46
 565 -269 565 -269 529 -265.5 c 128,-1,47
 493 -262 493 -262 466 -251 c 0,48,49
 442 -241 442 -241 428 -220.5 c 128,-1,50
 414 -200 414 -200 416 -170 c 0,51,52
 419 -127 419 -127 451 -93.5 c 128,-1,53
 483 -60 483 -60 526 -52 c 256,54,55
 570 -45 570 -45 599 -70.5 c 128,-1,56
 628 -96 628 -96 625 -138 c 0,57,58
 625 -158 625 -158 613 -182 c 1,59,60
 691 -166 691 -166 731 -120 c 0,61,62
 743 -108 743 -108 758.5 -79.5 c 128,-1,63
 774 -51 774 -51 788 0 c 1,64,-1
 552 0 l 1,65,-1
 532 -6 l 2,66,67
 522 -9 522 -9 513 -4.5 c 128,-1,68
 504 0 504 0 496.5 9 c 128,-1,69
 489 18 489 18 484.5 27.5 c 128,-1,70
 480 37 480 37 478 45 c 0,71,72
 475 55 475 55 480.5 61 c 128,-1,73
 486 67 486 67 494 74 c 128,-1,74
 502 81 502 81 509.5 88.5 c 128,-1,75
 517 96 517 96 520 109 c 2,76,-1
 580 387 l 2,77,78
 581 399 581 399 590 417 c 128,-1,79
 599 435 599 435 610 444 c 1,80,81
 605 445 605 445 595.5 458.5 c 128,-1,82
 586 472 586 472 568 487 c 128,-1,83
 550 502 550 502 523 515 c 128,-1,84
 496 528 496 528 456 528 c 0,85,86
 407 528 407 528 371.5 516.5 c 128,-1,87
 336 505 336 505 312 488.5 c 128,-1,88
 288 472 288 472 273.5 455 c 128,-1,89
 259 438 259 438 250 426 c 1,90,-1
 286 395 l 1,91,92
 302 411 302 411 320 422 c 128,-1,93
 338 433 338 433 365 442 c 1,94,95
 371 432 l 2,96,97
 377 422 377 422 383 410 c 128,-1,98
 389 398 389 398 393.5 389 c 128,-1,99
 398 380 398 380 398 378 c 1,100,101
 357 363 357 363 331.5 334 c 128,-1,102
 306 305 306 305 297 266 c 2,103,-1
 288 220 l 1,104,105
 291 221 291 221 294 221 c 128,-1,106
 297 221 297 221 299 221 c 0,107,108
 347 221 347 221 374 188 c 128,-1,109
 401 155 401 155 390 108 c 0,110,111
 386 84 386 84 371.5 63 c 128,-1,112
 357 42 357 42 338.5 26 c 128,-1,113
 320 10 320 10 297 1.5 c 128,-1,114
 274 -7 274 -7 250 -7 c 0,115,116
 202 -7 202 -7 176.5 26.5 c 128,-1,117
 151 60 151 60 161 108 c 2,118,-1
 196 271 l 2,119,120
 202 297 202 297 208 310.5 c 128,-1,121
 214 324 214 324 221 332 c 1,122,-1
 132 399 l 1,123,124
 136 408 136 408 157.5 441.5 c 128,-1,125
 179 475 179 475 219.5 511 c 128,-1,126
 260 547 260 547 322 576 c 128,-1,127
 384 605 384 605 469 607 c 0,128,129
 514 607 514 607 548.5 598.5 c 128,-1,130
 583 590 583 590 607.5 577.5 c 128,-1,131
 632 565 632 565 648.5 548.5 c 128,-1,132
 665 532 665 532 677 516 c 1,133,134
 685 519 685 519 698.5 515 c 128,-1,135
 712 511 712 511 723 493 c 0,136,137
 740 465 740 465 731.5 452 c 128,-1,138
 723 439 723 439 703 419 c 0,139,140
 692 408 692 408 687 397.5 c 128,-1,141
 682 387 682 387 679 366 c 2,142,-1
 625 118 l 1,24,25
EndSplineSet
Substitution2: "Single Substitution lookup 22 subtable" uni0E0D.alt1
Substitution2: "Single Substitution lookup 22 subtable" uni0E0D.alt1
EndChar
StartChar: uni0E0E
Encoding: 3598 3598 225
Width: 724
VWidth: 1494
Flags: W
HStem: -366 67<108.664 183.188> -199 69<137.516 197.13> -10 68<138.242 199.9> 151 69<165.811 218.558> 531 79<409.964 567.784>
VStem: 202 69<-282.711 -241.577 -241.577 -235.559>
Fore
598 -187 m 2,0,1
 593 -203 593 -203 583 -215 c 0,2,3
 581 -217 581 -217 560.5 -235.5 c 128,-1,4
 540 -254 540 -254 514.5 -277 c 128,-1,5
 489 -300 489 -300 466.5 -320.5 c 128,-1,6
 444 -341 444 -341 439 -345 c 0,7,8
 422 -362 422 -362 410 -365 c 128,-1,9
 398 -368 398 -368 380 -354 c 0,10,11
 369 -347 369 -347 358.5 -332.5 c 128,-1,12
 348 -318 348 -318 359 -303 c 1,13,14
 338 -274 338 -274 315.5 -258 c 128,-1,15
 293 -242 293 -242 272 -235 c 1,16,17
 272 -244 272 -244 271 -248 c 0,18,19
 260 -297 260 -297 218 -331.5 c 128,-1,20
 176 -366 176 -366 127 -366 c 0,21,22
 79 -366 79 -366 51.5 -331.5 c 128,-1,23
 24 -297 24 -297 34 -248 c 0,24,25
 39 -224 39 -224 53 -202.5 c 128,-1,26
 67 -181 67 -181 86.5 -165 c 128,-1,27
 106 -149 106 -149 130 -139.5 c 128,-1,28
 154 -130 154 -130 178 -130 c 0,29,30
 193 -130 193 -130 205 -135 c 1,31,-1
 218 -72 l 1,32,-1
 303 -72 l 1,33,-1
 287 -151 l 1,34,35
 317 -158 317 -158 353.5 -178.5 c 128,-1,36
 390 -199 390 -199 425 -242 c 1,37,38
 444 -226 444 -226 464 -208 c 128,-1,39
 484 -190 484 -190 496 -178 c 1,40,-1
 617 390 l 2,41,42
 619 402 619 402 628.5 420.5 c 128,-1,43
 638 439 638 439 647 448 c 1,44,45
 643 450 643 450 633 463.5 c 128,-1,46
 623 477 623 477 604.5 492 c 128,-1,47
 586 507 586 507 558.5 519 c 128,-1,48
 531 531 531 531 490 531 c 0,49,50
 441 531 441 531 406 519.5 c 128,-1,51
 371 508 371 508 347 491.5 c 128,-1,52
 323 475 323 475 308.5 458 c 128,-1,53
 294 441 294 441 286 429 c 1,54,-1
 320 398 l 1,55,56
 336 414 336 414 354 425 c 128,-1,57
 372 436 372 436 401 445 c 1,58,59
 406 435 l 2,60,61
 411 425 411 425 417 413 c 128,-1,62
 423 401 423 401 428 392 c 128,-1,63
 433 383 433 383 433 381 c 1,64,65
 392 366 392 366 371 337 c 128,-1,66
 350 308 350 308 342 269 c 2,67,-1
 309 117 l 2,68,69
 305 93 305 93 293 69.5 c 128,-1,70
 281 46 281 46 261.5 28 c 128,-1,71
 242 10 242 10 216 0 c 128,-1,72
 190 -10 190 -10 157 -10 c 0,73,74
 109 -10 109 -10 82 23.5 c 128,-1,75
 55 57 55 57 66 105 c 0,76,77
 70 129 70 129 83.5 149.5 c 128,-1,78
 97 170 97 170 116.5 186 c 128,-1,79
 136 202 136 202 159 211 c 128,-1,80
 182 220 182 220 206 220 c 0,81,82
 214 220 214 220 226 217 c 1,83,-1
 238 274 l 2,84,85
 244 300 244 300 250 313.5 c 128,-1,86
 256 327 256 327 263 335 c 1,87,-1
 167 402 l 1,88,89
 172 411 172 411 193 444.5 c 128,-1,90
 214 478 214 478 255 514 c 128,-1,91
 296 550 296 550 357.5 579 c 128,-1,92
 419 608 419 608 504 610 c 0,93,94
 550 610 550 610 584.5 601.5 c 128,-1,95
 619 593 619 593 644.5 580 c 128,-1,96
 670 567 670 567 686.5 550.5 c 128,-1,97
 703 534 703 534 715 517 c 1,98,99
 723 520 723 520 736 515.5 c 128,-1,100
 749 511 749 511 761 493 c 0,101,102
 777 465 777 465 769 452 c 128,-1,103
 761 439 761 439 740 419 c 0,104,105
 729 408 729 408 724 397.5 c 128,-1,106
 719 387 719 387 716 366 c 2,107,-1
 598 -187 l 2,0,1
227 105 m 0,108,109
 232 124 232 124 221.5 137.5 c 128,-1,110
 211 151 211 151 191 151 c 0,111,112
 170 151 170 151 154 137.5 c 128,-1,113
 138 124 138 124 133 105 c 0,114,115
 130 85 130 85 140.5 71.5 c 128,-1,116
 151 58 151 58 172 58 c 0,117,118
 191 58 191 58 207.5 71.5 c 128,-1,119
 224 85 224 85 227 105 c 0,108,109
202 -248 m 256,120,121
 206 -227 206 -227 195 -213 c 128,-1,122
 184 -199 184 -199 163 -199 c 256,123,124
 142 -199 142 -199 125 -213 c 128,-1,125
 108 -227 108 -227 103 -248 c 256,126,127
 99 -269 99 -269 110 -284 c 128,-1,128
 121 -299 121 -299 142 -299 c 256,129,130
 163 -299 163 -299 180 -284 c 128,-1,131
 197 -269 197 -269 202 -248 c 256,120,121
EndSplineSet
Substitution2: "Single Substitution lookup 22 subtable" uni0E0E.alt1
Substitution2: "Single Substitution lookup 22 subtable" uni0E0E.alt1
EndChar
